<svg width="42" height="41" viewBox="0 0 42 41" fill="none" xmlns="http://www.w3.org/2000/svg">
<path d="M13.6788 18.0465C13.6788 18.4663 13.7124 18.8021 13.7964 19.0876C13.8803 19.2891 13.9979 19.5577 14.149 19.86C14.2161 19.9272 14.2329 20.0279 14.2329 20.1119C14.2329 20.2294 14.1658 20.3302 14.0146 20.4477L13.3094 20.9179C13.2086 20.985 13.1079 21.0186 13.0239 21.0186C12.9064 21.0186 12.8056 20.9515 12.6881 20.8507C12.537 20.6828 12.4026 20.5149 12.2851 20.3302C12.1844 20.1455 12.0668 19.9272 11.9493 19.6753C11.0761 20.6996 9.98464 21.2201 8.6581 21.2201C7.71777 21.2201 6.97894 20.9515 6.42481 20.4141C5.88748 19.8768 5.60202 19.1547 5.60202 18.248C5.60202 17.3245 5.93785 16.5688 6.60952 15.9643C7.29798 15.3934 8.20473 15.0912 9.34656 15.0912C9.73277 15.0912 10.0854 15.1247 10.5388 15.1919C10.925 15.2423 11.3784 15.3262 11.8149 15.427V14.621C11.8149 13.7646 11.647 13.2105 11.2944 12.8243C10.925 12.4717 10.3373 12.3205 9.48089 12.3205C9.07789 12.3205 8.67489 12.3709 8.27189 12.4549C7.8521 12.5556 7.4491 12.6732 7.06289 12.8411C6.87819 12.9082 6.72706 12.9586 6.67669 12.9754C6.59273 13.009 6.54235 13.009 6.49198 13.009C6.34085 13.009 6.25689 12.9082 6.25689 12.6732V12.119C6.25689 11.9511 6.27369 11.8168 6.34085 11.7328C6.39123 11.6489 6.49198 11.5817 6.6431 11.5313C7.0461 11.2962 7.49948 11.1283 8.0536 10.994C8.62324 10.843 9.21065 10.7696 9.79994 10.7757C11.1265 10.7757 12.1004 11.078 12.7217 11.6825C13.343 12.287 13.6452 13.2105 13.6452 14.4363V18.0465H13.6788ZM9.14506 19.7592C9.51448 19.7592 9.88389 19.6921 10.2869 19.5577C10.6899 19.4234 11.0425 19.1715 11.3448 18.8357C11.5295 18.6174 11.6638 18.3823 11.7646 18.1137C11.7646 17.845 11.8485 17.526 11.8485 17.1397V16.6864C11.5127 16.5688 11.1769 16.5688 10.8074 16.4849C10.4616 16.4468 10.1142 16.4244 9.76635 16.4177C9.01073 16.4177 8.47339 16.5688 8.10398 16.8711C7.73456 17.1733 7.56664 17.5931 7.56664 18.1472C7.56664 18.6846 7.68419 19.0876 7.96964 19.3395C8.23831 19.6249 8.62452 19.7592 9.14506 19.7592ZM18.1118 20.9515C17.9491 20.9577 17.7875 20.9231 17.6416 20.8507C17.5913 20.7667 17.5073 20.6156 17.4401 20.4141L14.8206 11.7832C14.7535 11.5313 14.7199 11.4138 14.7199 11.3298C14.7199 11.1451 14.8039 11.0444 14.9886 11.0444H16.08C16.2983 11.0444 16.4494 11.078 16.5166 11.1619C16.6174 11.2291 16.6845 11.3802 16.7517 11.5985L18.6156 18.9868L20.3619 11.5985C20.4123 11.3802 20.4794 11.2291 20.5802 11.1619C20.6641 11.0947 20.8153 11.0444 21 11.0444H21.9235C22.125 11.0444 22.2761 11.078 22.3601 11.1619C22.4441 11.2291 22.528 11.3802 22.5784 11.5985L24.3583 19.0876L26.2726 11.5985C26.3397 11.3802 26.4237 11.2291 26.4909 11.1619C26.5916 11.0947 26.7259 11.0444 26.9274 11.0444H27.9685C28.1532 11.0444 28.254 11.1451 28.254 11.3298C28.254 11.3802 28.2372 11.4474 28.2204 11.5313C28.2204 11.5313 28.1868 11.6657 28.1532 11.7832L25.4498 20.4141C25.3826 20.6492 25.3154 20.7667 25.1979 20.8507C25.1307 20.9179 24.9796 20.9682 24.7949 20.9682H23.8378C23.6195 20.9682 23.5187 20.9347 23.3844 20.8507C23.2715 20.731 23.2007 20.5777 23.1829 20.4141L21.4534 13.2105L19.7238 20.3973C19.6734 20.6156 19.6063 20.7667 19.5223 20.8507C19.384 20.9271 19.2266 20.9621 19.0689 20.9515H18.1118ZM32.4687 21.2537C31.9146 21.2537 31.2933 21.1865 30.7391 21.0522C30.185 20.9179 29.7484 20.7667 29.463 20.6156C29.3169 20.5458 29.1944 20.4349 29.1104 20.2966C29.0642 20.2026 29.0412 20.099 29.0432 19.9943V19.4234C29.0432 19.1883 29.1271 19.0876 29.2951 19.0876H29.4966C29.5637 19.0876 29.6645 19.1715 29.782 19.2219C30.1514 19.3898 30.5712 19.5242 31.0078 19.6081C31.4612 19.6921 31.9146 19.7425 32.3344 19.7425C33.0396 19.7425 33.5937 19.6249 33.9631 19.373C34.3493 19.0876 34.5509 18.7685 34.5509 18.3152C34.5509 17.9961 34.4333 17.7442 34.2486 17.526C34.0471 17.3245 33.6609 17.123 33.1236 16.955L31.4948 16.4513C30.6888 16.1826 30.0843 15.8132 29.7149 15.3095C29.3543 14.8431 29.1594 14.2701 29.1607 13.6807C29.1607 13.2105 29.2615 12.8075 29.463 12.4549C29.6645 12.0855 29.9331 11.7832 30.2354 11.5313C30.6048 11.2795 30.9742 11.0947 31.4276 10.9604C31.8642 10.8261 32.3344 10.7589 32.8381 10.7589C33.0732 10.7589 33.3251 10.7757 33.5937 10.8093C33.8288 10.8429 34.0639 10.8932 34.299 10.9268C34.5341 10.994 34.7356 11.0444 34.9371 11.1115C35.1386 11.1787 35.2729 11.2459 35.4072 11.313C35.5584 11.397 35.6759 11.481 35.7431 11.5817C35.8102 11.6825 35.8438 11.8 35.8438 11.9511V12.4885C35.8438 12.7235 35.7599 12.8411 35.5919 12.8411C35.508 12.8411 35.3569 12.7907 35.1554 12.7067C34.5341 12.4213 33.812 12.2702 33.0228 12.2702C32.3847 12.2702 31.9146 12.3709 31.5284 12.5892C31.1925 12.7907 31.0078 13.1265 31.0078 13.5799C31.0078 13.899 31.1254 14.1676 31.3436 14.3691C31.5619 14.5874 31.9817 14.7889 32.5694 14.9904L34.1646 15.4942C34.9706 15.7292 35.5416 16.0987 35.8942 16.5688C36.23 17.0222 36.3979 17.5427 36.3979 18.1305C36.3979 18.6006 36.2972 19.0372 36.1125 19.4234C35.911 19.7928 35.6423 20.1287 35.2729 20.3973C34.9539 20.6828 34.5341 20.8843 34.0639 21.0354C33.5937 21.1865 33.0228 21.2537 32.4687 21.2537ZM34.5676 26.6942C30.8903 29.3977 25.5505 30.8417 21 30.8417C14.5352 30.8417 8.74206 28.4573 4.35944 24.5113C4.00681 24.1922 4.32585 23.7725 4.74564 24.0243C9.48089 26.7614 15.3076 28.4237 21.3526 28.4237C25.433 28.4237 29.9164 27.5842 34.0303 25.8042C34.6516 25.5524 35.1721 26.2408 34.5676 26.6942ZM36.1125 24.9647C35.6255 24.3434 32.9892 24.6624 31.797 24.7967C31.4444 24.8471 31.394 24.5281 31.7131 24.293C33.812 22.8321 37.2711 23.2855 37.6573 23.7389C38.0603 24.2426 37.5566 27.7017 35.5919 29.3473C35.2729 29.5992 34.9874 29.4648 35.1218 29.1626C35.5751 28.0207 36.5659 25.5356 36.1125 24.9647Z" fill="white"/>
</svg>
