<svg width="42" height="41" viewBox="0 0 42 41" fill="none" xmlns="http://www.w3.org/2000/svg">
<path d="M9.95624 5.71844C7.80019 5.71844 6.20666 7.60583 6.27887 9.65105C6.34603 11.6174 6.25704 14.163 5.6156 16.2401C4.97248 18.3223 3.88606 19.6421 2.1095 19.8117V21.7226C3.88606 21.8922 4.97248 23.212 5.6156 25.2942C6.25704 27.3696 6.34604 29.9169 6.27719 31.8815C6.20666 33.9284 7.80019 35.8158 9.95792 35.8158H32.0457C34.2017 35.8158 35.7969 33.9284 35.7264 31.8815C35.6576 29.9169 35.7466 27.3696 36.3863 25.2942C37.0311 23.212 38.1159 21.8922 39.8907 21.7226V19.8117C38.1142 19.6421 37.0311 18.3223 36.3863 16.2401C35.7466 14.1647 35.6576 11.6174 35.7264 9.65105C35.7969 7.60583 34.2017 5.71844 32.0457 5.71844H9.95624ZM27.7235 24.2447C27.7235 27.0623 25.6229 28.7717 22.1352 28.7717H16.1977C16.1136 28.7719 16.0302 28.7556 15.9524 28.7235C15.8745 28.6915 15.8038 28.6444 15.7442 28.5849C15.6847 28.5255 15.6374 28.4549 15.6051 28.3772C15.5729 28.2994 15.5563 28.2161 15.5563 28.132V13.4023C15.5563 13.3182 15.5729 13.2348 15.6051 13.1571C15.6374 13.0794 15.6847 13.0088 15.7442 12.9493C15.8038 12.8899 15.8745 12.8428 15.9524 12.8108C16.0302 12.7787 16.1136 12.7623 16.1977 12.7625H22.1C25.0083 12.7625 26.9175 14.3376 26.9175 16.7573C26.9175 18.4532 25.6329 19.9746 23.9974 20.2399V20.3289C26.224 20.5724 27.7235 22.1155 27.7235 24.2447ZM21.4871 14.791H18.1019V19.5732H20.9531C23.1579 19.5732 24.3719 18.6866 24.3719 17.0998C24.3719 15.6138 23.3274 14.7927 21.4871 14.7927V14.791ZM18.1019 21.4707V26.7416H21.6113C23.9068 26.7416 25.1208 25.8197 25.1208 24.0885C25.1208 22.359 23.8732 21.4707 21.4636 21.4707H18.1019Z" fill="white"/>
</svg>
