<svg width="41" height="31" viewBox="0 0 41 31" fill="none" xmlns="http://www.w3.org/2000/svg">
<mask id="mask0_1_1842" style="mask-type:alpha" maskUnits="userSpaceOnUse" x="0" y="0" width="41" height="31">
<rect x="0.849976" y="0.116699" width="39.65" height="30.6968" fill="#D9D9D9"/>
</mask>
<g mask="url(#mask0_1_1842)">
<path d="M27.4392 25.0818V22.5237H31.2763C31.6387 22.5237 31.9424 22.4011 32.1876 22.156C32.4327 21.9108 32.5553 21.6071 32.5553 21.2447V18.6866C32.5553 17.8766 32.7898 17.1411 33.2588 16.4803C33.7278 15.8194 34.346 15.3505 35.1134 15.0733V14.6257C34.346 14.3486 33.7278 13.8796 33.2588 13.2187C32.7898 12.5579 32.5553 11.8225 32.5553 11.0124V8.45435C32.5553 8.09195 32.4327 7.78818 32.1876 7.54304C31.9424 7.29789 31.6387 7.17531 31.2763 7.17531H27.4392V4.61725H31.2763C32.3421 4.61725 33.2481 4.9903 33.9942 5.7364C34.7403 6.4825 35.1134 7.38849 35.1134 8.45435V11.0124C35.1134 11.3748 35.236 11.6786 35.4811 11.9237C35.7262 12.1689 36.03 12.2914 36.3924 12.2914H37.6714V17.4076H36.3924C36.03 17.4076 35.7262 17.5301 35.4811 17.7753C35.236 18.0204 35.1134 18.3242 35.1134 18.6866V21.2447C35.1134 22.3105 34.7403 23.2165 33.9942 23.9626C33.2481 24.7087 32.3421 25.0818 31.2763 25.0818H27.4392ZM9.53273 25.0818C8.46687 25.0818 7.56089 24.7087 6.81479 23.9626C6.06869 23.2165 5.69564 22.3105 5.69564 21.2447V18.6866C5.69564 18.3242 5.57306 18.0204 5.32792 17.7753C5.08277 17.5301 4.779 17.4076 4.41661 17.4076H3.13757V12.2914H4.41661C4.779 12.2914 5.08277 12.1689 5.32792 11.9237C5.57306 11.6786 5.69564 11.3748 5.69564 11.0124V8.45435C5.69564 7.38849 6.06869 6.4825 6.81479 5.7364C7.56089 4.9903 8.46687 4.61725 9.53273 4.61725H13.3698V7.17531H9.53273C9.17034 7.17531 8.86657 7.29789 8.62142 7.54304C8.37628 7.78818 8.2537 8.09195 8.2537 8.45435V11.0124C8.2537 11.8225 8.01921 12.5579 7.55023 13.2187C7.08126 13.8796 6.46306 14.3486 5.69564 14.6257V15.0733C6.46306 15.3505 7.08126 15.8194 7.55023 16.4803C8.01921 17.1411 8.2537 17.8766 8.2537 18.6866V21.2447C8.2537 21.6071 8.37628 21.9108 8.62142 22.156C8.86657 22.4011 9.17034 22.5237 9.53273 22.5237H13.3698V25.0818H9.53273Z" fill="white"/>
</g>
<rect x="13.6404" y="12.9072" width="2.55806" height="2.55806" fill="white"/>
<rect x="18.7566" y="12.9072" width="2.55806" height="2.55806" fill="white"/>
<rect x="23.8726" y="12.9072" width="2.55806" height="2.55806" fill="white"/>
</svg>
