<svg width="42" height="41" viewBox="0 0 42 41" fill="none" xmlns="http://www.w3.org/2000/svg">
<g clip-path="url(#clip0_1_1821)">
<path d="M13.4471 0.616699H17.776V2.42684H15.2573V4.23698H17.776V6.04712H13.4471V0.616699ZM18.6408 0.616699H22.9714V2.19176H20.4526V2.50576H22.9714V6.12604H18.6408V4.47374H21.1596V4.15806H18.6408V0.616699ZM23.8378 0.616699H28.165V2.19176H25.6463V2.50576H28.165V6.12604H23.8378V4.47374H26.3566V4.15806H23.8378V0.616699Z" fill="white"/>
<path fill-rule="evenodd" clip-rule="evenodd" d="M20.9848 40.917L9.3247 37.6795L5.88745 8.5376H36.1124L32.6769 37.6762L20.9848 40.917ZM12.683 21.7291L13.0038 25.3024H25.391L24.9762 29.9369L20.9899 31.0149H20.9865L17.0069 29.9403L16.7517 27.0907H13.1633L13.6637 32.7025L20.9848 34.7343L28.3178 32.7025L29.2111 22.6879L29.2984 21.7291L29.9432 14.4936H12.0399L12.3657 18.0685H26.0274L25.7016 21.7291H12.683Z" fill="white"/>
</g>
<defs>
<clipPath id="clip0_1_1821">
<rect width="40.3" height="40.3" fill="white" transform="translate(0.849976 0.616638)"/>
</clipPath>
</defs>
</svg>
