<svg width="42" height="41" viewBox="0 0 42 41" fill="none" xmlns="http://www.w3.org/2000/svg">
<path d="M37.4727 17.828C37.3719 17.7608 36.5323 17.106 34.7188 17.106C34.2487 17.106 33.7785 17.1563 33.3083 17.2403C32.9557 14.8895 30.9911 13.6973 30.9071 13.6469L30.4202 13.3614L30.1179 13.8148C29.7149 14.4193 29.3959 15.1078 29.2615 15.813C28.9257 17.1563 29.1272 18.4325 29.8157 19.524C28.9929 19.9941 27.6495 20.1117 27.3641 20.1117H5.24946C4.67854 20.1117 4.20837 20.5818 4.20837 21.1696C4.20837 23.1006 4.51062 25.0316 5.18229 26.8451C5.93792 28.8433 7.07975 30.321 8.54062 31.2278C10.1862 32.2353 12.8897 32.8062 15.9625 32.8062C17.2891 32.8062 18.666 32.6886 20.0261 32.4368C21.9068 32.1009 23.7203 31.4461 25.3827 30.4889C26.7594 29.7016 27.9917 28.6851 29.0265 27.4832C30.7896 25.5186 31.8307 23.2853 32.5863 21.3543H32.9053C34.8196 21.3543 36.0118 20.5818 36.6667 19.927C37.1032 19.524 37.4223 19.037 37.6574 18.4661L37.7917 18.0631L37.4727 17.828ZM7.31483 19.4904H10.2702C10.4045 19.4904 10.5388 19.3728 10.5388 19.2217V16.5686C10.5388 16.4343 10.4213 16.3 10.2702 16.3H7.31483C7.16371 16.3 7.04617 16.4175 7.04617 16.5686V19.2217C7.06296 19.3728 7.16371 19.4904 7.31483 19.4904ZM11.3952 19.4904H14.3505C14.4849 19.4904 14.6192 19.3728 14.6192 19.2217V16.5686C14.6192 16.4343 14.5017 16.3 14.3505 16.3H11.3952C11.2441 16.3 11.1265 16.4175 11.1265 16.5686V19.2217C11.1433 19.3728 11.2441 19.4904 11.3952 19.4904ZM15.5427 19.4904H18.4813C18.6492 19.4904 18.7667 19.3728 18.7667 19.2217V16.5686C18.7667 16.4343 18.666 16.3 18.4813 16.3H15.5427C15.4084 16.3 15.2909 16.4175 15.2909 16.5686V19.2217C15.2909 19.3728 15.3916 19.4904 15.5427 19.4904ZM19.6399 19.4904H22.612C22.7464 19.4904 22.8639 19.3728 22.8639 19.2217V16.5686C22.8639 16.4343 22.7632 16.3 22.612 16.3H19.6399C19.5056 16.3 19.388 16.4175 19.388 16.5686V19.2217C19.388 19.3728 19.5056 19.4904 19.6399 19.4904ZM11.3952 15.7291H14.3505C14.4849 15.7291 14.6192 15.5779 14.6192 15.4268V12.7905C14.6192 12.6394 14.5017 12.5218 14.3505 12.5218H11.3952C11.2441 12.5218 11.1265 12.6226 11.1265 12.7905V15.4268C11.1433 15.5779 11.2441 15.7291 11.3952 15.7291ZM15.5427 15.7291H18.4813C18.6492 15.7291 18.7667 15.5779 18.7667 15.4268V12.7905C18.7667 12.6394 18.666 12.5218 18.4813 12.5218H15.5427C15.4084 12.5218 15.2909 12.6226 15.2909 12.7905V15.4268C15.2909 15.5779 15.3916 15.7291 15.5427 15.7291ZM19.6399 15.7291H22.612C22.7464 15.7291 22.8639 15.5779 22.8639 15.4268V12.7905C22.8639 12.6394 22.7464 12.5218 22.612 12.5218H19.6399C19.5056 12.5218 19.388 12.6226 19.388 12.7905V15.4268C19.388 15.5779 19.5056 15.7291 19.6399 15.7291ZM19.6399 11.9006H22.612C22.7464 11.9006 22.8639 11.783 22.8639 11.6319V9.01239C22.8639 8.84447 22.7464 8.72693 22.612 8.72693H19.6399C19.5056 8.72693 19.388 8.82768 19.388 9.01239V11.6319C19.388 11.7662 19.5056 11.9006 19.6399 11.9006ZM23.7707 19.4904H26.726C26.8771 19.4904 26.9947 19.3728 26.9947 19.2217V16.5686C26.9947 16.4343 26.8771 16.3 26.726 16.3H23.7707C23.6363 16.3 23.5188 16.4175 23.5188 16.5686V19.2217C23.5188 19.3728 23.6363 19.4904 23.7707 19.4904Z" fill="white"/>
</svg>
