<svg width="57" height="57" viewBox="0 0 57 57" fill="none" xmlns="http://www.w3.org/2000/svg">
<path d="M50.4149 40.5771C49.7719 40.8206 49.0618 40.8202 48.4191 40.5757C47.7764 40.3313 47.2455 39.8599 46.9267 39.2506C44.9247 36.2537 42.714 33.3919 40.5891 30.4688L39.6678 29.2406C37.1376 32.6305 34.6074 35.8852 32.2984 39.263C31.9976 39.8453 31.4954 40.2985 30.8853 40.538C30.2752 40.7775 29.5989 40.7871 28.9822 40.5649L38.4765 27.8282L29.6454 16.3194C30.2811 16.0898 30.9765 16.0866 31.6143 16.3104C32.252 16.5342 32.793 16.9711 33.146 17.5475C35.197 20.5447 37.4694 23.4064 39.7292 26.4403C42.0016 23.431 44.2492 20.5568 46.3495 17.5844C46.6519 17.0115 47.1544 16.5698 47.7614 16.3434C48.3683 16.1169 49.0373 16.1215 49.6411 16.3562L46.2143 20.9008C44.6791 22.9273 43.1683 24.9662 41.5717 26.9437C41.4429 27.0588 41.34 27.1999 41.2694 27.3576C41.1989 27.5152 41.1625 27.686 41.1625 27.8588C41.1625 28.0315 41.1989 28.2023 41.2694 28.36C41.34 28.5176 41.4429 28.6587 41.5717 28.7738C44.5072 32.6674 47.418 36.5731 50.4149 40.5771ZM6.23523 27.6685C6.49324 26.4403 6.65273 25.1014 7.00904 23.8487C9.13386 16.2951 17.7929 13.1506 23.7498 17.8303C27.238 20.5694 28.1101 24.4506 27.9383 28.8231H8.28649C7.96707 36.6347 13.6046 41.3511 20.8143 38.9438C21.9838 38.5254 23.0308 37.8223 23.8606 36.8981C24.6904 35.9739 25.2771 34.8576 25.5676 33.6499C25.9484 32.4217 26.5625 32.213 27.7293 32.5691C27.5372 34.0644 27.0085 35.4966 26.1831 36.7582C25.3577 38.0197 24.2571 39.0777 22.9639 39.8525C20.8273 41.021 18.3759 41.484 15.9603 41.1752C13.5447 40.8663 11.2886 39.8015 9.51469 38.1331C7.75972 36.1598 6.69858 33.6666 6.49324 31.0338C6.49324 30.6163 6.33353 30.1986 6.2476 29.8056C6.23947 29.0933 6.23535 28.3809 6.23523 27.6685ZM8.31101 27.1403H26.0836C25.9729 21.4782 22.3988 17.4618 17.6334 17.4252C12.3274 17.3514 8.53213 21.2816 8.29864 27.1158L8.31101 27.1403Z" fill="white"/>
</svg>
