<svg width="42" height="41" viewBox="0 0 42 41" fill="none" xmlns="http://www.w3.org/2000/svg">
<g clip-path="url(#clip0_1_1817)">
<path d="M40.3896 18.971L22.7936 1.37756C22.5527 1.13652 22.2667 0.945308 21.9518 0.814852C21.637 0.684395 21.2995 0.617249 20.9587 0.617249C20.6179 0.617249 20.2805 0.684395 19.9656 0.814852C19.6508 0.945308 19.3647 1.13652 19.1238 1.37756L15.4716 5.02975L20.1061 9.66424C20.6527 9.47763 21.2407 9.44843 21.8031 9.57999C22.3655 9.71155 22.8796 9.99856 23.2866 10.4083C23.6937 10.818 23.9774 11.3339 24.1054 11.8971C24.2333 12.4603 24.2003 13.0481 24.0102 13.5935L28.4759 18.0618C29.1366 17.8291 29.8569 17.8284 30.518 18.0598C31.1792 18.2911 31.7418 18.7407 32.1134 19.3345C32.4849 19.9283 32.6431 20.6309 32.562 21.3267C32.4809 22.0224 32.1653 22.6698 31.6672 23.1622C31.1629 23.6696 30.4981 23.9862 29.7863 24.0578C29.0745 24.1295 28.36 23.9518 27.7647 23.5551C27.1693 23.1585 26.7302 22.5674 26.5223 21.8829C26.3144 21.1984 26.3506 20.463 26.6246 19.8022L22.4612 15.6362V26.6003C23.094 26.9136 23.6004 27.4343 23.8959 28.0756C24.1914 28.717 24.2581 29.4402 24.085 30.1248C23.9119 30.8094 23.5094 31.414 22.9446 31.8378C22.3797 32.2616 21.6867 32.479 20.981 32.4538C20.2753 32.4286 19.5996 32.1623 19.0664 31.6993C18.5333 31.2363 18.1749 30.6045 18.0511 29.9093C17.9273 29.2141 18.0455 28.4975 18.3859 27.8788C18.7264 27.2602 19.2687 26.777 19.9223 26.5096V15.4448C19.5452 15.2903 19.2024 15.0626 18.9137 14.775C18.625 14.4874 18.3961 14.1455 18.2401 13.769C18.0842 13.3925 18.0043 12.9889 18.0051 12.5814C18.0059 12.1738 18.0874 11.7705 18.2448 11.3946L13.6783 6.82561L1.61346 18.8904C1.37242 19.1313 1.18121 19.4174 1.05075 19.7322C0.920296 20.0471 0.853149 20.3845 0.853149 20.7253C0.853149 21.0661 0.920296 21.4036 1.05075 21.7184C1.18121 22.0333 1.37242 22.3193 1.61346 22.5602L19.2094 40.1562C19.4504 40.3973 19.7364 40.5885 20.0513 40.7189C20.3661 40.8494 20.7036 40.9165 21.0444 40.9165C21.3852 40.9165 21.7226 40.8494 22.0375 40.7189C22.3523 40.5885 22.6383 40.3973 22.8793 40.1562L40.3921 22.6434C40.8783 22.1565 41.1514 21.4965 41.1514 20.8085C41.1514 20.1204 40.8783 19.4604 40.3921 18.9735" fill="white"/>
</g>
<defs>
<clipPath id="clip0_1_1817">
<rect width="40.3" height="40.3" fill="white" transform="translate(0.850098 0.616638)"/>
</clipPath>
</defs>
</svg>
