<svg width="42" height="41" viewBox="0 0 42 41" fill="none" xmlns="http://www.w3.org/2000/svg">
<mask id="mask0_1_1809" style="mask-type:luminance" maskUnits="userSpaceOnUse" x="0" y="0" width="42" height="41">
<path d="M0.849854 0.616638H41.1499V40.9166H0.849854V0.616638Z" fill="white"/>
</mask>
<g mask="url(#mask0_1_1809)">
<path d="M9.38013 0.61676H11.197V2.41179H12.8594V0.61676H14.6762V6.05054H12.8594V4.23201H11.197V6.05054H9.38181L9.38013 0.61676ZM17.064 2.41851H15.4654V0.61676H20.4811V2.41851H18.8809V6.05054H17.064V2.41851ZM21.277 0.61676H23.1711L24.3365 2.52597L25.5001 0.61676H27.3942V6.05054H25.5858V3.35716L24.3365 5.28988H24.3046L23.0536 3.35884V6.05054H21.277V0.61676ZM28.2976 0.61676H30.1162V4.25551H32.6685V6.05222H28.2976V0.61676Z" fill="white"/>
<path fill-rule="evenodd" clip-rule="evenodd" d="M9.32303 37.6796L5.88745 8.53766H36.1124L32.6752 37.6762L20.9832 40.917L9.32303 37.6796ZM16.2697 21.7275L15.944 18.0669H29.6208L29.9398 14.4937H12.0399L13.0038 25.3025H25.391L24.9762 29.937L20.9899 31.015H20.9865L17.0069 29.9403L16.7517 27.0908H13.1616L13.662 32.7025L20.9832 34.7343L28.3161 32.7025L29.2094 22.688L29.2967 21.7292H16.2697V21.7275Z" fill="white"/>
</g>
</svg>
