<svg width="36" height="41" viewBox="0 0 36 41" fill="none" xmlns="http://www.w3.org/2000/svg">
<g clip-path="url(#clip0_1_1868)">
<path d="M18.0813 40.6019C17.5539 40.6019 17.0187 40.4602 16.5543 40.1926L11.6978 37.3197C10.9737 36.9104 11.3279 36.7687 11.564 36.69C12.5322 36.3515 12.7289 36.2807 13.76 35.6904C13.8702 35.6274 14.0119 35.651 14.1221 35.7218L17.853 37.9336C17.9868 38.0123 18.1757 38.0123 18.3017 37.9336L32.8396 29.543C32.9734 29.4643 33.06 29.3069 33.06 29.1495V12.3683C33.06 12.203 32.9734 12.0535 32.8317 11.9669L18.3017 3.58417C18.1679 3.50546 17.9868 3.50546 17.853 3.58417L3.33085 11.9748C3.18917 12.0535 3.10259 12.2109 3.10259 12.3762V29.1495C3.10259 29.3069 3.18917 29.4643 3.33085 29.5352L7.31362 31.8335C9.47817 32.9119 10.8005 31.6446 10.8005 30.3616V13.8008C10.8005 13.5647 10.9894 13.3837 11.2256 13.3837H13.0674C13.2957 13.3837 13.4924 13.5647 13.4924 13.8008V30.3695C13.4924 33.2503 11.9182 34.9033 9.18694 34.9033C8.34474 34.9033 7.68356 34.9033 5.84173 33.9902L2.03212 31.7942C1.08759 31.2511 0.505127 30.2357 0.505127 29.1416V12.3683C0.505127 11.2821 1.08759 10.2589 2.03212 9.71575L16.5543 1.32517C17.4752 0.805674 18.6952 0.805674 19.6083 1.32517L34.1462 9.72362C35.0907 10.2667 35.6732 11.2821 35.6732 12.3762V29.1495C35.6732 30.2357 35.0907 31.2511 34.1462 31.802L19.6083 40.1926C19.1439 40.4602 18.6165 40.6019 18.0813 40.6019ZM29.8171 24.0648C29.8171 20.9242 27.6919 20.0899 23.229 19.4995C18.711 18.9013 18.2544 18.5943 18.2544 17.5396C18.2544 16.6659 18.6401 15.501 21.9853 15.501C24.9685 15.501 26.0704 16.1464 26.527 18.1614C26.5663 18.3503 26.7395 18.492 26.9363 18.492H28.8253C28.9434 18.492 29.0536 18.4448 29.1323 18.3582C29.211 18.2716 29.2504 18.1536 29.2425 18.0355C28.9513 14.5643 26.645 12.9508 21.9853 12.9508C17.8373 12.9508 15.3658 14.6982 15.3658 17.6341C15.3658 20.814 17.8294 21.6956 21.8043 22.0891C26.5663 22.5535 26.9363 23.254 26.9363 24.1907C26.9363 25.8121 25.6297 26.5048 22.5678 26.5048C18.7188 26.5048 17.8766 25.5366 17.5933 23.624C17.5618 23.4193 17.3886 23.2698 17.1761 23.2698H15.2949C15.0588 23.2698 14.8777 23.4587 14.8777 23.6869C14.8777 26.1349 16.208 29.055 22.5757 29.055C27.1724 29.0472 29.8171 27.2289 29.8171 24.0648Z" fill="white"/>
</g>
<defs>
<clipPath id="clip0_1_1868">
<rect width="35.2625" height="40.3" fill="white" transform="translate(0.449951 0.616455)"/>
</clipPath>
</defs>
</svg>
