<svg width="62" height="62" viewBox="0 0 62 62" fill="none" xmlns="http://www.w3.org/2000/svg">
<path d="M32.302 0C31.9015 0 31.4882 0.0206667 31.062 0.05425C20.1448 0.9145 23.0407 12.4723 22.8728 16.3241C22.6765 19.1451 22.0978 21.3693 20.1603 24.1257C17.874 26.8408 14.6655 31.2299 13.144 35.805C12.4258 37.9543 12.0848 40.1553 12.4025 42.2349C12.2847 42.3303 12.188 42.449 12.1184 42.5837C11.4467 43.276 10.9559 44.1337 10.4056 44.7511C9.89155 45.2652 9.15272 45.4408 8.34672 45.7844C7.53813 46.1357 6.64688 46.4793 6.11472 47.5411C5.88222 48.0293 5.76338 48.5589 5.77372 49.0962C5.77372 49.6103 5.84347 50.1296 5.9158 50.4809C6.06563 51.5117 6.21547 52.3616 6.01913 52.9867C5.37588 54.7434 5.2958 55.9447 5.7453 56.8204C6.1948 57.6833 7.12738 58.0346 8.17363 58.373C10.2661 58.8897 13.1078 58.7217 15.3398 59.923C17.732 61.1268 20.1603 61.6538 22.0978 61.1372C23.4566 60.8375 24.6036 59.9385 25.2185 58.6933C26.7349 58.6856 28.396 57.9984 31.0568 57.8305C32.8625 57.6807 35.123 58.5202 37.714 58.3472C37.7786 58.6933 37.8768 58.8587 38.0085 59.2074L38.0163 59.2152C39.0264 61.225 40.8915 62.1395 42.8833 61.9819C44.875 61.8269 46.996 60.5972 48.7139 58.6081C50.344 56.6318 53.0616 55.8077 54.857 54.7253C55.756 54.2112 56.482 53.5137 56.5336 52.5217C56.593 51.4884 56.017 50.4267 54.6891 48.9671V48.7165L54.6814 48.7087C54.2422 48.1921 54.0355 47.3267 53.8082 46.3166C53.5886 45.2807 53.338 44.2861 52.5372 43.6144H52.5295C52.377 43.4749 52.2117 43.4413 52.0438 43.2657C51.8993 43.1648 51.729 43.1074 51.553 43.1003C52.6664 39.7988 52.235 36.5128 51.106 33.5575C49.7291 29.915 47.3215 26.7427 45.4873 24.5597C43.431 21.9635 41.416 19.5042 41.4573 15.8591C41.5245 10.2997 42.067 0.0155 32.302 0ZM33.6685 8.79625H33.7021C34.2524 8.79625 34.7251 8.95642 35.2108 9.30775C35.7016 9.6565 36.0633 10.1654 36.3423 10.6847C36.6135 11.3538 36.7505 11.8704 36.7711 12.555C36.7711 12.5033 36.7866 12.4517 36.7866 12.4V12.6713C36.7809 12.6537 36.7775 12.6354 36.7763 12.617L36.766 12.555C36.7608 13.1828 36.629 13.8031 36.3785 14.3788C36.2578 14.7027 36.0703 14.9976 35.8282 15.2442C35.755 15.2029 35.6791 15.1667 35.6009 15.1358C35.3322 15.0195 35.0894 14.9704 34.8672 14.7922C34.6831 14.7188 34.4929 14.6618 34.2989 14.6217C34.428 14.4667 34.676 14.2781 34.7716 14.1102C34.9085 13.7795 34.9835 13.4282 34.999 13.0717V13.02C35.0048 12.6692 34.9515 12.3198 34.8414 11.9867C34.7251 11.6405 34.5805 11.47 34.3686 11.1264C34.1516 10.9559 33.9372 10.7854 33.6789 10.7854H33.6375C33.3973 10.7854 33.1829 10.8629 32.9607 11.1264C32.7154 11.3657 32.5334 11.6622 32.4311 11.9892C32.2939 12.3175 32.2152 12.6672 32.1986 13.0226V13.0717C32.2038 13.3016 32.2193 13.5341 32.2503 13.7614C31.7517 13.5883 31.1188 13.4127 30.6822 13.2396C30.6561 13.0685 30.6406 12.8959 30.6357 12.7229V12.6713C30.6154 11.9893 30.7478 11.3114 31.0232 10.6872C31.2343 10.1199 31.6242 9.63665 32.134 9.31033C32.5756 8.97563 33.1144 8.7968 33.6685 8.79625ZM26.0167 8.94867H26.1097C26.4765 8.94867 26.8072 9.07267 27.1405 9.29742C27.5176 9.63067 27.8225 10.0414 28.0291 10.4987C28.2616 11.0127 28.3908 11.532 28.4244 12.2217V12.2321C28.4425 12.5782 28.4399 12.7487 28.4192 12.9192V13.1259C28.3417 13.144 28.2745 13.1724 28.2048 13.1879C27.8121 13.33 27.497 13.5367 27.1895 13.7046C27.2205 13.4721 27.2231 13.2396 27.1973 13.0148V12.9761C27.1663 12.6325 27.094 12.4594 26.9855 12.1158C26.9049 11.8525 26.7571 11.6148 26.5566 11.4261C26.493 11.3682 26.4183 11.3237 26.3371 11.2953C26.2559 11.2669 26.1697 11.2551 26.0839 11.2608H26.0296C25.8462 11.2763 25.6938 11.3641 25.5491 11.6018C25.3843 11.8018 25.2772 12.0429 25.2391 12.2993C25.1693 12.5777 25.1492 12.8663 25.1797 13.1517V13.1905C25.2107 13.5392 25.2753 13.7072 25.3864 14.0533C25.5052 14.3995 25.6395 14.57 25.8152 14.7457C25.841 14.7689 25.8669 14.7922 25.903 14.8077C25.7222 14.9549 25.6008 14.9885 25.4484 15.159C25.3517 15.2445 25.2355 15.3048 25.11 15.3347C24.8414 15.0113 24.6036 14.6636 24.3995 14.2962C24.1553 13.7533 24.0193 13.168 23.9991 12.5731C23.9563 11.9899 24.0265 11.404 24.2058 10.8474C24.3481 10.3398 24.5974 9.86859 24.9369 9.46533C25.2675 9.12175 25.6085 8.94867 26.0167 8.94867ZM29.5559 13.3558C30.4135 13.3558 31.4495 13.5237 32.6972 14.3866C33.4541 14.9032 34.0483 15.0815 35.4149 15.5956H35.4226C36.0814 15.9469 36.4689 16.2827 36.6575 16.6263V16.2879C36.7502 16.4758 36.8018 16.6812 36.8089 16.8905C36.8161 17.0999 36.7785 17.3084 36.6988 17.5021C36.381 18.3029 35.3658 19.1632 33.9527 19.6772V19.6824C33.2604 20.0312 32.6585 20.5427 31.9506 20.8837C31.2376 21.2324 30.4316 21.638 29.3363 21.5734C28.9428 21.5938 28.5493 21.5349 28.179 21.4003C27.8928 21.2447 27.6152 21.0739 27.3471 20.8888C26.8434 20.5401 26.4094 20.0312 25.7661 19.6876V19.6747H25.7532C24.7199 19.0392 24.1619 18.352 23.981 17.8405C23.8002 17.1482 23.9681 16.6263 24.4796 16.2905C25.0583 15.9418 25.4613 15.5904 25.7274 15.4225C25.996 15.2313 26.0968 15.159 26.182 15.0841H26.1872V15.0763C26.6238 14.5545 27.3135 13.8622 28.3546 13.5237C28.7137 13.4307 29.1141 13.3558 29.5585 13.3558H29.5559ZM36.7892 18.8893C37.714 22.5499 39.8789 27.8664 41.2713 30.4446C42.0101 31.8241 43.48 34.7303 44.1181 38.2566C44.5211 38.2437 44.9706 38.3031 45.4434 38.4219C47.1122 34.1052 44.0329 29.4655 42.6301 28.1764C42.0618 27.6597 42.0308 27.311 42.3124 27.311C43.8365 28.6905 45.8386 31.372 46.5645 34.4333C46.9004 35.8153 46.9779 37.2852 46.6188 38.7474C46.7919 38.8197 46.9675 38.9024 47.1484 38.9205C49.8144 40.3 50.7986 41.3437 50.3259 42.8911V42.78C50.1709 42.7722 50.0159 42.78 49.8609 42.78H49.8195C50.2096 41.5736 49.3494 40.6487 47.0683 39.618C44.7045 38.5847 42.8161 38.75 42.4958 40.8192C42.4751 40.9303 42.4622 40.9897 42.4493 41.168C42.2736 41.2274 42.0902 41.3049 41.9094 41.3333C40.7985 42.0257 40.1992 43.0616 39.8608 44.3997C39.525 45.7767 39.4216 47.3861 39.3312 49.228V49.2357C39.2795 50.0986 38.892 51.4006 38.5071 52.7232C34.6321 55.4926 29.2588 56.6964 24.6915 53.5861C24.4048 53.0851 24.0559 52.6224 23.653 52.2092C23.4604 51.8886 23.221 51.5986 22.9425 51.3489C23.4127 51.3489 23.8157 51.2714 24.1438 51.1758C24.5153 51.0035 24.8059 50.6944 24.955 50.313C25.234 49.6232 24.955 48.5124 24.0637 47.3086C23.1725 46.1022 21.6586 44.7382 19.4447 43.3793C17.8172 42.346 16.8975 41.1318 16.4739 39.773C16.0476 38.3935 16.1045 36.9701 16.4351 35.5234C17.068 32.7592 18.6904 30.0726 19.7263 28.3857C20.0027 28.2177 19.8219 28.7344 18.6723 30.9018C17.6493 32.8419 15.7273 37.3524 18.3571 40.858C18.4565 38.3002 19.0229 35.7822 20.0285 33.4283C21.4855 30.1268 24.5313 24.3763 24.7715 19.8193C24.8955 19.9123 25.3321 20.1681 25.5181 20.3412C26.0813 20.6847 26.4998 21.2014 27.0423 21.5424C27.5848 22.0617 28.2745 22.4078 29.3053 22.4078C29.406 22.4156 29.499 22.4233 29.5895 22.4233C30.6538 22.4233 31.4753 22.0772 32.165 21.731C32.9142 21.3848 33.5084 20.8682 34.0767 20.6977H34.0896C35.296 20.3489 36.2467 19.6592 36.7866 18.8893H36.7892ZM42.4338 42.0308C42.5294 43.5808 43.3199 45.2471 44.7123 45.5881C46.2313 45.9342 48.4168 44.7278 49.339 43.6118L49.8841 43.586C50.6979 43.5679 51.3747 43.6118 52.0722 44.2783L52.08 44.2861C52.6173 44.8002 52.8679 45.6552 53.09 46.5491C53.3096 47.5824 53.4879 48.5641 54.1466 49.3029C55.4021 50.6643 55.8129 51.6434 55.7896 52.2479L55.7974 52.2298V52.2763L55.7896 52.2479C55.7509 52.9247 55.3117 53.2683 54.5031 53.7824C52.8756 54.8183 49.9926 55.6217 48.1559 57.8382C46.5594 59.7422 44.6167 60.7832 42.8962 60.915C41.1809 61.0519 39.7006 60.3983 38.83 58.5952L38.8171 58.5874C38.2746 57.5541 38.5071 55.9395 38.9618 54.2216C39.4165 52.4959 40.0675 50.7496 40.1579 49.321C40.2535 47.4765 40.3542 45.8722 40.6616 44.6348C40.9716 43.4336 41.4573 42.5759 42.3175 42.0928L42.4338 42.036V42.0308ZM14.4976 42.1574H14.5235C14.6604 42.1574 14.7947 42.1703 14.929 42.1936C15.9004 42.3357 16.7529 43.0538 17.5718 44.1362L19.9226 48.4349L19.9304 48.4427C20.5581 49.8196 21.8782 51.1913 23.002 52.6716C24.1231 54.2164 24.9911 55.5933 24.8852 56.7274V56.7429C24.738 58.6649 23.6452 59.7086 21.979 60.0858C20.3127 60.4345 18.0523 60.0909 15.7919 58.8871C13.2912 57.5024 10.3204 57.6755 8.4113 57.3319C7.45805 57.1614 6.83547 56.8152 6.54355 56.2986C6.25938 55.7819 6.25163 54.7434 6.8613 53.1211V53.1107L6.86647 53.103C7.16872 52.2402 6.94397 51.1603 6.79672 50.2148C6.65463 49.1789 6.5823 48.3807 6.9078 47.7865C7.32113 46.9237 7.9308 46.7532 8.6903 46.4096C9.4498 46.0608 10.3436 45.8878 11.054 45.1954H11.0592V45.1902C11.7205 44.4979 12.2088 43.6377 12.7849 43.0254C13.2757 42.5062 13.7665 42.1574 14.4976 42.1574ZM32.9917 18.7162C31.868 19.2355 30.5505 20.0983 29.1477 20.0983C27.7475 20.0983 26.6419 19.4086 25.841 18.8945C25.4432 18.5483 25.1177 18.2022 24.8775 18.0291C24.4538 17.6829 24.5055 17.1688 24.6863 17.1688C24.9679 17.2102 25.0195 17.515 25.2004 17.6855C25.4484 17.856 25.7558 18.2022 26.1304 18.5457C26.8847 19.0624 27.887 19.7522 29.1451 19.7522C30.398 19.7522 31.8654 19.0624 32.7566 18.5483C33.2604 18.1996 33.9062 17.6855 34.4306 17.3419C34.8336 16.9906 34.8155 16.6522 35.1514 16.6522C35.482 16.6935 35.2392 16.9983 34.7716 17.5098C34.1986 17.9432 33.6037 18.3467 32.9891 18.7188L32.9917 18.7162ZM30.1965 14.6268V14.57C30.181 14.5183 30.2301 14.4615 30.2715 14.4408C30.4626 14.3297 30.7365 14.3711 30.9431 14.4512C31.1059 14.4512 31.3565 14.6242 31.3306 14.7999C31.3151 14.9265 31.111 14.9704 30.9819 14.9704C30.8398 14.9704 30.7442 14.8593 30.6176 14.7948C30.4833 14.7483 30.2405 14.7741 30.1965 14.6268ZM28.7731 14.6268C28.7215 14.7767 28.4812 14.7534 28.3443 14.7973C28.2229 14.8619 28.1221 14.973 27.9826 14.973C27.8535 14.973 27.6468 14.9213 27.6313 14.7973C27.6055 14.6268 27.8586 14.4537 28.0188 14.4537C28.2255 14.3737 28.4941 14.3323 28.6879 14.4408C28.737 14.4641 28.7809 14.5183 28.7654 14.57V14.6217H28.7731V14.6268Z" fill="white"/>
</svg>
