<svg width="42" height="41" viewBox="0 0 42 41" fill="none" xmlns="http://www.w3.org/2000/svg">
<g clip-path="url(#clip0_1_1827)">
<path d="M29.7199 16.311C27.5975 6.94129 22.5801 3.8617 22.0411 2.6846C21.5709 2.02301 21.1511 1.08268 20.8069 0.266602C20.7465 1.09779 20.7146 1.41683 19.9287 2.25473C18.7147 3.20514 12.4766 8.43743 11.9695 19.08C11.4959 29.0072 19.1395 34.9229 20.1772 35.6769L20.2948 35.7608C20.5109 37.359 20.6956 38.9612 20.8489 40.5666H21.6566C21.8479 38.8339 22.1338 37.113 22.513 35.4116C23.2132 34.9145 23.5272 34.6341 23.9402 34.2479C25.8964 32.4382 27.451 30.2382 28.5036 27.7901C29.5561 25.3419 30.0832 22.7001 30.0507 20.0354C30.0675 18.6686 29.8778 17.2447 29.7199 16.311ZM20.7599 30.0718C20.7599 30.0718 20.7599 16.1498 21.2217 16.1515C21.5793 16.1515 22.0445 34.1102 22.0445 34.1102C21.4047 34.0346 20.7599 31.1549 20.7599 30.0718Z" fill="white"/>
</g>
<defs>
<clipPath id="clip0_1_1827">
<rect width="40.3" height="40.3" fill="white" transform="translate(0.849976 0.266663)"/>
</clipPath>
</defs>
</svg>
