<svg width="41" height="41" viewBox="0 0 41 41" fill="none" xmlns="http://www.w3.org/2000/svg">
<g clip-path="url(#clip0_1_1863)">
<path d="M23.7318 12.9922C23.2791 12.9862 22.8264 13.0002 22.375 13.0342C22.009 13.0627 21.6463 13.1551 21.2836 13.2189C21.6681 13.417 22.0493 13.5765 22.4254 13.7478C22.8032 13.9208 23.1575 14.1374 23.4816 14.3976C23.0568 14.2348 22.6437 14.0484 22.2189 13.8973C21.337 13.5672 20.423 13.3303 19.4919 13.1903C19.0335 13.1282 18.5751 13.0677 18.1167 13.1987C17.6532 13.3297 17.5222 13.501 17.4786 13.9678C17.4114 14.7402 17.6431 15.4572 17.9504 16.1473C18.4072 17.1659 19.0873 18.0686 19.9402 18.7887C20.5914 19.349 21.3322 19.7957 22.1315 20.1102C22.3599 20.1992 22.5916 20.2831 22.8217 20.3704L22.8066 20.4242C22.365 20.3033 21.9133 20.2126 21.4851 20.0548C20.7354 19.7677 20.0412 19.353 19.4331 18.829C18.7436 18.2605 18.1696 17.5651 17.7422 16.7804C17.2832 15.9528 17.0352 15.0248 17.0202 14.0786L17 14.087C8.41276 13.1903 0.874976 20.0867 0.258722 20.666L0.20163 20.6895C0.198272 20.6979 0.20163 20.7063 0.206668 20.7164L0.199951 20.7231L0.208347 20.7197C0.215064 20.7331 0.225139 20.7466 0.230176 20.76C0.376264 20.7281 0.520672 20.6895 0.666759 20.6693L0.782622 20.6525C1.32667 20.4594 1.88248 20.3083 2.45675 20.2277C3.26947 20.1119 4.11073 19.9607 4.94192 19.9658C5.72777 19.9691 6.52537 20.09 7.29611 20.2227C7.51272 20.2596 7.7243 20.31 7.93419 20.3688C8.49671 20.4947 9.02565 20.7214 9.50085 21.0253L9.6016 21.0757C10.2783 21.3947 10.8744 21.8649 11.3446 22.4375C11.4319 22.5332 11.5813 22.6323 11.6586 22.7364C11.8198 22.9278 11.897 23.1327 12.1674 23.3459V20.4292H15.5425L17.1192 23.3392L18.701 20.4292H22.1769V26.0662L22.7528 25.6867C22.7528 25.6867 23.3825 24.0075 26.306 23.7724L29.6576 23.665C29.1404 22.5953 29.1421 22.5953 29.3906 22.2713C29.6374 21.9522 31.5399 21.744 31.8757 21.5442L36.7655 20.5568C36.7772 20.5199 36.7907 20.577 36.8159 20.5686C36.9368 20.5316 37.0627 20.5065 37.2356 20.4662L38.3439 20.1975C38.4144 20.1555 38.5001 20.1404 38.579 20.1135C39.0962 19.9339 39.5479 19.7021 39.7981 19.1514C40.0415 18.6157 40.3673 18.117 40.4865 17.5276C40.5235 17.3412 40.4916 17.1783 40.3555 17.044C40.1891 16.8971 39.986 16.7979 39.7678 16.7569C39.0609 16.4664 38.3573 16.1692 37.6454 15.8955C37.2071 15.7259 36.7571 15.5848 36.3104 15.4421C35.8679 15.3 35.4234 15.164 34.9772 15.0341C34.5675 14.9132 34.1544 14.8023 33.7413 14.6898C33.3383 14.579 32.9353 14.4665 32.5323 14.3674C32.0588 14.2499 31.5836 14.1491 31.1101 14.04C30.749 13.956 30.3914 13.8687 30.0287 13.7948C29.6357 13.7159 29.2395 13.6454 28.8432 13.5765C28.3361 13.4875 27.8323 13.3885 27.3235 13.3196C26.709 13.2357 26.091 13.1819 25.4748 13.1097C24.8955 13.0426 24.3145 13.0006 23.7318 12.9922ZM18.1855 14.2801C18.2173 14.2782 18.2492 14.2822 18.2795 14.2919C18.9848 14.5102 19.6732 14.757 20.3214 15.1163C20.9343 15.4572 21.4884 15.872 21.9653 16.3858C21.9855 16.4076 21.9989 16.4328 22.0258 16.4697L20.9427 15.9777L20.9074 16.0214L21.5287 16.9466L21.4918 16.9836C21.1567 16.7351 20.7779 16.5517 20.3751 16.4429L20.3416 16.4765L21.4045 17.719L20.7059 17.4907L20.6774 17.5243C20.9511 17.9776 21.3088 18.3722 21.6513 18.8256C21.0569 18.4898 20.5347 18.1204 20.046 17.7022C19.3691 17.1429 18.7951 16.4695 18.3501 15.7124C18.1704 15.3934 18.0126 15.066 17.9773 14.6949C17.9698 14.6105 17.9761 14.5254 17.9958 14.443C18.0052 14.3988 18.0289 14.359 18.0632 14.3296C18.0974 14.3001 18.1404 14.2828 18.1855 14.2801ZM27.2933 15.4018C27.5519 15.4051 27.8155 15.3917 28.0724 15.427C28.5392 15.4891 29.0044 15.5815 29.4695 15.6621C29.7348 15.7074 30.0018 15.7494 30.2654 15.8065C30.7641 15.9139 31.2629 16.0298 31.7599 16.1423C32.089 16.2195 32.4181 16.2968 32.7456 16.3774L32.1931 16.6477C31.5802 16.6931 30.9656 16.7401 30.3511 16.7434C29.97 16.7415 29.5901 16.6999 29.2176 16.6192C28.7475 16.5218 28.3545 16.2901 28.1228 15.8367C28.0892 15.7695 27.9717 15.7309 27.8877 15.7057C27.5855 15.615 27.2799 15.5378 26.9743 15.4236C27.08 15.4152 27.1858 15.4001 27.2933 15.4018ZM32.7053 19.8264L32.7137 19.86C32.5793 19.8969 32.445 19.9305 32.3123 19.9725C31.5483 20.2076 30.7742 20.4191 30.0236 20.6912C29.5535 20.8608 29.1102 21.111 28.6635 21.3427C28.2723 21.5425 28.1346 21.8834 28.1816 22.3082C28.2135 22.5802 28.2487 22.8523 28.2739 23.1276C28.0304 22.7744 27.8655 22.373 27.7903 21.9505C27.7316 21.6668 27.8877 21.4921 28.0926 21.3376C28.4922 21.0388 28.9255 20.8037 29.3973 20.6492C29.985 20.4527 30.5761 20.2579 31.1755 20.1035C31.597 19.9943 32.0369 19.9523 32.4685 19.8801C32.5491 19.8667 32.6263 19.8449 32.7053 19.8264ZM15.5492 24.0495V28.5429H18.6876L18.795 28.4321V24.0495L17.1663 26.5599L15.5492 24.0495Z" fill="white"/>
</g>
<defs>
<clipPath id="clip0_1_1863">
<rect width="40.3" height="40.3" fill="white" transform="translate(0.199951 0.616577)"/>
</clipPath>
</defs>
</svg>
