<svg width="42" height="41" viewBox="0 0 42 41" fill="none" xmlns="http://www.w3.org/2000/svg">
<g clip-path="url(#clip0_1_1837)">
<path d="M20.0492 0.872388L4.31963 9.99026C4.02968 10.1573 3.78939 10.3985 3.62341 10.6891C3.45743 10.9797 3.37173 11.3092 3.3751 11.6438V29.8846C3.3751 30.5672 3.73528 31.1969 4.31963 31.5306L20.0555 40.6611C20.3432 40.8287 20.6702 40.917 21.0032 40.917C21.3362 40.917 21.6632 40.8287 21.9509 40.6611L37.6805 31.5369C38.2648 31.1956 38.625 30.5659 38.625 29.8909V11.6426C38.625 10.96 38.2648 10.3303 37.6742 9.989L21.9521 0.871129C21.6644 0.703534 21.3374 0.615234 21.0045 0.615234C20.6715 0.615234 20.3445 0.703534 20.0568 0.871129L20.0492 0.872388Z" fill="white"/>
<path d="M29.4565 16.0282L21.1399 11.0998C21.0484 11.0456 20.944 11.017 20.8376 11.017C20.7313 11.017 20.6269 11.0456 20.5353 11.0998L12.2188 16.0282C12.0213 16.1452 11.9001 16.3578 11.9001 16.5873V28.9774C11.9001 29.4966 12.4787 29.8062 12.9107 29.5183L18.4357 25.8349C18.6165 25.7144 18.7251 25.5114 18.7251 25.2941V20.4009C18.7251 20.015 18.8965 19.6492 19.1929 19.4022L20.5503 18.271C20.631 18.2038 20.7326 18.167 20.8376 18.167C20.9426 18.167 21.0443 18.2038 21.125 18.271L22.4824 19.4022C22.7788 19.6492 22.9501 20.015 22.9501 20.4009V25.2799C22.9501 25.505 23.0666 25.7141 23.258 25.8326L28.783 29.2528C29.216 29.5209 29.7751 29.2094 29.7751 28.7001V16.5873C29.7751 16.3578 29.654 16.1452 29.4565 16.0282Z" fill="#27AE60"/>
</g>
<defs>
<clipPath id="clip0_1_1837">
<rect width="40.3" height="40.3" fill="white" transform="translate(0.850098 0.616699)"/>
</clipPath>
</defs>
</svg>
