<svg width="41" height="41" viewBox="0 0 41 41" fill="none" xmlns="http://www.w3.org/2000/svg">
<g clip-path="url(#clip0_1_1871)">
<path d="M20.6499 17.1723C18.6689 17.1723 17.0556 18.7856 17.0556 20.7666C17.0556 22.7476 18.6689 24.3608 20.6499 24.3608C22.6309 24.3608 24.2441 22.7476 24.2441 20.7666C24.2441 18.7856 22.6309 17.1723 20.6499 17.1723ZM10.5875 27.9097L9.79407 27.7133C3.89012 26.2171 0.499878 23.6858 0.499878 20.7603C0.499878 17.8347 3.89138 15.3034 9.79407 13.8073L10.5875 13.6108L10.8104 14.3979C11.4093 16.4595 12.175 18.469 13.0999 20.4064L13.2699 20.7603L13.0999 21.1205C12.1731 23.057 11.4073 25.0666 10.8104 27.1289L10.5875 27.9097ZM9.42759 15.6434C4.94043 16.9028 2.18618 18.8372 2.18618 20.7603C2.18618 22.6833 4.94169 24.6102 9.42759 25.8771C9.9775 24.1299 10.6413 22.4206 11.4149 20.7603C10.6403 19.1004 9.97639 17.391 9.42759 15.6434ZM30.7123 27.9097L30.4894 27.1226C29.8915 25.0627 29.1258 23.0553 28.1998 21.1205L28.0298 20.7603L28.1998 20.4001C29.1267 18.4635 29.8924 16.4539 30.4894 14.3916L30.7123 13.6108L31.5057 13.8073C37.4096 15.3034 40.7999 17.8347 40.7999 20.7603C40.7999 23.6858 37.4084 26.2171 31.5057 27.7133L30.7123 27.9097ZM29.8849 20.7603C30.661 22.4195 31.3249 24.129 31.8722 25.8771C36.3656 24.6114 39.1136 22.6833 39.1136 20.7603C39.1136 18.8372 36.3581 16.9104 31.8722 15.6434C31.321 17.3902 30.6571 19.0994 29.8849 20.7603ZM9.41373 15.6371L9.19082 14.85C7.53097 8.99897 8.03598 4.80147 10.5749 3.33807C13.0672 1.90113 17.0619 3.60002 21.2531 7.90331L21.8236 8.48766L21.2531 9.07201C19.7647 10.6206 18.4047 12.2876 17.1866 14.0566L16.9574 14.3778L16.5632 14.4105C14.4204 14.5796 12.2947 14.9221 10.2071 15.4344L9.41373 15.6371ZM12.6012 4.50677C12.1491 4.50677 11.7486 4.59871 11.4136 4.79517C9.74747 5.75985 9.45278 9.10475 10.6001 13.6171C12.3902 13.2167 14.2046 12.934 16.0317 12.7708C17.0836 11.2726 18.2339 9.84597 19.4749 8.50025C16.8579 5.94876 14.3782 4.50677 12.6012 4.50677ZM28.7048 38.6925C28.6985 38.6925 28.6985 38.6925 28.7048 38.6925C26.3108 38.6925 23.2341 36.8954 20.0466 33.616L19.4761 33.0316L20.0466 32.4473C21.535 30.8987 22.895 29.2317 24.1132 27.4627L24.3361 27.1415L24.7303 27.1025C26.8759 26.939 29.0041 26.5965 31.0926 26.0786L31.886 25.8821L32.1089 26.6693C33.7688 32.5203 33.2638 36.7115 30.7249 38.1736C30.111 38.5264 29.4127 38.7066 28.7048 38.6925ZM21.8236 33.019C24.4406 35.5705 26.9203 37.0138 28.6973 37.0138H28.7036C29.1494 37.0138 29.5499 36.9155 29.8849 36.7254C31.551 35.7607 31.8533 32.4158 30.6984 27.9034C28.9086 28.3043 27.094 28.5849 25.2667 28.7434C24.2149 30.2437 23.0647 31.6711 21.8236 33.019ZM31.886 15.6371L31.0926 15.4344C29.0026 14.9238 26.875 14.5814 24.7303 14.4105L24.3361 14.3778L24.1132 14.0566C22.895 12.2876 21.535 10.6206 20.0466 9.07201L19.4761 8.48766L20.0466 7.90331C24.2378 3.60002 28.2326 1.90113 30.7249 3.33807C33.2638 4.80021 33.7688 8.99897 32.1089 14.85L31.886 15.6371ZM25.268 12.7708C27.0952 12.9335 28.9096 13.2162 30.6997 13.6171C31.8545 9.10475 31.5523 5.75859 29.8861 4.79517C28.2263 3.83805 25.1043 5.30648 21.8249 8.50151C23.0625 9.85012 24.2126 11.2765 25.268 12.7721V12.7708ZM12.6012 38.6925C11.8922 38.7051 11.1907 38.5288 10.5749 38.1749C8.03598 36.7128 7.53097 32.5203 9.19082 26.6705L9.41373 25.8834L10.2071 26.0799C12.1491 26.5723 14.2875 26.9123 16.5632 27.1037L16.9574 27.1428L17.1803 27.4639C18.3984 29.2329 19.7584 30.9 21.2468 32.4485L21.8173 33.0329L21.2468 33.6172C18.0656 36.8966 14.989 38.6938 12.6012 38.6938V38.6925ZM10.6013 27.9034C9.44648 32.4158 9.74873 35.7619 11.4149 36.7254C13.0747 37.6699 16.1904 36.2141 19.4761 33.019C18.2351 31.6711 17.0849 30.2424 16.033 28.7422C14.2057 28.5841 12.391 28.3048 10.6013 27.9034ZM20.6499 28.9588C19.2658 28.9588 17.849 28.8996 16.4259 28.7812L16.0317 28.7485L15.8025 28.421C14.9987 27.2661 14.2437 26.0778 13.5394 24.8595C12.8338 23.6412 12.1796 22.3937 11.5786 21.1205L11.4086 20.7603L11.5786 20.4001C12.7826 17.8541 14.1954 15.4122 15.8025 13.0995L16.0317 12.7721L16.4259 12.7393C19.2369 12.5026 22.0628 12.5026 24.8738 12.7393L25.268 12.7721L25.4972 13.0995C27.1064 15.4109 28.5193 17.853 29.7212 20.4001L29.8912 20.7603L29.7212 21.1205C28.5217 23.6688 27.1087 26.1111 25.4972 28.421L25.268 28.7485L24.8738 28.7812C23.4689 28.8988 22.0597 28.958 20.6499 28.9588ZM16.9637 27.1352C19.4434 27.3254 21.8564 27.3254 24.3424 27.1352C25.7288 25.105 26.961 22.9736 28.0286 20.759C26.9655 18.5408 25.7309 16.4089 24.3361 14.3828C21.8823 14.1926 19.4175 14.1926 16.9637 14.3828C15.5678 16.4082 14.3332 18.5402 13.2712 20.759C14.3391 22.9747 15.5734 25.1062 16.9637 27.1352Z" fill="white"/>
</g>
<defs>
<clipPath id="clip0_1_1871">
<rect width="40.3" height="40.3" fill="white" transform="translate(0.499878 0.616455)"/>
</clipPath>
</defs>
</svg>
