<svg width="456" height="325" viewBox="0 0 456 325" fill="none" xmlns="http://www.w3.org/2000/svg">
<g clip-path="url(#clip0_49_1110)">
<path d="M240.543 77.9844C233.561 79.0223 214.852 85.8845 214.852 85.8845L207.126 63.9087C207.126 63.9087 207.202 60.2011 207.148 59.3049C206.995 56.8722 205.843 55.916 204.364 55.7989C203.001 51.4075 200.452 41.4889 196.251 39.4866C194.998 38.89 194.034 39.7155 193.892 40.4646C192.949 45.4307 189.928 47.2532 190.865 53.4425C191.639 58.5666 195.943 62.4758 195.867 65.1836C195.807 67.3439 194.897 100.497 206.706 104.956C218.516 109.416 239.998 100.459 239.998 100.459C239.998 100.459 247.52 76.9438 240.543 77.9844Z" fill="#FDB78F"/>
<path d="M196.066 56.246L202.672 56.0472C203.12 56.033 203.547 55.8567 203.875 55.551C204.202 55.2454 204.408 54.8312 204.453 54.3854L199.907 31.2737C198.545 30.8596 197.673 31.7177 197.605 32.3797L195.096 55.2081C195.083 55.3419 195.098 55.477 195.141 55.6043C195.184 55.7316 195.254 55.8483 195.346 55.9466C195.438 56.0448 195.549 56.1223 195.673 56.1739C195.798 56.2256 195.931 56.2502 196.066 56.246Z" fill="white"/>
<path d="M197.191 54.9219L203.08 55.009C204.007 54.9818 204.399 54.9682 204.491 54.0474L206.458 35.1908C206.535 34.4335 206.186 34.1311 205.502 33.7851L200.119 31.3634C199.528 31.061 199.095 31.2953 199.03 31.9572L196.463 54.14C196.412 54.7067 196.621 54.9409 197.191 54.9219Z" fill="#15B1FF"/>
<path d="M204.492 54.0476L206.458 35.191C206.535 34.4336 206.186 34.1313 205.502 33.7853L200.119 31.3635C206.219 37.3812 204.399 54.9683 204.492 54.0476Z" fill="#17D3FF"/>
<path d="M201.097 58.1909C201.914 56.3548 203.086 55.4668 204.794 54.4779C205.557 54.0311 203.219 48.7354 205.984 47.1227C207.869 47.2861 209.899 53.2384 209.436 55.4014C208.619 59.1743 207.126 63.9008 207.126 63.9008L214.849 85.8711L210.114 91.3766" fill="#FDB78F"/>
<path d="M201.097 58.1909C201.914 56.3548 203.086 55.4668 204.794 54.4779C205.557 54.0311 203.219 48.7354 205.984 47.1227C207.869 47.2861 209.899 53.2384 209.436 55.4014C208.619 59.1743 207.126 63.9008 207.126 63.9008L214.849 85.8711L210.114 91.3766" stroke="#E58863" stroke-width="0.817247" stroke-linecap="round" stroke-linejoin="round"/>
<path d="M261.475 77.0528C248.762 76.0857 249.584 74.2251 221.73 82.2614C221.506 82.3252 221.309 82.4607 221.169 82.6472C221.029 82.8336 220.955 83.0608 220.956 83.2938C221.133 95.9094 225.465 103.894 226.993 106.324C227.132 106.546 227.347 106.709 227.598 106.783C227.849 106.856 228.119 106.834 228.355 106.722C230.551 105.695 236.607 102.96 240.143 102.344C259.626 89.7011 261.475 77.0528 261.475 77.0528Z" fill="#FF8B88"/>
<path d="M240.132 102.344C242.038 101.105 243.776 99.8678 245.362 98.6419L244.782 87.5873C237.811 92.4445 232.542 99.2657 231.098 105.48C233.863 104.278 237.628 102.78 240.132 102.344Z" fill="#2E2E2E"/>
<path d="M223.653 82.8146C224.517 89.5923 224.743 97.3234 229.134 103.619" stroke="white" stroke-width="1.08966" stroke-miterlimit="10" stroke-linecap="round"/>
<path d="M240.543 299.189C239.453 292.163 244.376 274.467 248.612 265C245.961 262.451 222.272 275.208 222.436 278.708C222.215 281.588 219.542 297.148 204.955 298.962C204.955 298.962 194.663 306.432 208.823 307.162C216.886 307.579 240.543 299.189 240.543 299.189Z" fill="#FDB78F"/>
<path d="M198.526 310.933H241.322C242.624 307.598 242.139 302.76 241.379 299.254C237.669 295.416 221.403 306.44 209.335 303.177C203.887 301.703 204.957 298.963 204.957 298.963C198.534 300.785 190.427 302.812 190.47 305.304C190.312 305.653 190.593 306.342 191.143 307.135C191.977 308.316 193.083 309.278 194.369 309.939C195.654 310.6 197.08 310.941 198.526 310.933Z" fill="white" stroke="#5C63C6" stroke-width="1.63449" stroke-linecap="round" stroke-linejoin="round"/>
<path d="M339.002 252.905C336.376 250.124 323.474 243.068 323.474 243.068C324.21 239.47 328.424 226.996 333.66 225.702C343.65 234.117 349.441 233.455 350.005 233.501C364.879 232.845 362.73 270.672 356.181 272.209C351.827 273.233 348.245 262.693 339.002 252.905Z" fill="#FDB78F"/>
<path d="M357.758 262.206C359.428 251.108 350.193 234.567 350 233.501C349.964 231.742 356.426 232.466 359.343 235.37C363.765 239.767 358.845 243.169 364.579 253.006C369.84 262.029 367.366 272.691 362.435 277.878C358.638 281.872 356.17 281.052 351.827 273.228C350.956 271.653 350.092 269.997 349.234 268.324C349 267.883 356.091 273.304 357.758 262.206Z" fill="white" stroke="#5C63C6" stroke-width="1.63449" stroke-linecap="round" stroke-linejoin="round"/>
<path d="M321.81 88.2954C321.479 87.2767 321.041 86.2959 320.502 85.3697C319.961 84.4473 319.341 83.5741 318.647 82.7599C317.251 81.1499 315.625 79.7538 313.823 78.6165C312.049 77.4742 310.132 76.5727 308.121 75.9359C306.37 75.2708 304.537 74.8429 302.673 74.6638C304.032 74.6941 305.388 74.806 306.734 74.9988C308.63 75.28 310.469 75.8602 312.183 76.7178C313.044 77.1546 313.877 77.6441 314.678 78.1834C315.482 78.7282 316.253 79.3275 317.029 79.935C316.39 79.1809 315.696 78.4752 314.953 77.8238C314.197 77.1745 313.386 76.5921 312.529 76.083C311.664 75.5708 310.752 75.1439 309.805 74.8081C308.854 74.4818 307.877 74.2385 306.884 74.0808C304.915 73.8155 302.924 73.7534 300.943 73.8955C298.981 73.9882 297.047 74.1298 295.078 74.0944C289.136 73.5904 284.181 72.2365 284.238 64.7451C284.266 61.7485 284.331 60.9313 284.402 62.4105C284.446 64.0013 284.885 65.5562 285.679 66.9353L285.829 67.1887L285.99 67.4393C286.096 67.6055 286.216 67.7607 286.333 67.9215C286.575 68.2319 286.834 68.5283 287.11 68.8095C287.383 69.0896 287.673 69.3525 287.979 69.5968C288.285 69.8388 288.604 70.0635 288.935 70.2697C290.242 71.1033 291.745 71.5812 293.293 71.6563C291.825 71.3505 290.442 70.7255 289.243 69.8257C288.947 69.6053 288.665 69.3688 288.395 69.1174C288.125 68.8699 287.87 68.6071 287.63 68.3301C287.154 67.7808 286.742 67.1795 286.401 66.5376C286.063 65.8988 285.804 65.2208 285.63 64.519C285.453 63.8165 285.354 63.0966 285.333 62.3724C285.304 61.5987 285.241 60.825 285.146 60.0568C285.219 60.4055 285.293 60.7569 285.358 61.1084L285.63 62.4514C285.731 62.9121 285.858 63.3668 286.009 63.8134C286.161 64.2611 286.343 64.6979 286.554 65.121C286.76 65.5484 287.001 65.9584 287.273 66.3469C288.361 67.8965 289.839 69.1306 291.558 69.9237C293.239 70.7006 295.038 71.1905 296.881 71.373C297.786 71.4726 298.695 71.5172 299.605 71.5065C300.517 71.4986 301.427 71.4277 302.33 71.294C301.877 71.3185 301.422 71.3185 300.967 71.3103C300.512 71.3021 300.063 71.2831 299.605 71.2531C298.706 71.1944 297.81 71.0862 296.922 70.9289C295.161 70.6472 293.454 70.0959 291.861 69.2944C290.295 68.5009 288.958 67.3226 287.973 65.8702C287.498 65.1427 287.119 64.3572 286.845 63.5329C286.709 63.119 286.595 62.698 286.505 62.2716L286.26 60.9422C285.914 59.1442 285.57 57.3136 284.832 55.6246C281.446 47.8799 275.546 46.0302 272.781 46.2399C272.781 46.2399 262.061 69.6186 272.947 86.2142C285.026 104.632 311.292 110.217 317.68 98.5001C321.374 91.7279 319.587 85.1163 315.051 80.5207C316.088 81.3888 317.053 82.338 317.939 83.3593C318.607 84.1267 319.211 84.9466 319.748 85.811C320.289 86.676 320.751 87.5877 321.129 88.5352C321.883 90.4594 322.27 92.5078 322.27 94.5746C322.636 92.4756 322.478 90.3187 321.81 88.2954Z" fill="#362E8B"/>
<path d="M229.968 132.923C226.971 134.917 230.703 141.28 236.933 144.271C243.164 147.263 279.738 152.616 298.957 149.747C310.053 148.385 258.046 124.886 248.361 126.788C238.677 128.689 229.968 132.923 229.968 132.923Z" fill="#2E2E2E"/>
<path d="M219.929 281.642C219.479 281.55 219.081 281.288 218.819 280.91C218.557 280.532 218.451 280.067 218.524 279.613C222.471 255 223.185 225.13 221.637 207.12C218.246 167.582 239.219 128.308 240.339 126.788C283.067 126.788 287.521 144.811 287.521 144.811C285.41 150.847 267.289 183.358 258.294 202.65C255.964 207.636 254.796 213.086 254.878 218.589C255.281 244.706 250.47 273.617 249.484 279.226C249.434 279.528 249.308 279.811 249.117 280.05C248.926 280.288 248.677 280.474 248.394 280.588C235.31 285.764 228.467 283.389 219.929 281.642Z" fill="#15B1FF"/>
<path d="M224.198 217.347C222.817 214.093 221.957 210.642 221.648 207.12C218.246 167.582 239.219 128.308 240.339 126.788" stroke="#5C63C6" stroke-width="1.63449" stroke-linecap="round" stroke-linejoin="round"/>
<path d="M246.926 126.674C247.648 153.915 253.785 210.482 268.912 221.316C280.204 229.402 307.108 242.464 321.922 250.119C333.486 256.093 339.52 229.415 335.907 226.438C332.295 223.46 309.949 199.389 292.754 199.136C307.394 158.571 285.756 137.979 271.438 129.82C263.497 125.312 255.253 123.571 246.926 126.674Z" fill="#15B1FF"/>
<path d="M261.437 129.85C262.255 143.972 274.396 146.794 279.381 146.628" stroke="#5C63C6" stroke-width="1.63449" stroke-linecap="round" stroke-linejoin="round"/>
<path d="M274.895 133.17C280.046 142.642 290.934 158.521 287.521 177.198C282.702 203.554 288.02 205.257 288.02 205.257C288.02 205.257 304.4 203.206 331.315 231.117" stroke="#5C63C6" stroke-width="1.63449" stroke-linecap="round" stroke-linejoin="round" stroke-dasharray="5.9 5.9"/>
<path d="M243.67 123.467C243.888 131.618 238.881 147.355 245.869 153.776" stroke="#5C63C6" stroke-width="1.63449" stroke-linecap="round" stroke-linejoin="round"/>
<path d="M247.74 129.85C246.566 136.203 247.209 143.996 247.849 148.919" stroke="#5C63C6" stroke-width="1.63449" stroke-linecap="round" stroke-linejoin="round"/>
<path d="M198.863 114.687C195.05 107.732 192.622 100.941 191.361 94.5529" stroke="white" stroke-width="1.08966" stroke-miterlimit="10"/>
<path d="M188.65 98.9032C187.858 94.7953 187.457 90.6212 187.455 86.4375" stroke="white" stroke-width="1.08966" stroke-miterlimit="10"/>
<path d="M229.968 132.922C238.731 122.298 234.498 116.232 233.882 109.247C233.12 100.636 239.622 92.5477 244.575 84.6586C248.604 78.2405 260.462 77.7501 266.798 78.2677C274.377 78.8888 297.75 79.085 321.524 105.626C318.408 111.404 310.053 117.28 302.264 123.464C302.193 122.936 289.349 111.944 289.349 111.944C289.349 111.944 298.843 139.793 301.262 144.811C303.286 149.017 300.679 151.193 298.957 149.747C289.202 141.547 243.85 125.998 229.968 132.922Z" fill="#FF8B88"/>
<path d="M284.775 108.34C285.418 115.728 291.937 120.988 295.892 130.705C292.675 121.699 289.354 111.944 289.354 111.944C289.354 111.944 291.937 107.604 284.775 108.34Z" fill="#2E2E2E"/>
<path d="M281.196 84.6531C288.6 81.5449 319.045 92.8937 329.209 124.742C334.881 142.511 329.882 160.254 327.239 165.721C323.548 173.365 318.988 179.421 314.738 178.778C308.898 177.893 314.365 171.499 313.477 166.41C313.025 163.809 310.39 170.023 307.312 167.252C306.724 166.724 312.022 159.295 313.06 156.356C315.049 150.714 316.198 142.206 313.207 131.803C309.993 120.634 298.028 113.804 285.023 106.305C275.783 100.982 281.196 84.6531 281.196 84.6531Z" fill="#FDB78F"/>
<path d="M266.798 78.268C274.323 78.8836 297.41 79.0852 321.009 105.049C321.163 105.219 321.259 105.435 321.281 105.664C321.303 105.892 321.251 106.122 321.132 106.319C317.857 111.691 310.281 117.139 303.03 122.86C302.828 123.018 302.577 123.098 302.321 123.087C302.065 123.076 301.821 122.973 301.635 122.797C298.505 119.844 284.775 108.34 284.775 108.34C284.775 108.34 260.462 77.7504 266.798 78.268Z" fill="#FF8B88"/>
<path d="M275.663 79.8179C275.663 79.8179 277.57 82.1879 272.067 86.4294C257.563 97.6257 240.663 91.0904 255.341 79.0605" stroke="white" stroke-width="1.08966" stroke-miterlimit="10" stroke-linecap="round"/>
<path d="M317.073 176.288C320.87 170.696 321.159 168.255 321.159 168.255" stroke="#E58863" stroke-width="0.817247" stroke-linecap="round" stroke-linejoin="round"/>
<path d="M313.632 176.27C317.658 170.84 318.457 166.822 318.457 166.822" stroke="#E58863" stroke-width="0.817247" stroke-linecap="round" stroke-linejoin="round"/>
<path d="M322.483 171.565C323.251 170.343 323.952 169.08 324.583 167.781" stroke="#E58863" stroke-width="0.817247" stroke-linecap="round" stroke-linejoin="round"/>
<path d="M274.102 65.5626C274.102 67.4505 273.513 69.3547 272.756 71.3433C271.637 74.269 272.288 77.4835 274.186 79.9734C274.21 80.0039 274.232 80.0357 274.252 80.0688C274.886 81.0985 273.759 85.103 268.877 87.2878C253.466 94.1799 245.809 88.0451 255.335 79.9325C259.421 76.4701 259.307 74.585 262.284 68.393L274.102 65.5626Z" fill="#FDB78F"/>
<path d="M260.263 72.9094C262.331 72.6615 265.679 71.6182 267.093 70.553L262.007 68.973C261.271 70.5367 260.734 71.8116 260.263 72.9094Z" fill="#2E2E2E"/>
<path d="M274.595 49.3618C273.634 48.7977 272.6 48.3687 271.522 48.0869C270.986 47.951 270.439 47.8599 269.888 47.8145C269.344 47.7682 268.797 47.7682 268.253 47.8145C267.708 47.8528 267.167 47.9348 266.635 48.0596C266.1 48.1846 265.573 48.3466 265.06 48.5445C264.022 48.9457 263.047 49.4963 262.167 50.179C262.902 49.2927 263.824 48.58 264.867 48.0923C265.391 47.8387 265.939 47.6353 266.501 47.4848C267.063 47.3366 267.636 47.2382 268.215 47.1906C268.795 47.1502 269.378 47.163 269.956 47.2288C270.532 47.2988 271.1 47.4275 271.65 47.6129C272.744 47.9813 273.748 48.5774 274.595 49.3618Z" fill="#2E2E2E"/>
<path d="M276.521 51.1242C271.694 44.7714 261.481 47.7925 261.102 55.3766C260.724 62.9606 276.521 51.1242 276.521 51.1242Z" fill="#2E2E2E"/>
<path d="M272.002 71.0679C265.97 73.1219 257.781 70.1363 257.051 66.742C255.714 60.5118 262.437 52.0887 268.468 50.0347C274.5 47.9807 277.147 50.397 279.201 56.4283C280.188 59.3244 279.983 62.4937 278.633 65.2391C277.283 67.9845 274.897 70.0812 272.002 71.0679Z" fill="#FDB78F"/>
<path d="M266.591 57.1013C268.283 57.6053 269.498 59.4659 269.498 59.4659" stroke="#E58863" stroke-width="0.817247" stroke-linecap="round" stroke-linejoin="round"/>
<path d="M268.357 49.2585C266.057 54.8703 271.694 58.8802 270.694 63.4977C271.405 64.4947 274.63 62.645 274.837 65.4236C274.924 66.625 273.889 68.5973 271.402 68.6736C272.11 70.3843 271.402 78.1346 272.876 78.4042C278.539 79.4394 286.173 60.4766 281.383 52.7046C280.4 51.1055 277.66 47.278 273.944 46.3654C272.82 46.0994 271.639 46.245 270.614 46.7759C269.588 47.3067 268.788 48.1876 268.357 49.2585Z" fill="#362E8B"/>
<path d="M262.404 55.6329C263.194 56.5619 262.837 57.3056 262.837 57.3056C262.837 57.3056 262.756 56.5155 262.385 56.8016C262.015 57.0876 261.5 57.202 261.568 56.6218C261.603 56.3303 261.968 55.8563 261.958 55.8045C261.759 54.8838 262.203 54.6005 262.203 54.6005C262.203 54.6005 262.132 55.3006 262.404 55.6329Z" fill="#010101"/>
<path d="M267.289 60.6507C267.482 60.8364 267.62 61.073 267.685 61.3332C267.75 61.5934 267.74 61.8668 267.657 62.1217C267.305 62.247 267.657 61.3208 267.166 61.6096C267.166 61.6096 266.717 62.0264 266.417 61.912C265.564 61.5905 266.518 60.3946 266.488 60.3292C266.311 59.8799 266.317 59.3795 266.504 58.9344C266.601 59.5685 266.872 60.1629 267.289 60.6507Z" fill="#010101"/>
<path d="M259.993 62.4186C261.473 65.091 263.287 65.7884 263.938 65.8484C264.589 65.9083 264.831 66.2379 264.039 66.603C263.766 66.7283 263.646 66.7255 263.578 66.6629C263.467 66.5648 263.469 66.3905 263.693 66.3333C264.597 66.0963 263.099 66.3087 262.246 66.5239C261.394 66.7392 259.522 66.7146 258.789 65.1074C258.699 64.8811 258.664 64.6367 258.687 64.3943C258.71 64.1519 258.79 63.9183 258.92 63.7126C259.054 63.5274 259.299 63.3449 259.34 63.1024C259.416 62.6393 258.795 61.754 259.318 61.4216C259.519 61.2936 259.522 61.566 259.993 62.4186Z" fill="#FF5963"/>
<path d="M262.827 66.0204C262.827 66.0204 260.41 66.0422 259.707 65.0016C259.534 64.7654 259.439 64.4817 259.433 64.1891C259.428 63.8965 259.513 63.6094 259.677 63.3671C260.461 64.5266 261.551 65.4453 262.827 66.0204Z" fill="white"/>
<path d="M263.911 53.0015C263.911 53.0015 264.635 54.5624 264.78 55.5458C265.025 57.2185 262.056 58.9674 261.214 59.2888C259.699 59.8636 261.432 61.9258 261.432 61.9258" stroke="#E58863" stroke-width="0.817247" stroke-linecap="round" stroke-linejoin="round"/>
<path d="M271.65 69.6733C271.956 70.9615 272.095 72.2835 272.064 73.607C272.042 74.9499 271.825 76.2823 271.419 77.5625C271.011 78.8693 270.334 80.0759 269.43 81.1039C268.534 82.1157 267.378 82.8627 266.087 83.2642C267.142 82.5375 268.064 81.6344 268.812 80.5945C269.521 79.5696 270.072 78.4437 270.446 77.2547C270.827 76.048 271.1 74.8101 271.263 73.5553C271.44 72.2749 271.536 70.9864 271.65 69.6733Z" fill="#362E8B"/>
<path d="M272.214 70.2454C272.304 70.8202 272.413 71.4004 272.454 71.9752C272.484 72.264 272.505 72.5527 272.527 72.8415L272.56 73.7023C272.583 74.8452 272.519 75.9882 272.367 77.1211C272.061 79.374 271.794 81.093 270.936 83.166C270.72 83.6836 270.5 84.1985 270.274 84.7106L269.596 86.2362C269.147 87.2495 268.327 88.7206 268.011 89.7612C267.856 90.2813 267.74 90.8122 267.665 91.3494C267.588 91.8907 267.57 92.4388 267.613 92.9839C267.732 94.1586 268.067 95.3011 268.602 96.3537C267.836 95.3555 267.292 94.2059 267.005 92.9812C266.779 91.8248 266.792 90.6345 267.044 89.4834C267.289 88.3787 267.628 87.2969 268.057 86.2498C268.468 85.2064 268.915 84.1876 269.332 83.1633C271.104 79.0793 272.082 74.6952 272.214 70.2454Z" fill="#362E8B"/>
<path d="M275.298 65.9928C275.388 66.5676 275.497 67.1478 275.537 67.7226C275.567 68.0114 275.589 68.3002 275.611 68.5889L275.644 69.4498C275.667 70.5926 275.602 71.7356 275.45 72.8686C275.145 75.1214 274.878 76.8404 274.02 78.9135C273.805 79.4338 273.584 79.9459 273.358 80.4581L272.688 81.9972C272.238 83.0106 271.419 84.4816 271.103 85.5223C270.948 86.0423 270.832 86.5732 270.757 87.1105C270.68 87.6518 270.662 88.1999 270.705 88.7449C270.82 89.9169 271.151 91.0574 271.68 92.1093C270.915 91.1111 270.37 89.9615 270.084 88.7368C269.858 87.5804 269.871 86.3901 270.122 85.239C270.369 84.1314 270.709 83.0469 271.141 81.9972C271.552 80.9539 271.988 77.8783 272.405 76.8513C273.252 74.8082 273.979 74.7891 274.461 72.6343C274.933 70.4491 275.213 68.2268 275.298 65.9928Z" fill="#362E8B"/>
<path d="M271.658 69.9156C271.49 70.0516 271.284 70.1343 271.069 70.1531C270.853 70.1719 270.636 70.126 270.447 70.0212C270.257 69.9163 270.103 69.7574 270.004 69.5646C269.906 69.3718 269.866 69.154 269.892 68.9389C269.918 68.7238 270.007 68.5212 270.148 68.357C270.289 68.1927 270.476 68.0744 270.685 68.0169C270.894 67.9595 271.115 67.9656 271.321 68.0345C271.526 68.1034 271.706 68.2319 271.838 68.4037C271.926 68.5147 271.99 68.6419 272.029 68.778C272.067 68.9142 272.078 69.0565 272.062 69.1969C272.045 69.3373 272.001 69.4731 271.931 69.5964C271.862 69.7197 271.769 69.8282 271.658 69.9156Z" fill="white"/>
<path d="M316.841 105.153C312.15 112.295 299.627 120.98 299.627 120.98" stroke="white" stroke-width="1.08966" stroke-miterlimit="10" stroke-linecap="round"/>
<path d="M332.709 221.39C334.039 240.331 327.326 248.647 321.922 250.124C307.108 242.469 280.204 229.42 268.912 221.321C258.31 213.729 252.123 183.671 249.121 156.988" stroke="#5C63C6" stroke-width="1.63449" stroke-linecap="round" stroke-linejoin="round"/>
<path d="M252.486 179.98C247.31 194.808 246.414 195.472 245.869 229.366C245.324 263.26 242.137 278.543 242.137 278.543" stroke="#5C63C6" stroke-width="1.63449" stroke-linecap="round" stroke-linejoin="round" stroke-dasharray="5.9 5.9"/>
<path d="M223.653 277.401C221.903 277.068 220.178 276.612 218.491 276.039" stroke="#5C63C6" stroke-width="1.63449" stroke-linecap="round" stroke-linejoin="round"/>
<path d="M253.583 274.355C243.804 278.888 234.021 278.888 227.282 278.003" stroke="#5C63C6" stroke-width="1.63449" stroke-linecap="round" stroke-linejoin="round"/>
<path d="M95.2255 68.5454C87.2628 71.2369 66.6709 76.0042 66.6709 76.0042C66.6709 76.0042 65.2761 47.1744 63.7016 44.0335C59.9286 36.4984 52.696 39.555 49.6095 43.2462C49.318 43.5949 42.0091 48.9506 46.9889 56.2813C53.3198 63.6365 41.9928 84.5934 53.3198 95.5881C62.838 104.828 102.055 91.0851 102.055 91.0851C102.055 91.0851 103.188 65.8512 95.2255 68.5454Z" fill="#FDB78F"/>
<path d="M63.2466 85.8929L66.6708 76.0043C66.6708 76.0043 65.2761 47.1745 63.7015 44.0336" stroke="#E58863" stroke-width="0.817247" stroke-linecap="round" stroke-linejoin="round"/>
<path d="M115.025 66.5457C106.228 63.8215 92.9426 68.7032 79.9566 71.6807C74.1759 75.7316 75.1512 100.472 75.7314 100.663C80.7357 102.325 90.9322 102.592 95.1601 103.357C101.447 88.595 115.025 66.5457 115.025 66.5457Z" fill="#FF5963"/>
<path d="M57.109 291.016C54.1696 282.47 69.3677 268.694 75.8376 250.317C74.2848 247.007 45.3979 257.443 44.3055 260.751C43.0742 263.344 39.0615 281.92 21.8257 278.635C21.8257 278.635 9.61334 281.904 22.5013 287.624C29.8348 290.877 57.109 291.016 57.109 291.016Z" fill="#FDB78F"/>
<path d="M11.9099 292.179C11.9099 292.179 18.0501 295.198 30.3034 297.772C38.247 299.439 49.5468 306.067 56.221 304.294C59.1686 303.512 59.3511 293.481 57.8255 289.806C56.5615 283.04 37.0075 288.128 34.0954 282.677C32.4963 279.681 40.3119 275.496 36.8795 273.268C36.4246 273.094 32.6489 274.903 27.157 275.867C19.3414 277.245 1.82235 278.569 1.02417 280.61C-0.136323 283.584 3.5876 289.534 11.9099 292.179Z" fill="white" stroke="#5C63C6" stroke-width="1.63449" stroke-linecap="round" stroke-linejoin="round"/>
<path d="M26.3506 274.584L27.7372 280.632" stroke="#5C63C6" stroke-width="1.63449" stroke-linecap="round" stroke-linejoin="round"/>
<path d="M21.9648 275.363L23.218 280.403" stroke="#5C63C6" stroke-width="1.63449" stroke-linecap="round" stroke-linejoin="round"/>
<path d="M17.5571 276.333L18.6468 280.308" stroke="#5C63C6" stroke-width="1.63449" stroke-linecap="round" stroke-linejoin="round"/>
<path d="M13.6206 277.125L14.1981 279.896" stroke="#5C63C6" stroke-width="1.63449" stroke-linecap="round" stroke-linejoin="round"/>
<path d="M2.59863 281.533C4.98499 289.706 25.5224 295.301 41.1427 294.781C54.5183 294.337 56.6922 300.15 56.6922 300.15" stroke="#5C63C6" stroke-width="1.63449" stroke-linecap="round" stroke-linejoin="round"/>
<path d="M177.146 288.33C170.235 278.812 163.798 260.255 161.823 240.867C159.009 238.535 140.179 259.307 141.255 262.619C141.8 265.439 161.561 297.851 145.72 305.389C142.901 308.903 132.849 316.334 151.583 312.237C159.42 310.532 177.146 288.33 177.146 288.33Z" fill="#FDB78F"/>
<path d="M40.8921 266.049C46.068 249.375 63.2302 211.596 68.8664 192.549C80.06 154.732 98.459 116.812 99.7366 115.433C141.945 120.231 144.32 138.534 144.32 138.534C141.555 144.26 112.671 187.694 100.014 207.24C90.8123 225.917 77.9488 266.918 72.4242 275.617C64.2599 279.379 42.8181 269.664 40.8921 266.049Z" fill="white"/>
<path d="M95.2827 124.282C101.339 155.71 114.741 197.997 117.645 209.123C123.963 233.341 147.84 284.421 147.84 284.421C147.84 284.421 167.236 280.853 176.858 272.002C162.212 220.485 153.945 220.15 153.43 213.648C149.82 169.034 153.174 152.627 134.105 126.298C131.032 122.062 95.2827 124.282 95.2827 124.282Z" fill="white"/>
<path d="M133.576 167.007C141.187 186.428 135.813 206.627 144.361 224.422C148.624 233.3 158.075 246.12 165.182 272.059" stroke="#5C63C6" stroke-width="1.63449" stroke-linecap="round" stroke-linejoin="round" stroke-dasharray="5.9 5.9"/>
<path d="M95.2827 124.282C101.339 155.71 114.741 197.997 117.645 209.123C118.931 214.056 121.364 219.115 124.456 221.49" stroke="#5C63C6" stroke-width="1.63449" stroke-linecap="round" stroke-linejoin="round"/>
<path d="M118.419 120.214C119.882 134.2 132.053 136.458 136.998 136.069" stroke="#5C63C6" stroke-width="1.63449" stroke-linecap="round" stroke-linejoin="round"/>
<path d="M95.1519 103.358C95.8275 101.772 96.5902 100.089 97.4075 98.386C98.2247 91.9869 97.7017 85.0076 98.2628 78.3716C89.3467 81.9457 84.6039 95.1006 83.645 102.123C88.0282 102.625 92.6429 102.903 95.1519 103.358Z" fill="#2E2E2E"/>
<path d="M85.5847 127.278C87.7368 113.456 85.3314 97.7348 93.8934 81.2019C101.706 66.1155 115.362 67.8535 121.68 68.0769C129.234 68.3493 145.236 101.175 145.236 101.175C145.236 101.175 154.187 164.61 156.819 169.486C159.02 173.573 156.876 173.79 154.754 174.493C121.38 185.534 97.9197 155.904 80.9864 157.456C72.3998 158.241 83.4327 141.112 85.5847 127.278Z" fill="#FF5963"/>
<path d="M141.879 121.021C138.109 114.916 134.663 106.855 133.492 99.6881L145.064 100.824L145.236 101.175C145.236 101.175 146.358 109.111 147.922 119.591L143.718 121.571C143.398 121.723 143.033 121.75 142.693 121.649C142.354 121.547 142.064 121.323 141.879 121.021Z" fill="#2E2E2E"/>
<path d="M138.684 74.7729C146.658 74.3561 171.322 95.204 170.118 128.439C169.448 146.963 158.805 161.886 154.495 166.111C148.472 172.02 142.168 176.152 138.409 174.12C133.233 171.331 140.509 167.187 141.389 162.134C141.839 159.551 137.287 164.477 135.336 160.851C134.963 160.156 142.419 154.991 144.377 152.591C148.134 147.982 152.073 140.411 152.773 129.67C153.525 118.133 144.625 107.727 134.982 96.34C128.131 88.2275 138.684 74.7729 138.684 74.7729Z" fill="#FDB78F"/>
<path d="M128.784 68.044C149.613 73.8792 159.505 78.2215 169.374 107.958C164.708 112.143 155.497 114.785 146.491 117.79C146.187 117.892 145.856 117.889 145.553 117.782C145.25 117.675 144.992 117.47 144.819 117.199C141.822 112.502 127.618 92.4525 127.618 92.4525C127.618 92.4525 122.699 66.3387 128.784 68.044Z" fill="#FF5963"/>
<path d="M141.43 172.567C146.862 168.612 147.968 166.43 147.968 166.43" stroke="#E58863" stroke-width="0.817247" stroke-linecap="round" stroke-linejoin="round"/>
<path d="M138.215 171.393C143.811 167.667 145.908 164.174 145.908 164.174" stroke="#E58863" stroke-width="0.817247" stroke-linecap="round" stroke-linejoin="round"/>
<path d="M148.08 169.969C149.209 169.084 150.289 168.138 151.316 167.135" stroke="#E58863" stroke-width="0.817247" stroke-linecap="round" stroke-linejoin="round"/>
<path d="M165.135 105.948C158.344 111.053 143.707 114.965 143.707 114.965" stroke="white" stroke-width="1.08966" stroke-miterlimit="10" stroke-linecap="round"/>
<path d="M81.4659 72.5498C77.1427 82.9697 77.3007 97.5112 78.3304 102.18" stroke="white" stroke-width="1.08966" stroke-miterlimit="10" stroke-linecap="round"/>
<path d="M130.051 55.7338C130.144 57.6107 129.506 62.8166 128.869 64.827C128.733 65.2547 128.504 67.7146 128.831 70.1064C128.831 70.1446 128.863 70.1936 128.901 70.199C131.473 70.6403 130.149 75.9824 123.886 77.6087C111.331 80.8777 107.362 73.9175 110.105 70.91C114.019 67.2869 113.81 65.4209 116.49 59.1362L130.051 55.7338Z" fill="#FDB78F"/>
<path d="M114.687 63.721C116.727 63.3804 119.83 62.7757 121.944 59.9344L116.24 59.7328C115.578 61.3182 115.104 62.6095 114.687 63.721Z" fill="#2E2E2E"/>
<path d="M119.015 36.403C118.103 36.2587 114.18 39.7211 115.112 44.5891C116.071 49.5961 121.105 42.7612 121.377 40.9142C121.65 39.0673 119.015 36.403 119.015 36.403Z" fill="#2E2E2E"/>
<path d="M127.597 58.9947C122.385 61.8741 113.066 61.234 111.393 58.9947C110.576 57.4964 110.421 52.4131 112.017 48.4304C113.472 44.7937 115.787 41.1624 118.716 39.4271C123.837 36.3924 128.942 39.1547 131.822 44.3551C133.201 46.8572 133.53 49.8042 132.738 52.549C131.946 55.2939 130.097 57.6121 127.597 58.9947Z" fill="#FDB78F"/>
<path d="M118.773 34.2212C114.485 42.2902 130.721 45.1832 125.311 54.7559C125.311 55.4696 125.491 55.6194 125.842 55.8156C125.842 55.8156 129.555 52.8926 130.057 55.742C130.329 57.2294 129 57.9622 128.536 59.8037C128.125 61.4382 128.455 63.3152 128.874 64.8353C130.626 60.2342 134.62 57.3438 136.57 53.7343C139.82 47.7167 136.428 38.7515 129.261 37.2232C122.786 35.8339 121.732 28.6912 118.773 34.2212Z" fill="#362E8B"/>
<path d="M120.307 49.4681C120.386 49.2747 119.217 48.6727 118.92 48.6863C118.869 48.6591 118.403 49.7378 118.531 50.1791C118.659 50.6204 119.348 50.6858 119.659 50.4515C119.969 50.2173 119.541 49.716 120.307 49.4681Z" fill="#010101"/>
<path d="M115.172 46.0384C115.243 45.8776 114.267 45.3301 114.022 45.3301C113.978 45.3056 113.548 46.2073 113.641 46.5832C113.733 46.9591 114.308 47.0409 114.591 46.8556C114.875 46.6704 114.512 46.21 115.172 46.0384Z" fill="#010101"/>
<path d="M112.78 53.6796C112.597 55.265 113.145 56.3465 113.415 56.4391C116.577 57.5288 115.962 55.3222 117.675 54.663C115.613 55.2487 112.78 53.6796 112.78 53.6796Z" fill="#010101"/>
<path d="M113.014 53.6659C112.979 53.992 112.999 54.3218 113.074 54.6411C113.197 54.9326 115.294 55.8943 116.262 55.1288C117.177 54.5839 114.627 54.5839 114.627 54.5839L113.014 53.6659Z" fill="white"/>
<path d="M118.018 54.2246C117.762 54.1129 117.302 54.5488 117.043 54.5923C116.299 54.7056 115.538 54.6302 114.83 54.3732C114.123 54.1162 113.491 53.6858 112.992 53.1213C112.826 52.9497 112.409 53.3937 112.75 53.7887C113.412 54.5488 115.063 55.2816 116.071 55.1862C116.572 55.1399 116.953 54.8484 117.446 54.8212C117.593 54.8212 117.615 56.0607 117.956 55.5485C118.095 55.336 118.373 54.3771 118.018 54.2246Z" fill="#E58863"/>
<path d="M113.63 57.6621C113.974 57.6611 114.315 57.7335 114.63 57.8746" stroke="#E58863" stroke-width="0.817247" stroke-linecap="round" stroke-linejoin="round"/>
<path d="M122.726 48.531C120.996 47.0763 118.945 45.8858 117.822 46.5205C116.558 47.2343 115.643 49.2937 113.213 49.8386C112.213 50.0619 112.576 51.582 113.254 52.3884" stroke="#E58863" stroke-width="0.817247" stroke-linecap="round" stroke-linejoin="round"/>
<path d="M117.002 44.5049C116.629 44.1869 116.195 43.9471 115.727 43.7997C115.259 43.6523 114.767 43.6003 114.278 43.6467" stroke="#E58863" stroke-width="0.817247" stroke-linecap="round" stroke-linejoin="round"/>
<path d="M130.694 69.8858C130.694 69.8858 134.69 73.2038 127.97 77.3009C115.638 84.8278 101.298 75.2823 110.459 69.4009" stroke="white" stroke-width="1.08966" stroke-miterlimit="10" stroke-linecap="round"/>
<path d="M41.2954 261.271C50.5902 270.912 62.5983 271.427 70.0026 271.746" stroke="#5C63C6" stroke-width="1.63449" stroke-linecap="round" stroke-linejoin="round"/>
<path d="M156.93 277.782C165.966 275.058 172.022 271.102 174.411 268.436" stroke="#5C63C6" stroke-width="1.63449" stroke-linecap="round" stroke-linejoin="round"/>
<path d="M148.033 279.82C149.924 279.553 151.797 279.172 153.642 278.681" stroke="#5C63C6" stroke-width="1.63449" stroke-linecap="round" stroke-linejoin="round"/>
<path d="M108.914 178.784C102.259 189.781 89.6247 206.491 87.5979 212.945C85.5711 219.398 64.1702 269.536 64.1702 269.536" stroke="#5C63C6" stroke-width="1.63449" stroke-linecap="round" stroke-linejoin="round" stroke-dasharray="5.9 5.9"/>
<path d="M156.704 300.235C155.688 293.381 152.651 292.398 150.322 292.261C147.992 292.125 145.453 306.748 138.283 313.191C137.36 314.008 133.998 315.746 132.375 317.261C130.751 318.776 134.96 324.654 143.527 324.153C152.095 323.652 161.139 318.658 172.281 311.458C179.805 306.599 188.108 303.079 187.076 296.928C186.141 291.351 176.983 284.743 176.983 284.743C174.493 283.288 173.597 284.16 169.333 294.585C165.046 305.068 156.704 300.235 156.704 300.235Z" fill="white" stroke="#5C63C6" stroke-width="1.63449" stroke-linecap="round" stroke-linejoin="round"/>
<path d="M132.375 317.261C138.172 315.414 135.132 325.161 148.48 320.715C173.469 312.379 171.875 292.444 183.69 293.953" stroke="#5C63C6" stroke-width="1.63449" stroke-linecap="round" stroke-linejoin="round"/>
<path d="M137.948 312.929C142.035 313.06 143.459 314.872 143.459 314.872" stroke="#5C63C6" stroke-width="1.63449" stroke-linecap="round" stroke-linejoin="round"/>
<path d="M140.12 309.876C143.413 309.726 146.81 311.894 146.81 311.894" stroke="#5C63C6" stroke-width="1.63449" stroke-linecap="round" stroke-linejoin="round"/>
<path d="M143.718 303.831C147.804 302.515 153.362 306.522 153.362 306.522" stroke="#5C63C6" stroke-width="1.63449" stroke-linecap="round" stroke-linejoin="round"/>
<path d="M141.871 306.762C145.587 305.945 149.883 309.009 149.883 309.009" stroke="#5C63C6" stroke-width="1.63449" stroke-linecap="round" stroke-linejoin="round"/>
<path d="M134.339 94.5884C131.83 99.5382 130.215 105.297 130.215 105.297C130.215 105.297 122.759 106.171 120.582 104.207C119.694 102.428 124.494 93.8828 124.494 93.8828L134.339 94.5884Z" stroke="white" stroke-width="1.08966" stroke-miterlimit="10" stroke-linecap="round"/>
<path d="M135.39 96.3017C131.71 96.3033 128.034 96.0667 124.385 95.5934" stroke="white" stroke-width="1.08966" stroke-miterlimit="10" stroke-linecap="round"/>
<path d="M179.846 137.418C178.233 145.715 175.613 152.945 172.303 159.05" stroke="white" stroke-width="1.08966" stroke-miterlimit="10"/>
<path d="M180.5 152.912C178.625 157.621 176.246 162.112 173.403 166.307" stroke="white" stroke-width="1.08966" stroke-miterlimit="10"/>
<path d="M58.3949 40.5686L46.662 51.3481C46.1611 51.8108 45.7899 52.3963 45.5849 53.0466C45.3799 53.6969 45.3483 54.3894 45.4933 55.0557C45.6411 55.7261 45.9626 56.346 46.4256 56.8529C46.8887 57.3599 47.4769 57.7362 48.1312 57.944C48.7856 58.1518 49.4831 58.1839 50.1538 58.0369C50.8245 57.89 51.4447 57.5693 51.9523 57.107L64.1974 46.3111C63.3982 44.9832 62.5128 43.7092 61.5468 42.4973C60.719 41.5462 59.6186 40.8728 58.3949 40.5686Z" fill="#FF5963"/>
<path d="M45.9128 52.3043C46.6157 51.882 46.8963 53.1379 47.6236 53.8516C49.2581 55.4534 50.0754 56.4041 51.2277 55.7585C51.9114 55.3717 51.6826 54.1376 51.6826 54.1376C52.1061 54.283 52.5653 54.2869 52.9912 54.1489C53.4171 54.0108 53.7867 53.7383 54.0444 53.3722C54.5157 52.7401 53.9546 51.2609 53.5868 50.7243C55.2213 51.0893 57.0002 50.8332 55.5782 48.0165C54.1561 45.1997 51.1242 42.0233 51.1242 42.0233L46.2016 51.2854L45.9128 52.3043Z" fill="#FDB78F"/>
<path d="M61.5468 42.5164C61.2369 42.1481 60.8817 41.8205 60.4898 41.5411C60.1813 41.4345 59.8676 41.3435 59.5499 41.2687C58.9676 41.1376 58.3685 41.0972 57.7738 41.1489L55.4746 43.2846C57.4592 44.3896 59.3086 45.7216 60.9856 47.2537L62.0371 48.2426L64.1974 46.3356C63.3984 45.0059 62.513 43.73 61.5468 42.5164Z" fill="#162243"/>
<path d="M59.4847 53.5873C54.9789 51.3072 59.2504 45.6246 56.1258 47.0793C53.2246 50.3156 51.6582 49.5828 51.4566 49.1606C51.1079 48.425 53.0693 44.3715 54.9707 42.8705C54.9707 42.8705 56.657 41.5411 57.5614 41.661C58.4658 41.7808 62.4431 47.161 63.7861 49.3513C63.5627 52.8681 61.4488 55.0284 59.4847 53.5873Z" fill="#FDB78F"/>
<path d="M54.9707 42.8702C54.5207 43.1831 54.1101 43.5489 53.7475 43.9599C53.5623 44.1642 53.388 44.3767 53.2191 44.5946C53.0502 44.8126 52.8894 45.0332 52.7342 45.2593C52.4233 45.715 52.1387 46.1879 51.8815 46.6759C51.7507 46.9183 51.6309 47.169 51.5192 47.425C51.4013 47.6827 51.2994 47.9475 51.2141 48.2178C51.1923 48.2886 51.1705 48.3567 51.1541 48.4302L51.1296 48.5392L51.1078 48.6509C51.1078 48.689 51.1078 48.7299 51.0915 48.7708C51.0751 48.8116 51.0915 48.8498 51.0915 48.8961C51.0881 48.9969 51.0982 49.0976 51.1215 49.1957C51.1215 49.2257 51.1405 49.2557 51.1541 49.2856C51.1659 49.3169 51.1805 49.347 51.1977 49.3755L51.2522 49.4491C51.2686 49.4709 51.2876 49.4899 51.3067 49.5117C51.3763 49.582 51.4551 49.6425 51.541 49.6915C51.6939 49.7731 51.8598 49.8275 52.0313 49.8523C52.3488 49.8998 52.6726 49.8803 52.9821 49.795C53.2707 49.7199 53.5496 49.6111 53.8129 49.4709C54.0683 49.338 54.3133 49.1859 54.5457 49.0159C54.7771 48.8535 54.9991 48.678 55.2104 48.4902C55.6276 48.1207 56.0207 47.7249 56.3873 47.3052L56.2728 47.3869C56.4174 47.3173 56.5667 47.2581 56.7196 47.2098C56.7801 47.1928 56.8422 47.1819 56.9048 47.1771C56.9293 47.1758 56.9539 47.1758 56.9784 47.1771C56.9918 47.1907 57.0012 47.2076 57.0056 47.2262C57.0267 47.2841 57.0405 47.3446 57.0465 47.406C57.0589 47.5701 57.0589 47.7349 57.0465 47.899C57.0302 48.2477 57.0002 48.6155 56.9866 48.9887C56.9685 49.3628 56.9748 49.7377 57.0056 50.111C57.0374 50.4893 57.1105 50.8629 57.2236 51.2252C57.2818 51.4115 57.3527 51.5936 57.4361 51.7701C57.5221 51.939 57.6195 52.1019 57.7275 52.2577C57.838 52.4104 57.9591 52.5551 58.0899 52.6908C58.2217 52.8243 58.3638 52.9472 58.5148 53.0586C58.8107 53.2806 59.1339 53.4637 59.4764 53.6034C59.1694 53.4137 58.8828 53.1927 58.6211 52.9442C58.1142 52.4567 57.7651 51.8286 57.6186 51.1408C57.5432 50.8018 57.5057 50.4556 57.5069 50.1083C57.5039 49.7562 57.5211 49.4042 57.5586 49.0541C57.5941 48.6999 57.6458 48.3431 57.6785 47.9644C57.6993 47.7672 57.7048 47.5686 57.6948 47.3705C57.6884 47.2508 57.6655 47.1326 57.6267 47.0191C57.6161 46.9853 57.6025 46.9524 57.5859 46.9211C57.569 46.8857 57.5489 46.852 57.5259 46.8203C57.4756 46.7481 57.4129 46.6854 57.3407 46.635C57.3028 46.6129 57.2637 46.5929 57.2236 46.5751C57.1852 46.5603 57.1461 46.5476 57.1064 46.537C57.0696 46.5284 57.0323 46.522 56.9947 46.5179H56.8885C56.7709 46.5218 56.654 46.5382 56.5398 46.5669C56.3445 46.6197 56.154 46.689 55.9705 46.774C55.9314 46.7914 55.8963 46.8164 55.8669 46.8475L55.5945 47.139L55.3221 47.4114C55.1314 47.5967 54.9435 47.7792 54.7446 47.9562C54.5457 48.1333 54.3414 48.2886 54.1344 48.4411C53.929 48.5914 53.7132 48.7271 53.4888 48.847C53.2742 48.9622 53.0476 49.0536 52.8132 49.1195C52.7015 49.1502 52.5877 49.172 52.4726 49.1848C52.3658 49.1972 52.258 49.1972 52.1512 49.1848C52.0563 49.1737 51.9641 49.1461 51.8788 49.1031C51.8457 49.0871 51.8153 49.066 51.7889 49.0405H51.7753C51.7652 49.0069 51.7606 48.9719 51.7616 48.9369C51.7616 48.9151 51.7616 48.8852 51.7616 48.8607C51.7616 48.8361 51.7616 48.8062 51.7616 48.7762V48.689L51.778 48.5991C51.778 48.5392 51.8052 48.4766 51.8188 48.4166C51.9619 47.9102 52.1441 47.4156 52.3637 46.9374C52.5816 46.4525 52.8159 45.9703 53.0801 45.5045C53.3399 45.0356 53.6245 44.5809 53.9328 44.1424C54.0844 43.92 54.2471 43.7054 54.4204 43.4995C54.5913 43.2791 54.7751 43.069 54.9707 42.8702Z" fill="#E58863"/>
<path d="M46.9917 49.0869C47.2881 49.5523 47.6177 49.9956 47.9778 50.4136C48.3302 50.8276 48.6934 51.2263 49.0675 51.6095C49.4462 51.9963 49.8384 52.3668 50.2416 52.7291C50.3397 52.819 50.4432 52.9089 50.5467 53.0015C50.6502 53.0941 50.751 53.1786 50.8546 53.2739C51.0616 53.451 51.2686 53.6226 51.4811 53.8188C51.462 53.7507 51.4375 53.6853 51.413 53.6172C51.3885 53.5491 51.3585 53.4891 51.3286 53.4238C51.2686 53.2957 51.1978 53.1759 51.1297 53.0533C51.0616 52.9307 50.9826 52.8163 50.9063 52.7019C50.83 52.5875 50.7483 52.473 50.6666 52.3614C50.3308 51.924 49.9668 51.5091 49.5769 51.1191C49.1925 50.7326 48.7859 50.3688 48.3592 50.0295C47.935 49.6718 47.477 49.3561 46.9917 49.0869Z" fill="#E58863"/>
<path d="M49.1436 45.766C49.2866 46.0132 49.4497 46.2483 49.6312 46.4688C49.8048 46.6792 49.9952 46.875 50.2005 47.0545C50.4061 47.2367 50.6276 47.3999 50.8625 47.5421C51.11 47.6963 51.379 47.8129 51.6607 47.8881C51.5674 47.61 51.4284 47.3495 51.2493 47.1172C51.0836 46.8926 50.8936 46.6871 50.6827 46.5042C50.4709 46.3188 50.2388 46.158 49.9908 46.0248C49.8632 45.9558 49.7302 45.8975 49.593 45.8504C49.4486 45.7986 49.2969 45.7701 49.1436 45.766Z" fill="#E58863"/>
<path d="M51.124 42.0286C51.1915 42.3313 51.3016 42.623 51.4509 42.8948C51.5908 43.1535 51.754 43.3987 51.9385 43.6276C52.1204 43.8581 52.3238 44.0706 52.546 44.2624C52.7774 44.4694 53.0381 44.6411 53.3197 44.7718C53.2556 44.4684 53.1463 44.1764 52.9955 43.9055C52.7143 43.3916 52.3455 42.9306 51.9059 42.5434C51.6731 42.3328 51.4094 42.1592 51.124 42.0286Z" fill="#E58863"/>
<path d="M39.9497 42.5516C44.0573 41.6016 48.315 41.4949 52.465 42.238C56.6151 42.9811 60.5712 44.5586 64.0939 46.8749L66.3604 48.3677C68.6135 49.8497 71.3631 50.3761 74.0043 49.831C76.6455 49.2859 78.962 47.714 80.4443 45.461C81.1785 44.3455 81.6857 43.0963 81.937 41.7847C82.1882 40.4731 82.1786 39.1248 81.9087 37.8169C81.6388 36.509 81.1138 35.2671 80.3638 34.1622C79.6138 33.0572 78.6535 32.1109 77.5376 31.3771L75.2766 29.8898C71.7525 27.5714 68.736 24.5615 66.4101 21.0424C64.0842 17.5233 62.4973 13.5685 61.7457 9.41772L39.9497 42.5516Z" fill="#FF5963"/>
<path d="M74.6037 45.5344C74.4096 45.4074 74.173 45.3624 73.9458 45.4094C73.7186 45.4564 73.5193 45.5914 73.3915 45.785C73.2644 45.9792 73.2195 46.2157 73.2665 46.4429C73.3134 46.6701 73.4485 46.8694 73.6421 46.9973L76.5787 48.9287C77.1507 48.638 77.6934 48.2932 78.1996 47.899L74.6037 45.5344Z" fill="#FAFDFF"/>
<path d="M75.0585 40.8628C74.8644 40.7357 74.6279 40.6908 74.4007 40.7378C74.1735 40.7847 73.9741 40.9198 73.8463 41.1134C73.7193 41.3075 73.6743 41.5441 73.7213 41.7713C73.7683 41.9985 73.9033 42.1978 74.0969 42.3256L79.9348 46.1667C80.1146 45.9379 80.2862 45.7009 80.4469 45.4557C80.6104 45.2105 80.7602 44.9599 80.8964 44.7038L75.0585 40.8628Z" fill="#FAFDFF"/>
<path d="M79.1666 38.596C78.9729 38.4691 78.7367 38.4242 78.51 38.4712C78.2832 38.5182 78.0844 38.6532 77.9571 38.8466C77.8937 38.9424 77.8498 39.0499 77.828 39.1627C77.8061 39.2755 77.8067 39.3915 77.8297 39.5041C77.8528 39.6167 77.8978 39.7236 77.9621 39.8188C78.0265 39.914 78.109 39.9956 78.2049 40.0588L81.7981 42.4234C81.9611 41.7992 82.0624 41.1605 82.1005 40.5165L79.1666 38.596Z" fill="#FAFDFF"/>
<path d="M34.8691 15.4842C27.2415 27.081 25.4844 39.3969 30.9463 42.9982C36.4083 46.5995 47.0189 40.1051 54.6465 28.5057C59.076 21.7716 61.525 14.795 61.7293 9.43659C61.8764 5.5574 60.8548 2.51724 58.5638 1.01078C53.121 -2.60145 42.4968 3.88476 34.8691 15.4842Z" fill="#624DF7"/>
<path d="M34.8691 15.4842C27.2415 27.081 25.4844 39.3969 30.9463 42.9982C36.4083 46.5995 47.0189 40.1051 54.6465 28.5057C59.076 21.7716 61.525 14.795 61.7293 9.43659C61.8764 5.5574 60.8548 2.51724 58.5638 1.01078C53.121 -2.60145 42.4968 3.88476 34.8691 15.4842Z" fill="#FF5963"/>
<path d="M37.3616 16.8547C30.148 27.8222 28.0858 39.1928 32.7577 42.2738C37.4297 45.3549 47.4491 39.4652 54.6627 28.4978C58.8497 22.1314 60.9282 15.1058 61.3205 10.1669C61.6147 6.60102 60.8384 3.84962 58.8688 2.5611C54.2105 -0.51175 44.5751 5.89002 37.3616 16.8547Z" fill="white"/>
<path d="M51.6334 18.7614C52.7776 19.5132 55.0713 21.5373 57.3542 23.9127C56.5358 25.4859 55.6375 27.0161 54.6627 28.4975C53.685 29.9834 52.6331 31.419 51.5109 32.7989C48.4298 31.6357 45.6648 30.3254 44.5207 29.5708C43.8085 29.1049 43.1952 28.503 42.716 27.7996C42.2369 27.0963 41.9011 26.3053 41.7281 25.472C41.5551 24.6388 41.5482 23.7795 41.7078 22.9435C41.8674 22.1076 42.1903 21.3113 42.6581 20.6004C43.126 19.8894 43.7294 19.2777 44.434 18.8004C45.1386 18.323 45.9305 17.9894 46.7642 17.8186C47.598 17.6477 48.4572 17.6431 49.2928 17.8049C50.1283 17.9666 50.9237 18.2917 51.6334 18.7614Z" fill="#6C74D8"/>
<path d="M30.6466 14.2669L22.1309 8.66602" stroke="white" stroke-width="1.08966" stroke-linecap="round" stroke-linejoin="round"/>
<path d="M33.5779 11.0032L29.1648 1.81738" stroke="white" stroke-width="1.08966" stroke-linecap="round" stroke-linejoin="round"/>
<path d="M29.5025 18.7071L19.3169 18.2903" stroke="white" stroke-width="1.08966" stroke-linecap="round" stroke-linejoin="round"/>
<path d="M68.071 23.319C67.1359 22.1467 66.2864 20.9086 65.5294 19.6141C64.3311 24.0415 62.4418 28.2522 59.9313 32.0908C57.5124 35.8285 54.5422 39.179 51.1213 42.0285C52.7201 42.2417 54.2995 42.5805 55.845 43.0419C58.4727 40.5565 60.7988 37.7705 62.7753 34.7414C65.0837 31.2101 66.8675 27.3625 68.071 23.319Z" fill="#FAFDFF"/>
</g>
<defs>
<clipPath id="clip0_49_1110">
<rect width="456" height="325" fill="white"/>
</clipPath>
</defs>
</svg>
