<svg width="569" height="399" viewBox="0 0 569 399" fill="none" xmlns="http://www.w3.org/2000/svg">
<path d="M484.412 363.454L350.254 363.693C333.81 363.807 316.341 363.864 298.224 363.864C254.127 363.864 213.819 363.5 182.99 362.897H58.8915C58.8915 340.979 83.0171 350.606 89.3785 354.475C96.7755 358.971 87.2504 335.038 102.352 335.038C115.279 335.038 122.676 341.536 122.676 341.536C122.676 341.536 123.029 328.905 135.285 328.722C147.542 328.54 155.326 339.34 164.999 348.228C168.993 351.892 173.795 354.805 178.336 357.025C209.711 356.364 251.862 355.955 298.224 355.955C320.188 355.955 341.195 356.046 360.575 356.217C395.011 356.217 426.545 338.111 435.49 333.57C457.59 322.327 447.12 349.127 447.12 349.127C447.12 349.127 464.156 341.957 476.139 342.014C493.061 342.083 484.412 363.454 484.412 363.454Z" fill="#D0F0E4"/>
<path d="M414.801 362.794C414.801 362.794 418.192 332.273 396.115 322.452C396.115 322.452 392.86 355.659 403.876 353.485C408.007 352.666 399.142 344.609 384.689 344.268C384.689 344.268 395.762 362.874 409.213 363.136" stroke="#FFCF2D" stroke-width="0.6828" stroke-miterlimit="10"/>
<path d="M409.259 363.09C409.259 363.09 410.533 349.127 424.144 344.78C436.434 340.865 414.926 362.749 414.926 362.749" stroke="#FFCF2D" stroke-width="0.6828" stroke-miterlimit="10"/>
<path d="M103.638 361.816C103.638 361.816 84.1209 348.444 78.6244 326.629C78.6244 326.629 95.8992 331.795 103.228 342.788C103.228 342.788 106.232 317.764 113.493 309.343C113.493 309.343 117.419 314.987 117.908 335.903C117.908 335.903 126.807 320.745 133.43 315.852C133.43 315.852 132.52 335.573 127.786 345.645C127.786 345.645 134.625 340.319 139.246 345.542C143.866 350.766 134.807 358.413 134.807 358.413" stroke="#FE5244" stroke-width="0.569" stroke-miterlimit="10"/>
<path d="M113.504 310.082C113.504 310.082 113.698 355.671 111.626 361.577" stroke="#FE5244" stroke-width="0.569" stroke-miterlimit="10"/>
<path d="M132.793 317.001C132.793 317.001 119.183 351.972 111.626 361.577" stroke="#FE5244" stroke-width="0.569" stroke-miterlimit="10"/>
<path d="M127.581 345.804C127.08 347.636 123.632 352.689 122.949 350.516C122.278 348.342 128.48 344.825 130.039 344.245" stroke="#FE5244" stroke-width="0.569" stroke-miterlimit="10"/>
<path d="M103.239 342.8C104.161 344.575 107.279 349.56 104.127 349.434C102.067 349.355 103.797 338.896 103.797 338.896" stroke="#FE5244" stroke-width="0.569" stroke-miterlimit="10"/>
<path d="M360.53 324.341C352.791 328.13 353.52 335.402 353.451 340.284C353.372 345.485 343.448 348.205 343.448 348.205C346.089 339.886 344.211 331.317 344.211 331.317L360.53 324.341Z" fill="#A0505A"/>
<path d="M368.735 343.493L366.971 344.449L363.272 335.994C363.079 335.55 362.646 335.288 362.203 335.288C362.055 335.288 361.895 335.322 361.747 335.379C361.372 335.539 361.099 335.891 361.053 336.301L359.426 348.557L338.02 360.21C337.383 358.686 341.354 354.862 343.46 348.205C343.46 348.205 353.394 345.485 353.463 340.284C353.531 335.402 352.814 328.119 360.541 324.341L362.168 323.646C371.045 327.732 368.735 343.493 368.735 343.493Z" fill="#FFCF2D"/>
<path d="M362.157 263.606V323.647L344.45 331.328L331.181 271.048C337.121 271.276 347.022 270.024 362.157 263.606Z" fill="white" stroke="#9A3B82" stroke-width="0.569" stroke-miterlimit="10"/>
<path d="M349.138 268.886L352.632 327.755" stroke="#9A3B82" stroke-width="0.569" stroke-miterlimit="10"/>
<path d="M362.157 263.606V279.322L332.023 274.963L331.181 271.048C337.121 271.276 347.022 270.024 362.157 263.606Z" fill="#9A3B82"/>
<path d="M451.399 222.865L439.951 225.278C439.564 225.357 439.177 225.232 438.904 224.948C438.71 224.731 438.608 224.47 438.608 224.197C438.608 223.901 438.722 223.605 438.961 223.389L445.334 217.414L443.922 216.151C443.922 216.151 429.128 219.053 428.286 228.282L429.413 229.511C435.228 235.224 441.498 232.276 445.88 230.797C450.068 229.386 455.063 235.884 456.053 237.227C456.065 237.227 456.088 237.227 456.099 237.227C462.699 237.01 467.377 239.355 468.526 238.296L451.399 222.865Z" fill="#FFCF2D"/>
<path d="M429.424 229.511C435.239 235.224 441.51 232.276 445.891 230.797C450.557 229.226 456.122 237.226 456.122 237.226C447.86 237.488 440.816 241.869 440.816 241.869L429.424 229.511Z" fill="#A0505A"/>
<path d="M358.732 264.118C358.732 264.118 361.611 283.566 383.699 283.202C405.788 282.838 440.577 241.756 440.577 241.756L428.343 228.35L358.732 264.118Z" fill="white" stroke="#9A3B82" stroke-width="0.569" stroke-miterlimit="10"/>
<path d="M371.466 258.837C372.194 263.958 375.631 268.783 386.112 268.613C401.68 268.362 423.677 247.935 435.308 235.895" stroke="#9A3B82" stroke-width="0.569" stroke-miterlimit="10"/>
<path d="M455.143 188.68C453.129 187.918 448.338 190.535 444.73 195.087C440.85 199.969 439.279 205.158 440.986 206.513L386.328 177.448C383.642 176.026 380.547 178.461 381.31 181.397L397.856 244.078C341.81 280.448 323.841 269.546 323.841 269.546V63.5684C323.841 63.5798 323.841 63.5798 323.852 63.5912C324.33 64.8088 329.462 63.9554 335.323 61.668C340.717 59.5741 344.837 57.0022 345.098 55.6593L345.11 55.6479V120.548C345.11 124.622 347.306 128.366 350.857 130.358L455.143 188.68Z" fill="#FE5244"/>
<path d="M455.143 188.68C453.129 187.918 448.338 190.535 444.73 195.087C440.85 199.969 439.279 205.158 440.986 206.513L386.328 177.448C383.642 176.026 380.547 178.461 381.31 181.397L397.856 244.328C383.608 253.58 371.819 259.521 362.157 263.617C347.022 270.024 337.121 271.288 331.181 271.06C326.003 270.867 323.841 269.546 323.841 269.546V63.5684C323.841 63.5798 323.841 63.5798 323.852 63.5912C324.33 64.8088 329.462 63.9554 335.323 61.668C340.717 59.5741 344.837 57.0022 345.098 55.6593L345.11 55.6479V120.548C345.11 124.622 347.306 128.366 350.857 130.358L455.143 188.68Z" fill="#FE5244"/>
<path d="M376.746 172.396L440.986 207.241" stroke="white" stroke-width="0.6828" stroke-miterlimit="10" stroke-linecap="round"/>
<path d="M352.382 131.2L345.178 173.067L381.947 147.746L352.382 131.2Z" fill="#FFCF2D"/>
<path d="M352.382 131.2L345.178 173.067L381.947 147.746" stroke="white" stroke-width="0.6828" stroke-miterlimit="10" stroke-linecap="round"/>
<path d="M352.086 50.3904L304.62 60.1203C302.867 60.4845 301.058 58.9254 300.591 56.6381C300.125 54.3507 301.172 52.2112 302.924 51.8471L350.39 42.1172L352.086 50.3904Z" fill="white" stroke="#3FB1B5" stroke-width="0.569" stroke-miterlimit="10" stroke-linecap="round"/>
<path d="M352.069 50.3973C353.824 50.0376 354.866 47.8944 354.398 45.6102C353.93 43.326 352.128 41.7659 350.373 42.1256C348.619 42.4853 347.576 44.6285 348.044 46.9127C348.512 49.1969 350.314 50.757 352.069 50.3973Z" fill="white" stroke="#3FB1B5" stroke-width="0.569" stroke-miterlimit="10" stroke-linecap="round"/>
<path d="M325.001 54.5328C325.001 54.5328 309.65 71.7849 311.323 75.5858C313.508 77.7594 315.283 78.7153 315.021 79.5233C314.737 80.3995 311.061 85.6912 311.061 85.6912L310.697 81.7651L307.18 82.9259C307.18 82.9259 310.89 77.509 311.129 75.8475C309.604 74.6868 306.497 72.2742 306.6 70.59C306.714 68.8033 312.153 62.4533 316.102 58.072L310.15 60.0407L308.978 54.5442L319.687 52.5754L325.001 54.5328Z" fill="#FE5244"/>
<path d="M322.919 55.2839C324.704 55.2839 326.151 53.8369 326.151 52.052C326.151 50.267 324.704 48.8201 322.919 48.8201C321.134 48.8201 319.687 50.267 319.687 52.052C319.687 53.8369 321.134 55.2839 322.919 55.2839Z" fill="white" stroke="#FE5244" stroke-width="0.569" stroke-miterlimit="10"/>
<path d="M345.098 55.6593C344.837 57.0021 340.717 59.574 335.323 61.6679C329.462 63.9439 324.33 64.8088 323.852 63.5911C323.852 63.5798 323.852 63.5798 323.841 63.5684C323.431 62.3393 327.778 59.5285 333.605 57.2639C339.465 54.9879 344.598 54.123 345.076 55.3406C345.11 55.4317 345.121 55.5341 345.098 55.6593Z" fill="#9A3B82"/>
<path d="M341.15 46.1L340.524 55.1357L340.228 59.4601C338.805 60.2112 337.132 60.9623 335.323 61.6679C332.25 62.8628 329.383 63.6594 327.277 63.9894V55.7275L335.915 53.9522C335.915 53.9522 336.393 50.8682 337.303 48.285C338.202 45.6903 341.15 46.1 341.15 46.1Z" fill="#A0505A"/>
<path d="M336.154 53.5767C336.029 54.0888 332.273 55.2837 332.273 58.0149" stroke="#73325A" stroke-width="0.4552" stroke-miterlimit="10" stroke-linecap="round"/>
<path d="M340.524 55.1357L340.228 59.4601C338.805 60.2112 337.132 60.9623 335.323 61.6679C332.25 62.8628 329.383 63.6594 327.277 63.9894V60.2567C328.962 59.2667 331.158 58.2197 333.605 57.2638C336.154 56.2624 338.566 55.534 340.524 55.1357Z" fill="#73325A"/>
<path d="M334.868 50.6178L325.229 52.8255C324.717 52.9393 324.239 52.5297 324.239 51.9607V46.1113C324.239 45.3261 324.717 44.6433 325.411 44.4157L334.936 41.309C335.539 41.1155 336.142 41.5935 336.142 42.2649V48.9336C336.131 49.7416 335.608 50.4471 334.868 50.6178Z" fill="#A0505A"/>
<path d="M327.653 51.9151C327.129 52.0289 326.629 51.6306 326.629 51.0844V45.474C326.629 44.7229 327.118 44.0629 327.835 43.8467" stroke="#73325A" stroke-width="0.4552" stroke-miterlimit="10" stroke-linecap="round"/>
<path d="M330.43 51.3118C329.906 51.4256 329.405 51.0159 329.405 50.4583V44.6773C329.405 43.9034 329.895 43.2206 330.612 43.0044" stroke="#73325A" stroke-width="0.4552" stroke-miterlimit="10" stroke-linecap="round"/>
<path d="M333.536 50.6517C333.013 50.7655 332.512 50.3445 332.512 49.7755V43.7896C332.512 42.993 333.002 42.2874 333.718 42.0598" stroke="#73325A" stroke-width="0.4552" stroke-miterlimit="10" stroke-linecap="round"/>
<path d="M450.91 199.992C447.029 204.885 442.682 207.855 440.975 206.501C439.268 205.147 440.838 199.969 444.719 195.076C448.338 190.524 453.117 187.906 455.132 188.669L455.53 188.896C457.248 190.262 454.79 195.11 450.91 199.992Z" fill="#9A3B82"/>
<path d="M468.469 208.22L465.886 209.585C464.862 210.132 463.587 209.745 463.041 208.721L460.321 203.668L456.201 202.257C456.657 202.427 458.432 203.338 457.874 206.649L448.201 203.042L444.878 201.802L441.726 199.787C442.466 198.285 443.479 196.669 444.742 195.087C445.8 193.756 446.949 192.595 448.099 191.639L451.388 193.938L454.756 194.302L460.23 194.882C461.106 194.974 461.948 195.269 462.688 195.736L467.058 198.843C467.695 199.298 468.116 199.981 468.219 200.755L469.106 206.968C469.186 207.48 468.924 207.981 468.469 208.22Z" fill="#A0505A"/>
<path d="M462.108 198.103L465.897 200.8C466.443 201.187 466.808 201.79 466.91 202.462L467.684 207.48C467.741 207.924 467.525 208.356 467.126 208.561" stroke="#73325A" stroke-width="0.4552" stroke-miterlimit="10" stroke-linecap="round"/>
<path d="M459.763 199.002L463.553 201.699C464.099 202.086 464.463 202.689 464.566 203.36L465.34 208.379C465.397 208.823 465.18 209.255 464.782 209.46" stroke="#73325A" stroke-width="0.4552" stroke-miterlimit="10" stroke-linecap="round"/>
<path d="M456.201 202.245L453.448 201.312" stroke="#73325A" stroke-width="0.4552" stroke-miterlimit="10" stroke-linecap="round"/>
<path d="M454.756 194.302C453.834 196.043 452.492 198.023 450.921 200.003C450.022 201.13 449.112 202.154 448.201 203.042L444.878 201.802L441.726 199.787C442.466 198.285 443.479 196.669 444.742 195.087C445.8 193.756 446.949 192.595 448.099 191.639L451.388 193.938L454.756 194.302Z" fill="#73325A"/>
<path d="M355.386 100.815L379.728 111.615L388.411 137.015L370.772 124.406L362.544 114.357L355.386 100.815Z" fill="#FE5244"/>
<path d="M362.544 114.357C362.544 114.357 370.51 115.723 373.719 124.599L375.415 122.892C375.415 122.892 372.331 114.255 364.183 112.036L362.544 114.357Z" fill="#9A3B82"/>
<path d="M410.021 125.385C407.29 123.837 404.764 122.983 403.956 123.291C404.013 123.154 404.047 122.995 404.035 122.835C403.99 122.335 403.58 121.959 403.091 121.959C403.068 121.959 403.045 121.959 403.011 121.959C402.488 122.005 402.101 122.46 402.135 122.983C402.135 123.018 402.146 123.052 402.146 123.074L399.256 124.929C398.607 125.35 397.811 125.373 397.128 124.998C396.445 124.622 396.047 123.939 396.047 123.166V119.012C396.047 117.202 395.148 115.53 393.634 114.528C392.121 113.527 390.22 113.367 388.559 114.073L383.051 116.531L380.957 110.397L356.49 99.552C356.342 99.4837 356.16 99.552 356.092 99.7113C356.023 99.8593 356.092 100.041 356.251 100.11L380.468 110.852L389.105 136.127C389.15 136.252 389.264 136.332 389.389 136.332C389.424 136.332 389.458 136.321 389.492 136.321C389.651 136.264 389.731 136.093 389.685 135.934L383.256 117.111L388.809 114.63C390.288 113.993 391.973 114.141 393.304 115.029C394.647 115.916 395.444 117.396 395.444 119.012V123.166C395.444 124.167 395.967 125.055 396.843 125.533C397.253 125.76 397.697 125.874 398.141 125.874C398.641 125.874 399.142 125.726 399.586 125.442L402.454 123.609C402.624 123.769 402.852 123.86 403.091 123.86C403.114 123.86 403.148 123.86 403.171 123.86C403.375 123.848 403.558 123.769 403.694 123.643C403.694 124.451 405.765 126.261 408.61 127.877C409.225 128.23 409.839 128.548 410.42 128.821C410.772 128.525 411.068 128.173 411.307 127.752C411.546 127.342 411.694 126.898 411.763 126.443C411.216 126.102 410.636 125.737 410.021 125.385ZM403.114 123.382C402.852 123.404 402.636 123.211 402.613 122.961C402.59 122.71 402.784 122.483 403.034 122.46C403.284 122.437 403.512 122.631 403.535 122.881C403.558 123.131 403.364 123.359 403.114 123.382Z" fill="#FFCF2D"/>
<path d="M360.962 129.322L356.752 152.742L371.102 141.681V127.08L360.962 129.322Z" fill="#A0505A"/>
<path d="M360.962 129.322L360.439 132.258L366.789 145.003L371.102 141.68V127.08L360.962 129.322Z" fill="#73325A"/>
<path d="M362.783 114.596C362.783 114.596 355.602 112.81 353.36 116.975C351.118 121.14 357.673 122.289 357.946 120.833C358.072 120.195 346.145 120.207 348.148 129.231C350.231 138.631 359.619 135.399 359.619 135.399L360.712 129.322L362.783 114.596Z" fill="white" stroke="#9A3B82" stroke-width="0.4552" stroke-miterlimit="10"/>
<path d="M370.988 128.071C370.988 128.071 360.268 142.045 369.691 147.986C377.247 152.742 379.193 146.04 377.167 145.118C374.971 144.116 369.93 163.007 385.452 162.95C401.008 162.893 396.252 143.468 388.411 137.027C384.667 133.954 372.171 125.362 372.171 125.362L370.988 128.071Z" fill="white" stroke="#9A3B82" stroke-width="0.4552" stroke-miterlimit="10"/>
<path d="M370.669 124.565L371.477 125.077C372.263 125.578 372.49 126.613 372.001 127.399L371.841 127.638C371.341 128.423 370.305 128.662 369.52 128.161L368.655 127.615C367.699 128.298 361.952 132.133 358.402 128.32C354.954 124.622 362.92 113.8 362.92 113.8C369.679 115.916 372.319 121.925 372.319 121.925L370.669 124.565Z" fill="#A0505A"/>
<path d="M360.7 116.258C360.7 116.258 362.567 116.952 362.385 118.557C362.203 120.161 360.518 122.688 360.917 123.12C361.315 123.553 361.85 123.632 361.85 123.632" stroke="#73325A" stroke-width="0.4552" stroke-miterlimit="10" stroke-linecap="round"/>
<path d="M360.245 124.6C360.245 124.6 361.634 125.373 363.523 125.078" stroke="#73325A" stroke-width="0.4552" stroke-miterlimit="10" stroke-linecap="round"/>
<path d="M366.196 122.322C366.358 121.899 366.303 121.486 366.073 121.398C365.844 121.311 365.528 121.583 365.367 122.006C365.206 122.429 365.261 122.842 365.49 122.93C365.719 123.017 366.035 122.745 366.196 122.322Z" fill="#73325A"/>
<path d="M360.942 119.912C361.076 119.559 361.028 119.214 360.834 119.14C360.64 119.066 360.374 119.292 360.24 119.644C360.106 119.997 360.154 120.342 360.348 120.416C360.542 120.49 360.808 120.264 360.942 119.912Z" fill="#73325A"/>
<path d="M370.078 126.523C370.396 126.022 371.056 125.874 371.557 126.193" stroke="#73325A" stroke-width="0.4552" stroke-miterlimit="10" stroke-linecap="round"/>
<path d="M365.878 119.319C365.878 119.319 367.267 119.695 367.984 121.345" stroke="#73325A" stroke-width="0.4552" stroke-miterlimit="10" stroke-linecap="round"/>
<path d="M367.949 116.554C367.949 116.554 366.436 121.572 370.772 124.998C373.321 127.012 373.469 124.588 373.469 124.588C373.469 124.588 373.139 119.66 367.949 116.554Z" fill="white" stroke="#9A3B82" stroke-width="0.4552" stroke-miterlimit="10"/>
<path d="M267.419 245.159C266.224 240.8 246.491 244.886 224.755 252.795C203.964 260.363 187.064 270.57 186.882 274.679L175.48 191.502C175.309 190.33 174.308 189.465 173.124 189.465C172.464 189.465 171.872 189.727 171.44 190.159C171.007 190.592 170.746 191.184 170.746 191.844V262.878C170.609 260.932 165.59 259.373 159.422 259.373C153.255 259.373 148.247 260.932 148.099 262.878V183.058C148.099 176.321 151.627 170.085 157.385 166.603L164.862 162.085L195.656 143.49L224.3 126.056V96.2971C224.3 97.5717 229.569 98.5959 235.782 98.5959C241.984 98.5959 247.265 97.5831 247.265 96.2971V128.559C247.265 135.706 243.771 142.454 238.195 146.915L220.772 159.365C217.802 161.482 217.085 165.601 219.156 168.606C230.707 185.323 266.201 234.109 267.407 244.84C267.419 244.943 267.419 245.056 267.419 245.159Z" fill="#3FB1B5"/>
<path d="M223.958 123.507V132.269" stroke="white" stroke-width="0.6828" stroke-miterlimit="10" stroke-linecap="round"/>
<path d="M164.885 162.085L202.86 187.485L195.679 143.49L187.451 148.361L189.386 166.398L173.067 156.964L164.885 162.085Z" stroke="white" stroke-width="0.6828" stroke-miterlimit="10" stroke-linecap="round"/>
<path d="M266.201 246.251C264.835 242.485 246.741 246.832 224.994 254.741C203.247 262.65 186.552 272.653 187.929 276.42C189.295 280.186 208.22 276.295 229.967 268.385C251.714 260.476 267.578 250.018 266.201 246.251Z" stroke="#3FB1B5" stroke-width="0.569" stroke-miterlimit="10" stroke-linecap="round"/>
<path d="M216.675 324.831L215.423 327.016L214.035 329.451C202.029 330.953 199.912 323.101 199.912 323.101L201.722 319.505C206.57 322.487 212.715 324.068 216.675 324.831Z" fill="#E57281"/>
<path d="M259.919 267.692C251.384 282.406 220.692 325.468 220.692 325.468C220.692 325.468 219.088 325.298 216.675 324.831C212.715 324.057 206.57 322.487 201.71 319.505C200.584 318.811 199.537 318.049 198.592 317.195L220.84 272.016L226.462 260.17L229.58 253.592C229.956 253.456 230.331 253.33 230.695 253.205C230.877 253.137 231.059 253.08 231.253 253.012C231.811 252.818 232.357 252.636 232.903 252.454C233.358 252.306 233.802 252.158 234.246 251.999C235.6 251.544 236.931 251.123 238.229 250.713C246.946 247.959 254.4 246.104 259.43 245.535C260.545 247.094 261.82 249.336 262.548 252.147C263.606 256.255 263.481 261.558 259.919 267.692Z" fill="white" stroke="#9A3B82" stroke-width="0.569" stroke-miterlimit="10"/>
<path d="M222.661 358.414C222.274 360.109 220.169 360.712 218.94 359.483L191.434 332.069L200.037 323.09C200.037 323.09 202.029 330.931 214.046 329.44C223.753 344.098 223.731 353.691 222.661 358.414Z" fill="white" stroke="#FE5244" stroke-width="0.569" stroke-miterlimit="10"/>
<path d="M221.534 360.143C219.668 360.86 217.563 360.485 216.049 359.153L201.688 346.533C201.335 346.214 201.289 345.679 201.585 345.304C201.87 344.951 201.847 344.428 201.517 344.109L200.345 342.971C200.026 342.652 199.514 342.641 199.173 342.937L198.9 343.164C198.57 343.449 198.092 343.449 197.773 343.164L190.057 336.462C189.056 335.597 189.022 334.049 189.966 333.127L191.309 331.83L218.985 359.768C219.782 360.564 220.931 360.598 221.751 360.064L221.534 360.143Z" fill="#FE5244"/>
<path d="M217.79 333.104C217.79 333.104 220.123 335.176 214.547 337.691" stroke="#FE5244" stroke-width="0.569" stroke-miterlimit="10" stroke-linecap="round"/>
<path d="M219.258 335.597C219.258 335.597 221.591 337.668 216.015 340.183" stroke="#FE5244" stroke-width="0.569" stroke-miterlimit="10" stroke-linecap="round"/>
<path d="M220.726 338.089C220.726 338.089 223.059 340.16 217.483 342.675" stroke="#FE5244" stroke-width="0.569" stroke-miterlimit="10" stroke-linecap="round"/>
<path d="M262.548 252.147C255.151 252.136 247.572 253.421 240.266 255.447C239.685 253.399 238.866 251.771 238.229 250.713C246.946 247.959 254.4 246.104 259.43 245.535C260.556 247.106 261.831 249.347 262.548 252.147Z" fill="#9A3B82"/>
<path d="M185.414 323.681L183.218 326.492L181.488 328.7C169.391 328.461 168.424 320.392 168.424 320.392L171.053 316.626C175.616 320.29 181.784 322.566 185.414 323.681Z" fill="#E57281"/>
<path d="M240.516 264.653C239.856 267.464 238.445 270.491 235.85 273.609C225.199 286.434 188.419 324.512 188.419 324.512C188.419 324.512 174.057 321.28 167.923 313.542L192.686 278.366L201.824 265.381C208.129 262.024 216.14 258.462 224.994 255.231C229.614 253.546 234.064 252.033 238.229 250.713C238.855 251.771 239.686 253.41 240.266 255.447C240.994 257.973 241.347 261.137 240.516 264.653Z" fill="white" stroke="#9A3B82" stroke-width="0.569" stroke-miterlimit="10"/>
<path d="M185.858 358.606C185.232 360.233 183.07 360.529 182.023 359.13L158.728 328.051L168.526 320.392C168.526 320.392 169.368 328.461 181.477 328.699C188.999 344.597 187.599 354.088 185.858 358.606Z" fill="white" stroke="#FE5244" stroke-width="0.569" stroke-miterlimit="10"/>
<path d="M184.504 360.063C182.558 360.507 180.521 359.824 179.224 358.31L166.819 343.79C166.512 343.425 166.546 342.89 166.888 342.56C167.229 342.253 167.263 341.73 166.99 341.366L165.989 340.08C165.716 339.727 165.215 339.636 164.828 339.875L164.532 340.068C164.168 340.296 163.701 340.228 163.417 339.909L156.703 332.205C155.838 331.203 156.02 329.678 157.089 328.904L158.603 327.812L182.012 359.323C182.683 360.222 183.821 360.416 184.709 360.017L184.504 360.063Z" fill="#FE5244"/>
<path d="M184.914 332.933C184.914 332.933 186.928 335.311 181.044 337.007" stroke="#FE5244" stroke-width="0.569" stroke-miterlimit="10" stroke-linecap="round"/>
<path d="M186.245 335.607C186.245 335.607 188.259 337.986 182.376 339.681" stroke="#FE5244" stroke-width="0.569" stroke-miterlimit="10" stroke-linecap="round"/>
<path d="M187.337 338.281C187.337 338.281 189.352 340.66 183.468 342.356" stroke="#FE5244" stroke-width="0.569" stroke-miterlimit="10" stroke-linecap="round"/>
<path d="M240.277 255.447C235.52 256.767 230.877 258.394 226.473 260.158C207.457 267.817 192.88 278.218 192.698 278.343L201.836 265.359C208.14 262.002 216.152 258.44 225.005 255.208C226.553 254.65 228.078 254.104 229.591 253.569C229.967 253.433 230.343 253.307 230.707 253.182C230.889 253.114 231.071 253.057 231.264 252.989C231.822 252.795 232.368 252.613 232.914 252.431C233.37 252.283 233.813 252.135 234.257 251.976C235.611 251.521 236.943 251.1 238.24 250.69C238.866 251.782 239.686 253.41 240.277 255.447Z" fill="#9A3B82"/>
<path d="M170.495 264.414C170.495 266.394 165.545 268.01 159.434 268.01C153.323 268.01 148.372 266.406 148.372 264.414C148.372 264.391 148.372 264.357 148.372 264.334C148.509 262.388 153.414 260.829 159.434 260.829C165.454 260.829 170.359 262.388 170.495 264.334C170.495 264.357 170.495 264.391 170.495 264.414Z" fill="white" stroke="#3FB1B5" stroke-width="0.569" stroke-miterlimit="10" stroke-linecap="round"/>
<path d="M166.034 261.74V271.083C166.034 274.11 164.361 276.875 161.698 278.298L157.158 280.71C156.054 281.302 154.814 281.609 153.562 281.609C153.027 281.609 152.663 281.165 152.663 280.699C152.663 280.505 152.731 280.301 152.868 280.13L154.563 278.081C154.802 277.797 154.597 277.376 154.233 277.376H144.253L142.432 279.675C141.465 280.892 139.985 281.609 138.438 281.609H137.914C137.266 281.609 136.867 280.915 137.186 280.357L137.391 279.982C136.765 280.244 136.082 280.392 135.388 280.392H134.864C134.216 280.392 133.817 279.697 134.136 279.14L138.221 274.633L141.055 273.518V273.529L155.132 267.999V261.353C156.464 261.182 157.909 261.08 159.434 261.08C161.903 261.068 164.179 261.319 166.034 261.74Z" fill="#E57281"/>
<path d="M140.691 273.996L137.277 279.857" stroke="#9A3B82" stroke-width="0.4552" stroke-miterlimit="10" stroke-linecap="round"/>
<path d="M153.698 279.106L155.792 276.545C156.202 276.044 155.849 275.305 155.2 275.305" stroke="#9A3B82" stroke-width="0.4552" stroke-miterlimit="10" stroke-linecap="round"/>
<path d="M166.034 261.74V267.578C164.179 267.999 161.903 268.249 159.434 268.249C157.909 268.249 156.464 268.158 155.132 267.976V261.33C156.464 261.159 157.909 261.057 159.434 261.057C161.892 261.068 164.179 261.319 166.034 261.74Z" fill="#9A3B82"/>
<path d="M247.026 95.0794C247.026 96.3653 241.996 97.3781 235.794 97.3781C229.591 97.3781 224.562 96.3653 224.562 95.0794C224.562 93.7934 229.591 92.7351 235.794 92.7351C241.996 92.7351 247.026 93.8048 247.026 95.0794Z" stroke="#3FB1B5" stroke-width="0.569" stroke-miterlimit="10" stroke-linecap="round"/>
<path d="M232.368 96.9571C230.98 96.8661 229.717 96.7295 228.624 96.536V85.4861C228.624 85.1219 228.704 84.7577 228.863 84.4277L232.436 77.0535C233.096 75.6879 234.485 74.823 235.998 74.823H240.38L230.798 92.4506C230.752 92.5303 230.718 92.6099 230.684 92.6896C230.126 94.0666 230.82 95.8305 232.368 96.9571Z" fill="#E57281"/>
<path d="M240.607 92.4847L242.018 90.0266V96.6953C240.858 96.8432 239.549 96.9684 238.149 97.0253L240.607 92.4847Z" fill="#9A3B82"/>
<path d="M261.251 53.8949L237.922 96.8203C237.057 98.4135 234.69 98.789 232.619 97.6624C230.547 96.5358 229.58 94.3395 230.445 92.7576L253.774 49.8323L261.251 53.8949Z" fill="white" stroke="#FE5244" stroke-width="0.569" stroke-miterlimit="10"/>
<path d="M261.242 53.9106C262.107 52.3203 261.133 50.1212 259.068 48.9988C257.003 47.8763 254.628 48.2557 253.763 49.846C252.899 51.4364 253.873 53.6355 255.938 54.7579C258.003 55.8803 260.378 55.501 261.242 53.9106Z" fill="white" stroke="#FE5244" stroke-width="0.569" stroke-miterlimit="10"/>
<path d="M246.957 69.6448L257.985 60.5181L257.814 63.841L261.342 64.7173L252.921 69.918C259.384 68.5296 270.992 66.5722 272.756 69.9862C273.45 71.3291 272.141 74.0716 271.265 76.0404C270.719 80.1941 292.5 75.0503 292.751 74.9934L289.393 78.1002L292.751 80.012C292.751 80.012 274.474 83.4943 269.763 82.5384C267.1 81.9921 269.217 78.4188 271.072 75.8014C271.641 73.7871 267.111 73.1271 248.277 75.1755L246.957 69.6448Z" fill="#FE5244"/>
<path d="M247.117 75.13C248.914 75.13 250.371 73.6728 250.371 71.8753C250.371 70.0778 248.914 68.6206 247.117 68.6206C245.319 68.6206 243.862 70.0778 243.862 71.8753C243.862 73.6728 245.319 75.13 247.117 75.13Z" fill="white" stroke="#FE5244" stroke-width="0.569" stroke-miterlimit="10"/>
<path d="M249.666 82.7774L248.619 85.2355L247.39 88.1033L246.73 89.6623L245.717 92.0407C245.694 92.109 245.66 92.1659 245.626 92.2342C245.626 92.2342 245.626 92.2456 245.615 92.2456C245.285 92.8032 244.659 93.156 243.976 93.156H235.942C234.974 93.156 234.303 92.2342 234.667 91.3807L235.247 90.0151L236.533 86.9994L237.637 84.4048L238.604 82.1174C238.889 81.446 239.583 81.0135 240.346 81.0135H248.38C249.37 81.0022 250.03 81.9239 249.666 82.7774Z" fill="#E57281"/>
<path d="M237.922 84.3935C238.252 84.018 238.741 83.8018 239.265 83.8018H246.935C247.743 83.8018 248.323 84.4959 248.243 85.2356" stroke="#9A3B82" stroke-width="0.4552" stroke-miterlimit="10" stroke-linecap="round"/>
<path d="M236.875 86.9996C237.205 86.6695 237.66 86.4761 238.149 86.4761H245.819C246.696 86.4761 247.31 87.2954 247.083 88.1034" stroke="#9A3B82" stroke-width="0.4552" stroke-miterlimit="10" stroke-linecap="round"/>
<path d="M235.668 90.0037C235.998 89.6965 236.442 89.5144 236.909 89.5144H244.579C245.489 89.5144 246.115 90.3907 245.819 91.2214" stroke="#9A3B82" stroke-width="0.4552" stroke-miterlimit="10" stroke-linecap="round"/>
<path d="M244.784 74.8115V75.0164C244.784 77.0989 243.1 78.7945 241.006 78.7945H237.045V74.8115H244.784Z" fill="#E57281"/>
<path d="M148.611 163.838C148.247 164.384 147.872 164.896 147.496 165.363C147.086 165.26 146.688 165.09 146.324 164.839C145.96 164.589 145.653 164.293 145.402 163.94C145.698 163.428 146.028 162.882 146.404 162.336C148.247 159.604 150.227 157.727 150.842 158.136C151.456 158.546 150.455 161.107 148.611 163.838Z" fill="#FFCF2D"/>
<path d="M165.385 122.836L151.172 143.82C151.001 144.071 151.24 144.378 151.525 144.298L158.318 142.113C157.488 143.103 156.976 144.389 156.976 145.778V152.39C156.976 154.973 154.916 157.078 152.344 157.146C152.185 156.851 151.866 156.646 151.49 156.646C151.229 156.646 150.99 156.748 150.808 156.93C150.626 157.112 150.523 157.351 150.535 157.613C150.535 158.136 150.967 158.569 151.502 158.569C151.98 158.569 152.378 158.205 152.446 157.75C155.291 157.624 157.579 155.269 157.579 152.39V145.778C157.579 144.116 158.398 142.603 159.627 141.692L173.295 137.3L190.843 122.836H165.385ZM151.752 157.841C151.684 157.909 151.593 157.943 151.502 157.943C151.411 157.943 151.32 157.909 151.251 157.841C151.183 157.772 151.149 157.681 151.149 157.59C151.149 157.499 151.183 157.408 151.251 157.34C151.32 157.272 151.411 157.237 151.502 157.237C151.604 157.237 151.684 157.272 151.752 157.34C151.82 157.408 151.855 157.488 151.855 157.59C151.866 157.693 151.82 157.772 151.752 157.841Z" fill="#3FB1B5"/>
<path d="M149.931 143.775C149.875 143.775 149.818 143.764 149.761 143.718C149.624 143.627 149.59 143.433 149.681 143.297L164.498 121.425H191.332C191.503 121.425 191.639 121.561 191.639 121.732C191.639 121.903 191.503 122.039 191.332 122.039H164.816L150.182 143.638C150.125 143.729 150.034 143.775 149.931 143.775Z" fill="#3FB1B5"/>
<path d="M164.908 140.247L163.201 139.473L163.292 139.211C163.326 139.109 164.156 136.696 166.205 134.136C168.105 131.757 171.44 128.833 176.572 128.332L176.868 128.309L177.164 130.46L176.561 130.54L176.344 128.969C171.588 129.516 168.469 132.27 166.683 134.511C165.078 136.514 164.236 138.472 163.974 139.154L165.169 139.701L164.908 140.247Z" fill="white"/>
<path d="M173.556 156.839L170.108 145.573L178.177 141.624L181.5 144.15L187.212 148.486L188.942 165.715L173.556 156.839Z" fill="#E57281"/>
<path d="M181.5 144.15L175.343 157.875L173.556 156.839L170.108 145.573L178.177 141.624L181.5 144.15Z" fill="#9A3B82"/>
<path d="M174.66 146.312C174.08 146.369 172.908 145.778 171.576 144.936L170.017 146.199C169.118 146.927 167.798 146.802 167.07 145.903C166.751 145.516 166.592 145.038 166.592 144.571C166.592 143.968 166.854 143.365 167.366 142.944L168.003 142.421C166.33 141.169 165.021 140.088 165.021 140.088C165.021 140.088 167.923 131.371 177.198 130.483C177.198 130.483 182.114 140.645 182.444 141.613C182.774 142.591 177.938 145.982 174.66 146.312Z" fill="#E57281"/>
<path d="M168.003 142.421C166.33 141.169 165.021 140.088 165.021 140.088C165.021 140.088 166.091 136.867 169.027 134.136C165.955 137.197 170.541 140.611 168.003 142.421Z" fill="#FFCF2D"/>
<path d="M169.619 136.549C169.619 136.549 170.108 135.228 171.349 134.546" stroke="#9A3B82" stroke-width="0.4552" stroke-miterlimit="10" stroke-linecap="round"/>
<path d="M178.495 133.203C178.495 133.203 176.777 132.964 175.923 133.487C175.07 134.011 175.07 136.719 176.436 138.415" stroke="#9A3B82" stroke-width="0.4552" stroke-miterlimit="10" stroke-linecap="round"/>
<path d="M177.255 140.11C177.255 140.11 176.197 141.055 174.399 140.361" stroke="#9A3B82" stroke-width="0.4552" stroke-miterlimit="10" stroke-linecap="round"/>
<path d="M174.569 139.86C174.569 139.86 174.194 140.395 174.216 140.998" stroke="#9A3B82" stroke-width="0.4552" stroke-miterlimit="10" stroke-linecap="round"/>
<path d="M172.344 138.252C172.526 138.203 172.595 137.873 172.499 137.515C172.403 137.156 172.177 136.906 171.995 136.955C171.813 137.004 171.744 137.334 171.84 137.692C171.936 138.05 172.161 138.3 172.344 138.252Z" fill="#9A3B82"/>
<path d="M177.431 136.024C177.595 135.98 177.655 135.674 177.565 135.34C177.476 135.006 177.27 134.771 177.106 134.815C176.943 134.859 176.882 135.166 176.972 135.5C177.062 135.833 177.267 136.068 177.431 136.024Z" fill="#9A3B82"/>
<path d="M172.168 145.618L169.539 143.57C169.243 143.342 168.834 143.365 168.561 143.616L168.401 143.763C168.094 144.059 168.094 144.537 168.401 144.833" stroke="#9A3B82" stroke-width="0.4552" stroke-miterlimit="10" stroke-linecap="round"/>
</svg>
