<svg width="576" height="404" viewBox="0 0 576 404" fill="none" xmlns="http://www.w3.org/2000/svg">
<path d="M351.959 59.7891L374.757 81.7923L397.67 205.828H182.742L351.959 59.7891Z" fill="#FFCF2D"/>
<path d="M374.953 81.6195L352.086 59.5472L355.91 55.5728C361.544 49.7207 371.693 50.3888 377.545 56.0106C383.397 61.6439 384.422 71.793 378.789 77.6451L374.953 81.6195Z" fill="white" stroke="#FFCF2D" stroke-width="0.6912" stroke-miterlimit="10" stroke-linecap="round"/>
<path d="M378.778 77.6451L355.899 55.5728" stroke="#FFCF2D" stroke-width="0.6912" stroke-miterlimit="10" stroke-linecap="round"/>
<path d="M378.801 57.013L381.358 55.0546C384.791 52.428 389.722 53.1192 392.291 56.6098L455.144 133.126L422.968 204.884" stroke="#3FB1B5" stroke-width="0.6912" stroke-miterlimit="10" stroke-linecap="round"/>
<path d="M454.119 137.031C456.065 137.031 457.644 135.453 457.644 133.506C457.644 131.559 456.065 129.981 454.119 129.981C452.172 129.981 450.593 131.559 450.593 133.506C450.593 135.453 452.172 137.031 454.119 137.031Z" fill="white" stroke="#FFCF2D" stroke-width="0.6912" stroke-miterlimit="10" stroke-linecap="round"/>
<path d="M414.029 196.866H431.205C436.147 196.866 440.145 200.875 440.145 205.805V206.059H405.078V205.805C405.089 200.875 409.087 196.866 414.029 196.866Z" fill="white" stroke="#FFCF2D" stroke-width="0.6912" stroke-miterlimit="10" stroke-linecap="round"/>
<path d="M330.82 179.896H222.083C217.993 179.896 214.687 176.59 214.687 172.5V96.4454C214.687 92.3558 217.993 89.0496 222.083 89.0496H330.82C334.909 89.0496 338.216 92.3558 338.216 96.4454V172.489C338.227 176.579 334.909 179.896 330.82 179.896Z" fill="white" stroke="#3FB1B5" stroke-width="0.6912" stroke-miterlimit="10" stroke-linecap="round"/>
<path d="M330.889 172.823H223.2C221.599 172.823 220.308 171.521 220.308 169.931V97.1709C220.308 95.5697 221.61 94.2794 223.2 94.2794H330.889C332.49 94.2794 333.78 95.5812 333.78 97.1709V169.92C333.792 171.521 332.49 172.823 330.889 172.823Z" fill="#66B0F0" stroke="#66B0F0" stroke-width="0.6912" stroke-miterlimit="10" stroke-linejoin="round"/>
<path d="M227.059 101.076H225.354C224.801 101.076 224.34 100.627 224.34 100.063V98.3576C224.34 97.8047 224.79 97.3439 225.354 97.3439H227.059C227.612 97.3439 228.073 97.7932 228.073 98.3576V100.063C228.061 100.627 227.612 101.076 227.059 101.076Z" stroke="white" stroke-width="0.6912" stroke-miterlimit="10" stroke-linecap="round"/>
<path d="M234.812 101.076H233.107C232.554 101.076 232.093 100.627 232.093 100.062V98.3575C232.093 97.8045 232.543 97.3438 233.107 97.3438H234.812C235.365 97.3438 235.826 97.793 235.826 98.3575V100.062C235.826 100.627 235.365 101.076 234.812 101.076Z" stroke="white" stroke-width="0.6912" stroke-miterlimit="10" stroke-linecap="round"/>
<path d="M242.565 101.076H240.86C240.307 101.076 239.846 100.627 239.846 100.062V98.3575C239.846 97.8045 240.296 97.3438 240.86 97.3438H242.565C243.118 97.3438 243.579 97.793 243.579 98.3575V100.062C243.579 100.627 243.13 101.076 242.565 101.076Z" stroke="white" stroke-width="0.6912" stroke-miterlimit="10" stroke-linecap="round"/>
<path d="M299.405 205.828H257.196L265.478 179.896H291.11L299.405 205.828Z" fill="white" stroke="#3FB1B5" stroke-width="0.6912" stroke-miterlimit="10" stroke-linecap="round"/>
<path d="M260.513 195.448L265.478 179.896H291.11L260.513 195.448Z" fill="#3FB1B5"/>
<path d="M324.622 118.137H304.105C302.181 118.137 300.626 116.582 300.626 114.658V101.41C300.626 99.4865 302.181 97.9313 304.105 97.9313H324.622C326.546 97.9313 328.101 99.4865 328.101 101.41V114.658C328.101 116.582 326.546 118.137 324.622 118.137Z" stroke="white" stroke-width="0.6912" stroke-miterlimit="10" stroke-linecap="round"/>
<path d="M306.49 102.655H322.145" stroke="white" stroke-width="0.6912" stroke-miterlimit="10" stroke-linecap="round"/>
<path d="M306.49 106.226H322.145" stroke="white" stroke-width="0.6912" stroke-miterlimit="10" stroke-linecap="round"/>
<path d="M306.49 109.797H322.145" stroke="white" stroke-width="0.6912" stroke-miterlimit="10" stroke-linecap="round"/>
<path d="M306.49 113.368H322.145" stroke="white" stroke-width="0.6912" stroke-miterlimit="10" stroke-linecap="round"/>
<path d="M330.29 172.823H248.74L243.959 179.678C238.556 187.419 227.14 187.534 221.587 179.896L192.465 139.841C193.686 141.362 199.273 139.669 204.595 136.167C209.998 132.607 213.489 128.126 212.394 126.467L232.589 152.202L238.775 141.281C240.469 138.39 243.279 136.316 246.551 135.556L267.598 131.098H285.742L305.741 135.51C309.22 136.305 312.169 138.574 313.839 141.719L330.29 172.823Z" fill="white" stroke="#3FB1B5" stroke-width="0.6912" stroke-miterlimit="10"/>
<path d="M307.907 172.351L302.112 160.912" stroke="#3FB1B5" stroke-width="0.6912" stroke-miterlimit="10" stroke-linecap="round"/>
<path d="M248.279 173.422L254.016 162.098" stroke="#3FB1B5" stroke-width="0.6912" stroke-miterlimit="10" stroke-linecap="round"/>
<path d="M224.732 142.215L237.877 159.022" stroke="#3FB1B5" stroke-width="0.6912" stroke-miterlimit="10" stroke-linecap="round"/>
<path d="M278.934 136.628L283.772 142.514L294.601 133.321" stroke="#3FB1B5" stroke-width="0.6912" stroke-miterlimit="10" stroke-linecap="round"/>
<path d="M275.236 136.743L270.536 142.745L258.636 133.321" stroke="#3FB1B5" stroke-width="0.6912" stroke-miterlimit="10" stroke-linecap="round"/>
<path d="M216.403 131.616C217.498 133.287 213.996 137.826 208.558 141.431C203.213 144.98 197.545 146.685 196.312 145.152" stroke="#3FB1B5" stroke-width="0.6912" stroke-miterlimit="10" stroke-linecap="round"/>
<path d="M212.786 134.531C213.505 134.531 214.088 133.948 214.088 133.229C214.088 132.51 213.505 131.927 212.786 131.927C212.067 131.927 211.484 132.51 211.484 133.229C211.484 133.948 212.067 134.531 212.786 134.531Z" stroke="#3FB1B5" stroke-width="0.6912" stroke-miterlimit="10" stroke-linecap="round"/>
<path d="M277.068 142.71C277.787 142.71 278.369 142.127 278.369 141.408C278.369 140.689 277.787 140.106 277.068 140.106C276.349 140.106 275.766 140.689 275.766 141.408C275.766 142.127 276.349 142.71 277.068 142.71Z" stroke="#3FB1B5" stroke-width="0.6912" stroke-miterlimit="10" stroke-linecap="round"/>
<path d="M277.068 153.193C277.787 153.193 278.369 152.61 278.369 151.891C278.369 151.173 277.787 150.59 277.068 150.59C276.349 150.59 275.766 151.173 275.766 151.891C275.766 152.61 276.349 153.193 277.068 153.193Z" stroke="#3FB1B5" stroke-width="0.6912" stroke-miterlimit="10" stroke-linecap="round"/>
<path d="M243.544 180.231L248.74 172.823V180.231H243.544Z" fill="#3FB1B5"/>
<path d="M204.468 135.821C199.146 139.323 193.559 141.016 192.338 139.496C192.315 139.473 192.303 139.45 192.28 139.415C192.027 139.035 192.05 138.517 192.28 137.883C193.075 135.798 196.358 132.572 200.529 129.83C203.846 127.642 207.118 126.121 209.387 125.649C210.701 125.384 211.68 125.464 212.152 125.971L212.267 126.109C213.35 127.768 209.871 132.261 204.468 135.821Z" fill="#FE5244"/>
<path d="M204.469 135.821C201.439 137.814 198.317 139.231 195.967 139.784L185.449 124.946C183.986 122.872 184.47 120.004 186.555 118.541L196.024 111.882L190.656 102.747C189.873 101.422 190.322 99.7057 191.658 98.9338C192.096 98.6804 192.568 98.5652 193.041 98.5652C193.951 98.5652 194.849 99.0145 195.379 99.8439L212.164 125.948L212.279 126.133C213.35 127.768 209.871 132.261 204.469 135.821Z" fill="#E57281"/>
<path d="M196.001 111.986L201.865 121.076C202.406 121.928 202.165 123.057 201.312 123.61L200.01 124.462C199.158 125.027 198.006 124.785 197.453 123.933L191.912 115.638" stroke="#9A3B82" stroke-width="0.6912" stroke-miterlimit="10" stroke-linecap="round"/>
<path d="M197.43 123.909C197.994 124.773 197.741 125.937 196.877 126.49L195.69 127.239C194.838 127.78 193.709 127.538 193.156 126.697" stroke="#9A3B82" stroke-width="0.6912" stroke-miterlimit="10" stroke-linecap="round"/>
<path d="M187.707 118.564L193.133 126.628C193.697 127.492 193.455 128.656 192.568 129.209L191.462 129.819C190.633 130.349 189.539 130.13 188.963 129.324L185.818 124.889" stroke="#9A3B82" stroke-width="0.6912" stroke-miterlimit="10" stroke-linecap="round"/>
<path d="M208.247 119.866L205.494 115.592C204.584 114.175 202.683 113.783 201.289 114.728L194.458 119.359C194.458 119.359 196.439 122.919 201.254 120.096L202.867 122.665C199.573 124.75 198.628 129.14 200.771 132.4L208.247 119.866Z" fill="#E57281"/>
<path d="M207.89 119.981L205.137 115.707C204.227 114.29 202.326 113.898 200.932 114.843L194.458 119.359C194.458 119.359 196.439 122.919 201.254 120.096L202.867 122.665C199.573 124.75 198.628 129.139 200.771 132.4" stroke="#9A3B82" stroke-width="0.6912" stroke-miterlimit="10" stroke-linecap="round"/>
<path d="M204.468 135.821C201.439 137.814 198.317 139.231 195.967 139.784L193.352 136.098C194.815 134.185 197.43 131.881 200.529 129.842C203.846 127.654 207.118 126.133 209.388 125.661C210.701 125.396 211.68 125.476 212.152 125.983L212.268 126.121C212.279 126.145 212.291 126.156 212.302 126.179C212.314 126.191 212.314 126.202 212.325 126.225C212.337 126.248 212.348 126.26 212.36 126.283C213.143 128.045 209.699 132.365 204.468 135.821Z" fill="#9A3B82"/>
<path d="M285.731 120.96V131.086C285.731 134.024 281.652 136.397 276.641 136.397C271.619 136.397 267.552 134.024 267.552 131.086V120.96H285.731Z" fill="#E57281"/>
<path d="M270.213 134.842C268.566 133.886 267.541 132.549 267.541 131.086V120.96H285.731V123.771C285.731 126.686 283.957 129.301 281.261 130.395L270.213 134.842Z" fill="#9A3B82"/>
<path d="M290.799 120.361V120.534C290.799 122.285 289.382 123.702 287.631 123.702H285.546C284.844 126.536 282.286 128.644 279.222 128.644H274.061C271.008 128.644 268.439 126.548 267.748 123.702H265.663C263.912 123.702 262.495 122.285 262.495 120.534V120.361C262.495 118.61 263.912 117.193 265.663 117.193H267.552V114.694C267.552 112.021 269.522 109.809 272.091 109.44C272.655 110.385 274.36 112.643 277.839 112.516C279.475 112.459 280.996 112.148 282.252 111.779C283.761 111.341 285.27 112.263 285.65 113.703C285.708 114.025 285.742 114.348 285.742 114.682V117.182H287.631C289.371 117.182 290.799 118.61 290.799 120.361Z" fill="#E57281"/>
<path d="M287.182 117.182H285.731V114.405C285.731 114.163 285.696 113.922 285.638 113.703C285.258 112.263 283.749 111.341 282.24 111.779C280.984 112.147 279.475 112.459 277.828 112.516C274.349 112.643 272.644 110.385 272.079 109.44C269.51 109.809 267.541 112.021 267.541 114.693V117.193H265.732C265.732 117.193 263.658 109.694 265.214 107.574C266.746 105.489 268.589 106.399 268.589 106.399C268.589 106.399 267.483 100.155 273.658 100.27C279.821 100.386 287.839 107.539 288.426 108.853C289.348 110.869 287.182 117.182 287.182 117.182Z" fill="#9A3B82"/>
<path d="M286.433 120.948C286.433 119.716 287.436 118.725 288.657 118.725" stroke="#9A3B82" stroke-width="0.576" stroke-miterlimit="10" stroke-linecap="round"/>
<path d="M266.872 120.949C266.872 119.716 265.87 118.725 264.649 118.725" stroke="#9A3B82" stroke-width="0.576" stroke-miterlimit="10" stroke-linecap="round"/>
<path d="M282.828 114.693C282.828 114.693 281.192 113.495 279.107 114.359" stroke="#9A3B82" stroke-width="0.576" stroke-miterlimit="10" stroke-linecap="round"/>
<path d="M270.34 114.693C270.34 114.693 271.976 113.495 274.061 114.359" stroke="#9A3B82" stroke-width="0.576" stroke-miterlimit="10" stroke-linecap="round"/>
<path d="M279.51 123.195C279.51 123.195 278.623 125.108 275.904 124.105" stroke="#9A3B82" stroke-width="0.576" stroke-miterlimit="10" stroke-linecap="round"/>
<path d="M275.777 122.205C276.48 122.251 277.552 122.205 277.552 122.205" stroke="#9A3B82" stroke-width="0.576" stroke-miterlimit="10" stroke-linecap="round"/>
<path d="M280.973 119.497C281.291 119.497 281.549 119.064 281.549 118.529C281.549 117.995 281.291 117.562 280.973 117.562C280.655 117.562 280.397 117.995 280.397 118.529C280.397 119.064 280.655 119.497 280.973 119.497Z" fill="#9A3B82"/>
<path d="M272.713 119.497C273.031 119.497 273.289 119.064 273.289 118.529C273.289 117.995 273.031 117.562 272.713 117.562C272.395 117.562 272.137 117.995 272.137 118.529C272.137 119.064 272.395 119.497 272.713 119.497Z" fill="#9A3B82"/>
<path d="M274.084 121.79H270.455C269.752 121.79 269.188 121.225 269.188 120.522V116.894C269.188 116.191 269.752 115.626 270.455 115.626H274.084C274.787 115.626 275.351 116.191 275.351 116.894V120.522C275.363 121.214 274.787 121.79 274.084 121.79Z" stroke="white" stroke-width="0.576" stroke-miterlimit="10"/>
<path d="M282.966 121.79H279.337C278.634 121.79 278.07 121.225 278.07 120.522V116.894C278.07 116.191 278.634 115.626 279.337 115.626H282.966C283.669 115.626 284.233 116.191 284.233 116.894V120.522C284.233 121.214 283.669 121.79 282.966 121.79Z" stroke="white" stroke-width="0.576" stroke-miterlimit="10"/>
<path d="M275.363 118.023H278.07" stroke="white" stroke-width="0.576" stroke-miterlimit="10"/>
<path d="M283.922 168.353H271.331C270.19 168.353 269.257 167.431 269.257 166.279V159.586C269.257 158.446 270.179 157.513 271.331 157.513H283.922C285.063 157.513 285.996 158.434 285.996 159.586V166.279C285.996 167.42 285.074 168.353 283.922 168.353Z" stroke="#66B0F0" stroke-width="0.6912" stroke-miterlimit="10" stroke-linejoin="round"/>
<path d="M277.943 165.657H273.681C273.001 165.657 272.448 165.104 272.448 164.424V161.441C272.448 160.761 273.001 160.208 273.681 160.208H277.943C278.623 160.208 279.176 160.761 279.176 161.441V164.424C279.176 165.104 278.623 165.657 277.943 165.657Z" fill="#66B0F0"/>
<path d="M282.09 165.576L280.777 164.701C280.42 164.459 280.201 164.044 280.201 163.595V162.282C280.201 161.832 280.42 161.418 280.777 161.176L282.09 160.3C282.401 160.093 282.805 160.323 282.805 160.715V165.173C282.816 165.553 282.401 165.784 282.09 165.576Z" fill="#66B0F0"/>
<path d="M452.321 206.059H146.5" stroke="#3FB1B5" stroke-width="0.6912" stroke-miterlimit="10" stroke-linecap="round"/>
<path d="M244.961 208.074V350.3H236.932V323.228C236.932 320.705 234.881 318.655 232.359 318.655H174.885C172.362 318.655 170.312 320.705 170.312 323.228V350.3H162.282V208.074H244.961Z" fill="white" stroke="#3FB1B5" stroke-width="0.6912" stroke-miterlimit="10" stroke-linecap="round"/>
<path d="M245.203 208.074V245.814L162.282 314.093L162.294 208.074H245.203Z" fill="#D0F0E4"/>
<path d="M236.932 218.903V244.696C236.932 247.093 234.997 249.028 232.6 249.028H174.655C172.259 249.028 170.323 247.093 170.323 244.696V218.903C170.323 216.507 172.259 214.572 174.655 214.572H232.6C234.997 214.572 236.932 216.507 236.932 218.903Z" stroke="#3FB1B5" stroke-width="0.6912" stroke-miterlimit="10" stroke-linecap="round"/>
<path d="M218.362 268.566H189.838L188.652 260.398H217.187L218.362 268.566Z" fill="#FFCF2D"/>
<path d="M233.58 255.686C230.02 255.686 227.14 258.566 227.14 262.126V268.566H202.867V262.126C202.867 258.566 205.747 255.686 209.307 255.686H233.58Z" fill="white" stroke="#3FB1B5" stroke-width="0.6912" stroke-miterlimit="10" stroke-linecap="round"/>
<path d="M239.628 260.398H215.355C214.606 257.679 212.106 255.686 209.146 255.686H233.418C236.379 255.686 238.867 257.679 239.628 260.398Z" fill="white" stroke="#3FB1B5" stroke-width="0.6912" stroke-miterlimit="10" stroke-linecap="round"/>
<path d="M236.932 272.898V298.691C236.932 301.087 234.997 303.022 232.6 303.022H174.655C172.259 303.022 170.323 301.087 170.323 298.691V272.898C170.323 270.502 172.259 268.566 174.655 268.566H232.6C234.997 268.566 236.932 270.502 236.932 272.898Z" stroke="#3FB1B5" stroke-width="0.6912" stroke-miterlimit="10" stroke-linecap="round"/>
<path d="M191.762 231.287C191.762 229.237 193.421 227.566 195.483 227.566H211.784C213.834 227.566 215.505 229.225 215.505 231.287" stroke="#3FB1B5" stroke-width="0.6912" stroke-miterlimit="10" stroke-linecap="round"/>
<path d="M191.762 285.282C191.762 283.231 193.421 281.561 195.483 281.561H211.784C213.834 281.561 215.505 283.22 215.505 285.282" stroke="#3FB1B5" stroke-width="0.6912" stroke-miterlimit="10" stroke-linecap="round"/>
<path d="M440.145 208.074H431.585V350.611H440.145V208.074Z" fill="white" stroke="#3FB1B5" stroke-width="0.6912" stroke-miterlimit="10" stroke-linecap="round"/>
<path d="M294.682 350.612H473.311" stroke="#3FB1B5" stroke-width="0.6912" stroke-miterlimit="10" stroke-linecap="round"/>
<path d="M186.589 186.508H181.417C181.417 186.508 174.033 155.738 167.547 154.736C161.061 153.734 160.727 165.577 160.727 165.577C160.727 165.577 160.842 147.571 177.051 150.036C193.271 152.501 186.589 186.508 186.589 186.508Z" fill="white" stroke="#3FB1B5" stroke-width="0.6912" stroke-miterlimit="10" stroke-linecap="round"/>
<path d="M168.872 150.819C168.872 150.819 183.652 145.359 184.32 186.048" stroke="#3FB1B5" stroke-width="0.6912" stroke-miterlimit="10" stroke-linecap="round"/>
<path d="M200.678 186.048H176.383V205.828H200.678V186.048Z" fill="#FE5244"/>
<path d="M205.793 195.943C204.25 196.612 202.406 196.531 200.69 195.782C199.423 195.229 198.225 194.319 197.257 193.075C195.921 191.347 195.022 188.985 195.022 186.048C195.022 178.928 189.354 174.459 187.027 183.882C186.866 184.539 186.716 185.253 186.589 186.048V186.025V185.979C186.589 185.956 186.589 185.921 186.601 185.886V185.84C186.647 185.253 186.82 183.513 187.35 181.417C187.741 179.861 188.329 178.133 189.205 176.532C189.642 175.737 190.149 174.977 190.748 174.297C192.292 172.523 194.412 171.279 197.303 171.279C202.625 171.279 206.519 177.546 208.005 183.79C209.307 189.216 208.777 194.642 205.793 195.943Z" fill="white" stroke="#3FB1B5" stroke-width="0.6912" stroke-miterlimit="10" stroke-linecap="round"/>
<path d="M190.76 174.297C190.76 174.297 201.427 166.706 204.561 196.162" stroke="#3FB1B5" stroke-width="0.6912" stroke-miterlimit="10" stroke-linecap="round"/>
<path d="M160.382 165.576C160.382 167.477 160.163 174.746 167.098 175.08C174.033 175.415 174.724 164.943 174.724 164.943C174.724 164.943 171.314 155.681 167.547 154.736C161.176 153.135 160.382 165.576 160.382 165.576Z" fill="#3FB1B5"/>
<path d="M195.022 186.048H186.589C188.536 173.848 195.022 178.433 195.022 186.048Z" fill="#3FB1B5"/>
<path opacity="0.4" d="M338.227 96.4454V172.489C338.227 176.579 334.909 179.885 330.831 179.885H243.798C238.337 187.407 227.082 187.442 221.576 179.885L221.564 179.873C219.375 179.723 217.44 178.606 216.196 176.959L218.2 175.231L269.349 131.086L318.056 89.0496H330.831C334.909 89.0496 338.227 92.3673 338.227 96.4454Z" fill="white"/>
<path opacity="0.4" d="M205.793 196.289C204.261 196.981 202.406 196.877 200.69 196.128V205.828H182.753L197.268 193.306L200.701 190.345L203.316 188.087L208.374 183.79C209.848 190.08 209.03 194.803 205.793 196.289Z" fill="white"/>
<path d="M111.387 99.8783C111.249 99.8783 111.11 99.7862 111.064 99.6479C111.007 99.4636 111.099 99.2678 111.272 99.2102L112.355 98.83C112.539 98.7724 112.735 98.8646 112.792 99.0374C112.85 99.2217 112.758 99.4175 112.585 99.4751L111.502 99.8553C111.456 99.8668 111.422 99.8783 111.387 99.8783ZM114.106 98.9337C113.967 98.9337 113.829 98.8415 113.783 98.7033C113.726 98.519 113.818 98.3231 113.99 98.2655L115.073 97.8854C115.258 97.8278 115.454 97.9199 115.511 98.0927C115.569 98.2771 115.477 98.4729 115.304 98.5305L114.221 98.9107C114.186 98.9222 114.14 98.9337 114.106 98.9337ZM116.824 97.9775C116.686 97.9775 116.548 97.8854 116.502 97.7471C116.444 97.5628 116.536 97.367 116.709 97.3094L117.792 96.9292C117.976 96.8716 118.172 96.9638 118.23 97.1366C118.287 97.3209 118.195 97.5167 118.022 97.5743L116.94 97.9545C116.905 97.9775 116.859 97.9775 116.824 97.9775ZM119.543 97.0329C119.405 97.0329 119.267 96.9407 119.221 96.8025C119.163 96.6182 119.255 96.4223 119.428 96.3647L120.511 95.9846C120.695 95.927 120.891 96.0191 120.949 96.1919C121.006 96.3763 120.914 96.5721 120.741 96.6297L119.658 97.0099C119.624 97.0329 119.589 97.0329 119.543 97.0329ZM122.262 96.0883C122.124 96.0883 121.985 95.9961 121.939 95.8579C121.882 95.6735 121.974 95.4777 122.147 95.4201L123.229 95.0399C123.414 94.9823 123.61 95.0745 123.667 95.2473C123.725 95.4316 123.633 95.6275 123.46 95.6851L122.377 96.0652C122.342 96.0883 122.308 96.0883 122.262 96.0883ZM124.992 95.1436C124.854 95.1436 124.716 95.0515 124.669 94.9132C124.612 94.7289 124.704 94.5331 124.877 94.4755L125.96 94.0953C126.144 94.0377 126.34 94.1299 126.397 94.3027C126.455 94.487 126.363 94.6828 126.19 94.7404L125.107 95.1206C125.061 95.1436 125.027 95.1436 124.992 95.1436ZM127.711 94.199C127.573 94.199 127.434 94.1068 127.388 93.9686C127.331 93.7843 127.423 93.5884 127.596 93.5308L128.678 93.1507C128.863 93.0931 129.059 93.1852 129.116 93.358C129.174 93.5423 129.082 93.7382 128.909 93.7958L127.826 94.1759C127.78 94.1875 127.745 94.199 127.711 94.199ZM130.429 93.2543C130.291 93.2543 130.153 93.1622 130.107 93.0239C130.049 92.8396 130.141 92.6438 130.314 92.5862L131.397 92.206C131.582 92.1484 131.777 92.2406 131.835 92.4134C131.893 92.5977 131.8 92.7935 131.628 92.8511L130.545 93.2313C130.499 93.2428 130.464 93.2543 130.429 93.2543ZM133.148 92.3097C133.01 92.3097 132.872 92.2175 132.826 92.0793C132.768 91.895 132.86 91.6991 133.033 91.6415L134.116 91.2614C134.3 91.2038 134.496 91.2959 134.554 91.4687C134.611 91.6531 134.519 91.8489 134.346 91.9065L133.263 92.2867C133.229 92.2982 133.183 92.3097 133.148 92.3097ZM135.867 91.3651C135.729 91.3651 135.59 91.2729 135.544 91.1347C135.487 90.9503 135.579 90.7545 135.752 90.6969L136.835 90.3167C137.019 90.2591 137.215 90.3513 137.272 90.5241C137.33 90.7084 137.238 90.9043 137.065 90.9619L135.982 91.342C135.948 91.3535 135.902 91.3651 135.867 91.3651ZM138.586 90.4204C138.447 90.4204 138.309 90.3283 138.263 90.19C138.205 90.0057 138.298 89.8099 138.47 89.7523L139.553 89.3721C139.738 89.3145 139.933 89.4067 139.991 89.5795C140.049 89.7638 139.957 89.9596 139.784 90.0172L138.701 90.3974C138.666 90.4089 138.62 90.4204 138.586 90.4204ZM141.304 89.4643C141.166 89.4643 141.028 89.3721 140.982 89.2339C140.924 89.0495 141.016 88.8537 141.189 88.7961L142.272 88.4159C142.456 88.3583 142.652 88.4505 142.71 88.6233C142.767 88.8076 142.675 89.0035 142.502 89.0611L141.42 89.4412C141.385 89.4643 141.35 89.4643 141.304 89.4643ZM144.023 88.5196C143.885 88.5196 143.747 88.4275 143.701 88.2892C143.643 88.1049 143.735 87.9091 143.908 87.8515L144.991 87.4713C145.175 87.4137 145.371 87.5059 145.429 87.6787C145.486 87.863 145.394 88.0588 145.221 88.1164L144.138 88.4966C144.104 88.5196 144.069 88.5196 144.023 88.5196ZM146.753 87.575C146.615 87.575 146.477 87.4828 146.431 87.3446C146.373 87.1603 146.465 86.9644 146.638 86.9068L147.721 86.5267C147.905 86.4691 148.101 86.5612 148.159 86.734C148.216 86.9183 148.124 87.1142 147.951 87.1718L146.869 87.5519C146.822 87.575 146.788 87.575 146.753 87.575ZM149.472 86.6303C149.334 86.6303 149.196 86.5382 149.149 86.3999C149.092 86.2156 149.184 86.0198 149.357 85.9622L150.44 85.582C150.624 85.5244 150.82 85.6166 150.877 85.7894C150.935 85.9737 150.843 86.1695 150.67 86.2271L149.587 86.6073C149.541 86.6303 149.507 86.6303 149.472 86.6303ZM152.191 85.6857C152.053 85.6857 151.914 85.5935 151.868 85.4553C151.811 85.271 151.903 85.0751 152.076 85.0175L153.158 84.6374C153.343 84.5798 153.539 84.6719 153.596 84.8447C153.654 85.0291 153.562 85.2249 153.389 85.2825L152.306 85.6627C152.26 85.6857 152.225 85.6857 152.191 85.6857ZM154.909 84.7411C154.771 84.7411 154.633 84.6489 154.587 84.5107C154.529 84.3263 154.621 84.1305 154.794 84.0729L155.877 83.6927C156.061 83.6351 156.257 83.7273 156.315 83.9001C156.373 84.0844 156.28 84.2803 156.108 84.3379L155.025 84.718C154.99 84.7295 154.944 84.7411 154.909 84.7411ZM157.628 83.7964C157.49 83.7964 157.352 83.7043 157.306 83.566C157.248 83.3817 157.34 83.1859 157.513 83.1283L158.596 82.7481C158.78 82.6905 158.976 82.7827 159.034 82.9555C159.091 83.1398 158.999 83.3356 158.826 83.3932L157.743 83.7734C157.709 83.7849 157.663 83.7964 157.628 83.7964Z" fill="#FFCF2D"/>
<path d="M123.644 99.8786C123.448 99.8786 123.299 99.7288 123.299 99.533C123.299 96.4111 122.331 94.1416 120.407 92.8053C118.967 91.8031 117.504 91.7109 117.493 91.7109C117.297 91.6994 117.158 91.5381 117.17 91.3423C117.182 91.1464 117.343 91.0082 117.527 91.0197C117.596 91.0197 119.174 91.1119 120.776 92.2178C123.437 94.061 123.99 97.2175 123.99 99.533C123.99 99.7173 123.84 99.8786 123.644 99.8786Z" fill="#3FB1B5"/>
<path d="M178.687 99.8787H111.387C111.26 99.8787 111.134 99.8095 111.076 99.6828C111.018 99.5676 111.03 99.4294 111.11 99.3257L138.459 62.8649C138.517 62.7843 138.609 62.7382 138.701 62.7267C138.793 62.7152 138.897 62.7497 138.966 62.8188L178.929 99.2796C179.032 99.3718 179.067 99.5215 179.021 99.6598C178.963 99.7865 178.837 99.8787 178.687 99.8787ZM112.078 99.1875H177.8L138.782 63.5792L112.078 99.1875Z" fill="#3FB1B5"/>
<path d="M105.339 102.275C103.692 102.275 102.355 100.938 102.355 99.2911C102.355 97.6437 103.692 96.3074 105.339 96.3074C106.986 96.3074 108.323 97.6437 108.323 99.2911C108.323 100.938 106.986 102.275 105.339 102.275ZM105.339 96.9871C104.072 96.9871 103.046 98.0123 103.046 99.2795C103.046 100.547 104.072 101.572 105.339 101.572C106.606 101.572 107.631 100.547 107.631 99.2795C107.631 98.0123 106.606 96.9871 105.339 96.9871Z" fill="#FFCF2D"/>
<path d="M108.323 99.291H107.631V101.929H108.323V99.291Z" fill="#FFCF2D"/>
<path d="M140.774 60.5955C139.127 60.5955 137.791 59.2592 137.791 57.6119C137.791 55.9645 139.127 54.6282 140.774 54.6282C142.422 54.6282 143.758 55.9645 143.758 57.6119C143.758 59.2477 142.422 60.5955 140.774 60.5955ZM140.774 55.3079C139.507 55.3079 138.482 56.3331 138.482 57.6003C138.482 58.8675 139.507 59.9043 140.774 59.9043C142.042 59.9043 143.067 58.8791 143.067 57.6119C143.067 56.3447 142.042 55.3079 140.774 55.3079Z" fill="#FFCF2D"/>
<path d="M138.459 52.9924H137.768V60.2385H138.459V52.9924Z" fill="#FFCF2D"/>
<path d="M184.067 102.206C182.419 102.206 181.083 100.869 181.083 99.2221C181.083 97.5747 182.419 96.2384 184.067 96.2384V96.9296C182.799 96.9296 181.774 97.9549 181.774 99.2221C181.774 100.489 182.799 101.515 184.067 101.515V102.206Z" fill="#FFCF2D"/>
<path d="M358.537 247.473V311.593H343.722L334.287 285.247L320.774 247.473H358.537Z" fill="#A0505A"/>
<path d="M320.774 247.473H358.537V268.059L325.267 260.018L320.774 247.473Z" fill="#73325A"/>
<path d="M358.537 285.247V311.593H343.722L334.287 285.247C334.287 285.247 341.925 289.463 358.537 285.247Z" stroke="white" stroke-width="0.6912" stroke-miterlimit="10" stroke-linecap="round"/>
<path d="M341.994 291.433C342.923 291.433 343.676 290.68 343.676 289.751C343.676 288.822 342.923 288.069 341.994 288.069C341.065 288.069 340.312 288.822 340.312 289.751C340.312 290.68 341.065 291.433 341.994 291.433Z" stroke="white" stroke-width="0.6912" stroke-miterlimit="10" stroke-linecap="round"/>
<path d="M350.012 296.859C350.941 296.859 351.694 296.106 351.694 295.177C351.694 294.248 350.941 293.495 350.012 293.495C349.083 293.495 348.33 294.248 348.33 295.177C348.33 296.106 349.083 296.859 350.012 296.859Z" stroke="white" stroke-width="0.6912" stroke-miterlimit="10" stroke-linecap="round"/>
<path d="M355.98 290.834C356.908 290.834 357.661 290.081 357.661 289.152C357.661 288.223 356.908 287.47 355.98 287.47C355.051 287.47 354.298 288.223 354.298 289.152C354.298 290.081 355.051 290.834 355.98 290.834Z" stroke="white" stroke-width="0.6912" stroke-miterlimit="10" stroke-linecap="round"/>
<path d="M353.618 303.172C354.547 303.172 355.3 302.419 355.3 301.49C355.3 300.561 354.547 299.808 353.618 299.808C352.689 299.808 351.936 300.561 351.936 301.49C351.936 302.419 352.689 303.172 353.618 303.172Z" stroke="white" stroke-width="0.6912" stroke-miterlimit="10" stroke-linecap="round"/>
<path d="M343.676 300.108C344.605 300.108 345.358 299.355 345.358 298.426C345.358 297.497 344.605 296.744 343.676 296.744C342.747 296.744 341.994 297.497 341.994 298.426C341.994 299.355 342.747 300.108 343.676 300.108Z" stroke="white" stroke-width="0.6912" stroke-miterlimit="10" stroke-linecap="round"/>
<path d="M346.418 309.323C347.347 309.323 348.1 308.57 348.1 307.641C348.1 306.713 347.347 305.959 346.418 305.959C345.489 305.959 344.736 306.713 344.736 307.641C344.736 308.57 345.489 309.323 346.418 309.323Z" stroke="white" stroke-width="0.6912" stroke-miterlimit="10" stroke-linecap="round"/>
<path d="M365.541 323.551L355.38 344.644C353.94 348.042 350.611 350.254 346.913 350.254H333.953C330.636 350.254 328.62 346.89 329.887 343.826L342.916 312.399C343.642 310.487 344.92 308.897 346.522 307.78C348.134 306.662 350.07 306.029 352.109 306.029C354.943 306.029 357.754 307.953 359.62 310.084L364.136 314.957C366.221 317.33 366.762 320.659 365.541 323.551Z" fill="#66B0F0"/>
<path d="M365.541 323.551L355.381 344.644C353.941 348.042 350.611 350.254 346.913 350.254H333.135C331.857 350.254 331.131 349.459 330.705 348.365H333.769C337.467 348.365 340.796 346.153 342.236 342.755L353.952 318.321C355.046 316.04 357.362 314.577 359.896 314.577C363.203 314.577 365.714 316.996 366.175 320.06C366.221 321.235 366.014 322.422 365.541 323.551Z" fill="white" stroke="#66B0F0" stroke-width="0.6912" stroke-miterlimit="10" stroke-linejoin="round"/>
<path d="M363.203 313.944C361.981 313.275 360.507 312.792 359.217 312.792C356.74 312.792 354.447 314.232 353.376 316.466L341.245 341.764C339.702 345.416 336.131 347.778 332.156 347.778H329.921C329.806 347.559 329.725 347.328 329.645 347.087H332.156C335.854 347.087 339.172 344.886 340.612 341.488L340.623 341.476L352.765 316.167C353.952 313.69 356.486 312.1 359.228 312.1C360.104 312.1 361.152 312.388 362.051 312.699L363.203 313.944Z" fill="white"/>
<path d="M320.774 247.473L317.883 285.247L316.593 302.17C316.593 302.17 308.172 311.547 298.587 305.764L294.152 285.258L284.003 238.337C281.261 225.654 289.924 213.316 302.792 211.599L320.774 247.473Z" fill="#A0505A"/>
<path d="M317.883 285.247L316.593 302.63C316.593 302.63 308.172 312.008 298.587 306.225L294.152 285.258C305.292 288.599 317.883 285.247 317.883 285.247Z" stroke="white" stroke-width="0.6912" stroke-miterlimit="10" stroke-linecap="round"/>
<path d="M304.647 295.695C305.575 295.695 306.328 294.942 306.328 294.014C306.328 293.085 305.575 292.332 304.647 292.332C303.718 292.332 302.965 293.085 302.965 294.014C302.965 294.942 303.718 295.695 304.647 295.695Z" stroke="white" stroke-width="0.6912" stroke-miterlimit="10" stroke-linecap="round"/>
<path d="M315.337 293.115C316.266 293.115 317.019 292.362 317.019 291.433C317.019 290.504 316.266 289.751 315.337 289.751C314.408 289.751 313.655 290.504 313.655 291.433C313.655 292.362 314.408 293.115 315.337 293.115Z" stroke="white" stroke-width="0.6912" stroke-miterlimit="10" stroke-linecap="round"/>
<path d="M298.195 290.834C299.124 290.834 299.877 290.081 299.877 289.153C299.877 288.224 299.124 287.471 298.195 287.471C297.266 287.471 296.513 288.224 296.513 289.153C296.513 290.081 297.266 290.834 298.195 290.834Z" stroke="white" stroke-width="0.6912" stroke-miterlimit="10" stroke-linecap="round"/>
<path d="M302.965 304.854C303.894 304.854 304.647 304.101 304.647 303.172C304.647 302.243 303.894 301.49 302.965 301.49C302.036 301.49 301.283 302.243 301.283 303.172C301.283 304.101 302.036 304.854 302.965 304.854Z" stroke="white" stroke-width="0.6912" stroke-miterlimit="10" stroke-linecap="round"/>
<path d="M310.81 301.491C311.739 301.491 312.492 300.738 312.492 299.809C312.492 298.88 311.739 298.127 310.81 298.127C309.881 298.127 309.128 298.88 309.128 299.809C309.128 300.738 309.881 301.491 310.81 301.491Z" stroke="white" stroke-width="0.6912" stroke-miterlimit="10" stroke-linecap="round"/>
<path d="M327.698 306.201L316.593 350.611H313.091C312.929 350.611 312.78 350.599 312.618 350.588C309.969 350.346 307.734 348.111 307.169 345.473L298.575 305.74C308.16 311.535 316.593 302.158 316.593 302.158L327.698 306.201Z" fill="#66B0F0"/>
<path d="M328.262 328.988C330.601 316.638 331.246 307.204 327.214 306.443C323.182 305.683 316.005 313.874 313.667 326.223C311.328 338.572 312.549 349.493 316.581 350.254C320.613 351.026 325.924 341.349 328.262 328.988Z" fill="white" stroke="#66B0F0" stroke-width="0.6912" stroke-miterlimit="10" stroke-linejoin="round"/>
<path d="M312.054 326.028C310.844 332.433 310.487 338.619 311.063 343.458C311.478 346.937 312.353 349.413 313.551 350.612H313.091C312.929 350.612 312.78 350.6 312.618 350.588C311.535 349.16 310.764 346.764 310.372 343.538C309.784 338.642 310.141 332.375 311.374 325.901C312.538 319.772 314.888 314.024 318.01 309.704C319.876 307.124 321.834 305.315 323.62 304.497L324.657 304.843C320.544 306.064 314.3 314.174 312.054 326.028Z" fill="white"/>
<path d="M302.792 211.588L355.346 206.173L407.877 220.908L407.428 227.889C406.714 238.902 397.221 247.473 386.185 247.473H320.786L302.792 211.588Z" fill="#FE5244"/>
<path d="M404.882 220.401C404.882 230.4 394.906 242.634 383.869 242.634H318.47" stroke="white" stroke-width="0.6912" stroke-miterlimit="10" stroke-linecap="round" stroke-linejoin="round"/>
<path d="M398.65 218.407C397.014 227.335 388.282 236.874 378.72 236.874H315.821" stroke="white" stroke-width="0.6912" stroke-miterlimit="10" stroke-linecap="round" stroke-linejoin="round"/>
<path d="M391.565 216.288C388.8 223.868 381.3 230.999 373.179 230.999H312.48" stroke="white" stroke-width="0.6912" stroke-miterlimit="10" stroke-linecap="round" stroke-linejoin="round"/>
<path d="M386.116 214.802C382.487 220.32 376.531 224.663 370.184 224.663H309.485" stroke="white" stroke-width="0.6912" stroke-miterlimit="10" stroke-linecap="round" stroke-linejoin="round"/>
<path d="M380.033 213.097C376.543 216.61 372.027 218.903 367.304 218.903H306.605" stroke="white" stroke-width="0.6912" stroke-miterlimit="10" stroke-linecap="round" stroke-linejoin="round"/>
<path d="M372.119 210.804C369.654 212.198 366.958 213.028 364.193 213.028H303.494" stroke="white" stroke-width="0.6912" stroke-miterlimit="10" stroke-linecap="round" stroke-linejoin="round"/>
<path d="M320.659 247.472L302.677 211.588" stroke="white" stroke-width="0.6912" stroke-miterlimit="10" stroke-linecap="round" stroke-linejoin="round"/>
<path d="M410.757 172.823C405.804 174.229 400.931 173.814 400.412 172.305C399.928 170.865 402.117 168.399 406.552 166.764C406.771 166.683 407.002 166.602 407.232 166.522C408.568 166.072 409.905 165.784 411.16 165.635C414.881 165.162 417.911 165.831 418.291 166.96C418.81 168.469 415.999 171.337 410.757 172.823Z" fill="white" stroke="#3FB1B5" stroke-width="0.6912" stroke-miterlimit="10" stroke-linejoin="round"/>
<path d="M407.624 206.415H405.723L400.735 172.742V172.719L400.608 171.878C400.85 170.346 403.246 168.18 407.474 166.775C409.582 166.072 411.679 165.761 413.464 165.727L415.285 170.715L415.457 171.187L421.217 186.981C424.673 196.416 417.681 206.415 407.624 206.415Z" fill="#A0505A"/>
<path d="M415.4 171.072C414.19 171.832 412.624 172.535 410.757 173.065C406.472 174.274 402.129 173.779 400.735 172.742V172.719L400.608 171.878C400.85 170.346 403.246 168.18 407.474 166.775C409.582 166.072 411.679 165.761 413.464 165.727L415.4 171.072Z" fill="#73325A"/>
<path d="M345.923 178.71L339.875 193.755C336.891 201.185 329.679 206.058 321.662 206.058H240.365V198.616C240.365 196.819 241.471 195.206 243.153 194.573L251.505 191.405C252.265 191.117 253.06 190.967 253.866 190.967H263.347L317.007 185.553L326.27 164.344L345.923 178.71Z" fill="#A0505A"/>
<path d="M249.12 195.979L242.819 198.363C241.552 198.847 240.711 200.057 240.711 201.416" stroke="#73325A" stroke-width="0.6912" stroke-miterlimit="10" stroke-linecap="round"/>
<path d="M249.12 199.78L242.819 202.165C241.552 202.649 240.711 203.858 240.711 205.218" stroke="#73325A" stroke-width="0.6912" stroke-miterlimit="10" stroke-linecap="round"/>
<path d="M249.12 203.443L242.819 205.713" stroke="#73325A" stroke-width="0.6912" stroke-miterlimit="10" stroke-linecap="round"/>
<path d="M248.464 192.684C248.464 192.684 254.362 177.627 256.251 177.88C258.14 178.134 251.021 191.716 251.021 191.716L248.464 192.684Z" fill="#FE5244"/>
<path d="M326.27 164.356L324.91 167.455L342.317 187.673L345.923 178.71L326.27 164.356Z" fill="#73325A"/>
<path d="M400.735 172.754L407.877 220.908L355.358 206.173L345.923 178.698L321.569 160.9L330.117 150.716C337.743 141.627 348.998 136.374 360.864 136.374H377.741C392.417 136.374 405.93 144.392 412.969 157.271L418.441 166.74C418.441 166.74 416.794 164.321 407.912 166.752C400.09 168.906 400.735 172.754 400.735 172.754Z" fill="#3FB1B5"/>
<path d="M345.923 178.48L348.653 166.637" stroke="white" stroke-width="0.6912" stroke-miterlimit="10" stroke-linecap="round" stroke-linejoin="round"/>
<path d="M406.552 209.664L397.671 154.449" stroke="white" stroke-width="0.6912" stroke-miterlimit="10" stroke-linecap="round" stroke-linejoin="round"/>
<path d="M355.346 205.955L407.762 220.908" stroke="white" stroke-width="0.6912" stroke-miterlimit="10" stroke-linecap="round" stroke-linejoin="round"/>
<path d="M358.18 128.679V136.42L371.843 136.305V122.642L358.18 128.679Z" fill="#A0505A"/>
<path d="M372.949 120.257V120.465C372.949 122.538 371.382 124.22 369.308 124.22H368.502C367.983 126.271 363.375 128.667 360.104 128.667H356.291C352.12 128.667 348.929 124.923 349.609 120.799L349.793 119.681L348.664 119.048C348.019 118.679 347.835 117.838 348.284 117.239L350.726 114.014L351.256 110.834C351.683 108.219 353.399 106.088 355.68 105.039C356.579 115.166 365.518 116.364 367.88 116.502H369.193C371.267 116.502 372.949 118.184 372.949 120.257Z" fill="#A0505A"/>
<path d="M366.901 121.248C366.901 119.612 368.225 118.288 369.861 118.288" stroke="#73325A" stroke-width="0.6912" stroke-miterlimit="10" stroke-linecap="round"/>
<path d="M354.413 116.606C354.737 116.606 355 115.997 355 115.246C355 114.496 354.737 113.887 354.413 113.887C354.088 113.887 353.825 114.496 353.825 115.246C353.825 115.997 354.088 116.606 354.413 116.606Z" fill="#73325A"/>
<path d="M353.514 111.041C353.514 111.041 355.139 110.88 356.809 113.184" stroke="#73325A" stroke-width="0.6912" stroke-miterlimit="10" stroke-linecap="round"/>
<path d="M367.88 116.502H369.193C371.267 116.502 372.949 118.184 372.949 120.258V120.465C372.949 122.539 371.382 124.22 369.308 124.22L368.421 124.843C364.689 127.239 359.528 136.662 360.795 143.332C362.223 150.832 368.755 152.502 374.792 151.35C380.828 150.198 385.229 146.684 383.8 139.173C383.639 138.286 383.374 137.399 383.04 136.524C383.144 136.558 383.236 136.593 383.34 136.627C390.597 138.609 399.122 138.839 401.472 133.171C403.822 127.504 403.292 121.893 396.231 118.967C392.129 117.262 386.554 117.274 382.234 118.449C384.411 110.88 380.54 102.459 373.432 101.618C362.27 100.293 355.864 104.901 355.692 105.028C355.68 106.364 356.59 115.845 367.88 116.502Z" fill="#73325A"/>
<path d="M382.522 118.184C381.612 121.144 379.734 124.312 376.681 126.467C376.681 126.467 382.072 130.026 383.34 136.639" stroke="white" stroke-width="0.6912" stroke-miterlimit="10" stroke-linecap="round" stroke-linejoin="round"/>
<path d="M385.655 117.93H382.602V114.877C382.602 113.276 383.893 111.986 385.494 111.986H385.655C387.256 111.986 388.547 113.276 388.547 114.877V115.038C388.558 116.628 387.256 117.93 385.655 117.93Z" stroke="#FE5244" stroke-width="0.6912" stroke-miterlimit="10" stroke-linejoin="round"/>
<path d="M384.538 121.063L382.579 117.953L385.69 115.995C387.245 115.015 389.307 115.476 390.286 117.031L390.47 117.319C391.45 118.875 390.989 120.937 389.434 121.916L389.146 122.1C387.567 123.079 385.517 122.619 384.538 121.063Z" stroke="#FE5244" stroke-width="0.6912" stroke-miterlimit="10" stroke-linejoin="round"/>
<path d="M366.497 126.616L368.675 124.531L370.806 126.939C371.854 128.149 371.716 129.98 370.506 131.017L370.38 131.121C369.17 132.169 367.338 132.031 366.301 130.821L366.198 130.694C365.15 129.496 365.288 127.665 366.497 126.616Z" stroke="#FE5244" stroke-width="0.6912" stroke-miterlimit="10" stroke-linejoin="round"/>
<path d="M369.677 128.114L368.698 124.578L372.234 123.598C374.008 123.103 375.84 124.14 376.335 125.914L376.428 126.248C376.923 128.022 375.886 129.854 374.112 130.349L373.778 130.441C372.004 130.925 370.172 129.877 369.677 128.114Z" stroke="#FE5244" stroke-width="0.6912" stroke-miterlimit="10" stroke-linejoin="round"/>
<path d="M338.239 256.332L318.171 350.254" stroke="#FFCF2D" stroke-width="0.6912" stroke-miterlimit="10" stroke-linecap="round"/>
<path d="M389.595 256.332L409.663 350.254" stroke="#FFCF2D" stroke-width="0.6912" stroke-miterlimit="10" stroke-linecap="round"/>
<path d="M322.618 329.403H404.94" stroke="#FFCF2D" stroke-width="0.6912" stroke-miterlimit="10" stroke-linecap="round"/>
<path d="M405.389 256.331H322.433C321.385 256.331 320.532 255.479 320.532 254.431V249.373C320.532 248.325 321.385 247.472 322.433 247.472H405.389C406.437 247.472 407.29 248.325 407.29 249.373V254.431C407.29 255.479 406.437 256.331 405.389 256.331Z" fill="white" stroke="#66B0F0" stroke-width="0.6912" stroke-miterlimit="10" stroke-linejoin="round"/>
</svg>
