<svg width="540" height="378" viewBox="0 0 540 378" fill="none" xmlns="http://www.w3.org/2000/svg">
<path d="M472.392 323.568H67.608L140.27 280.66H400.842L472.392 323.568Z" fill="#D0F0E4"/>
<path d="M299.689 113.8H226.865V71.6905C226.865 68.8393 229.176 66.5281 232.027 66.5281H294.527C297.378 66.5281 299.689 68.8393 299.689 71.6905V113.8Z" fill="white" stroke="#66B0F0" stroke-width="0.648" stroke-miterlimit="10"/>
<path d="M294.192 111.056H232.665C231.045 111.056 229.727 109.739 229.727 108.119V72.0252C229.727 70.4052 231.045 69.0876 232.665 69.0876H294.192C295.812 69.0876 297.13 70.4052 297.13 72.0252V108.13C297.13 109.75 295.812 111.056 294.192 111.056Z" fill="#66B0F0"/>
<path d="M312.455 123.682C315.241 125.496 314.593 129.049 311.299 129.049H212.09C209.315 129.049 208.364 125.302 211.086 123.585L312.455 123.682Z" fill="#66B0F0" stroke="#66B0F0" stroke-width="0.648" stroke-miterlimit="10"/>
<path d="M311.299 126.576H212.09C210.319 126.576 209.617 124.492 211.086 123.584L226.886 113.8H299.484L312.444 123.682C313.74 124.664 312.984 126.576 311.299 126.576Z" fill="white" stroke="#66B0F0" stroke-width="0.648" stroke-miterlimit="10"/>
<path d="M299.851 123.628H223.538C222.178 123.628 221.638 122.018 222.761 121.327L233.734 113.8H290.758L300.726 121.403C301.73 122.159 301.147 123.628 299.851 123.628Z" fill="white" stroke="#66B0F0" stroke-width="0.648" stroke-miterlimit="10"/>
<path d="M285.822 113.799L295.801 123.627" stroke="#66B0F0" stroke-width="0.648" stroke-miterlimit="10"/>
<path d="M280.53 113.799L289.321 123.627" stroke="#66B0F0" stroke-width="0.648" stroke-miterlimit="10"/>
<path d="M275.584 113.799L283.208 123.627" stroke="#66B0F0" stroke-width="0.648" stroke-miterlimit="10"/>
<path d="M270.054 113.799L276.502 123.627" stroke="#66B0F0" stroke-width="0.648" stroke-miterlimit="10"/>
<path d="M265.464 113.8L268.607 123.628" stroke="#66B0F0" stroke-width="0.648" stroke-miterlimit="10"/>
<path d="M238.367 113.8L228.388 123.628" stroke="#66B0F0" stroke-width="0.648" stroke-miterlimit="10"/>
<path d="M243.659 113.799L234.868 123.627" stroke="#66B0F0" stroke-width="0.648" stroke-miterlimit="10"/>
<path d="M248.605 113.799L240.98 123.627" stroke="#66B0F0" stroke-width="0.648" stroke-miterlimit="10"/>
<path d="M254.135 113.799L247.687 123.627" stroke="#66B0F0" stroke-width="0.648" stroke-miterlimit="10"/>
<path d="M258.725 113.799L255.582 123.627" stroke="#66B0F0" stroke-width="0.648" stroke-miterlimit="10"/>
<path d="M261.835 123.746V113.8" stroke="#66B0F0" stroke-width="0.648" stroke-miterlimit="10"/>
<path d="M228.388 117.472H295.585" stroke="#66B0F0" stroke-width="0.648" stroke-miterlimit="10"/>
<path d="M289.073 111.056H234.436L235.418 104.09C236.023 99.8029 239.101 96.2821 243.259 95.0941L256.576 92.3293H266.933L280.249 95.0941C284.418 96.2713 287.496 99.8029 288.09 104.09L289.073 111.056Z" fill="#FFCF2D"/>
<path d="M265.442 100.289L261.5 96.3034C261.414 96.217 261.414 96.0766 261.5 96.001C261.587 95.9146 261.727 95.9146 261.803 96.001L265.421 99.6622L271.037 93.301C271.112 93.2146 271.253 93.2038 271.339 93.2794C271.426 93.355 271.436 93.4954 271.361 93.5818L265.442 100.289Z" fill="white"/>
<path d="M258.12 100.289L252.202 93.5819C252.126 93.4955 252.126 93.3551 252.223 93.2795C252.31 93.2039 252.45 93.2039 252.526 93.3011L258.142 99.6623L261.76 96.0011C261.846 95.9147 261.976 95.9147 262.062 96.0011C262.148 96.0875 262.148 96.2171 262.062 96.3035L258.12 100.289Z" fill="white"/>
<path d="M261.846 102.892C261.328 102.892 260.906 102.47 260.906 101.952C260.906 101.434 261.328 101.012 261.846 101.012C262.364 101.012 262.786 101.434 262.786 101.952C262.786 102.47 262.364 102.892 261.846 102.892ZM261.846 101.444C261.565 101.444 261.338 101.671 261.338 101.952C261.338 102.233 261.565 102.46 261.846 102.46C262.127 102.46 262.354 102.233 262.354 101.952C262.354 101.671 262.127 101.444 261.846 101.444Z" fill="white"/>
<path d="M261.846 108.183C261.328 108.183 260.906 107.762 260.906 107.244C260.906 106.725 261.328 106.304 261.846 106.304C262.364 106.304 262.786 106.725 262.786 107.244C262.786 107.762 262.364 108.183 261.846 108.183ZM261.846 106.736C261.565 106.736 261.338 106.963 261.338 107.244C261.338 107.525 261.565 107.751 261.846 107.751C262.127 107.751 262.354 107.525 262.354 107.244C262.354 106.963 262.127 106.736 261.846 106.736Z" fill="white"/>
<path d="M256.511 110.83H238.864L234.155 96.8546L251.802 91.8002L256.511 110.83Z" fill="white" stroke="#66B0F0" stroke-width="0.432" stroke-miterlimit="10"/>
<path d="M239.782 98.6689H239.447C238.594 98.6689 237.902 97.9777 237.902 97.1245V92.2753C237.902 91.9297 238.183 91.6489 238.529 91.6489H239.987C240.332 91.6489 240.613 91.9297 240.613 92.2753V97.8265C240.624 98.2909 240.246 98.6689 239.782 98.6689Z" fill="white"/>
<path d="M239.782 98.6689H239.447C238.594 98.6689 237.902 97.9777 237.902 97.1245V92.2753C237.902 91.9297 238.183 91.6489 238.529 91.6489H239.987C240.332 91.6489 240.613 91.9297 240.613 92.2753V97.8265C240.624 98.2909 240.246 98.6689 239.782 98.6689Z" stroke="#66B0F0" stroke-width="0.432" stroke-miterlimit="10" stroke-linecap="round"/>
<path d="M246.888 98.6688H247.223C248.076 98.6688 248.767 97.9776 248.767 97.1244V92.2752C248.767 91.9296 248.486 91.6488 248.141 91.6488H246.672C246.326 91.6488 246.046 91.9296 246.046 92.2752V97.8264C246.046 98.2908 246.424 98.6688 246.888 98.6688Z" fill="white"/>
<path d="M242.492 99.2304H241.715C241.11 99.2304 240.624 98.7444 240.624 98.1396V92.286C240.624 91.9404 240.905 91.6596 241.25 91.6596H242.708C243.054 91.6596 243.335 91.9404 243.335 92.286V98.388C243.335 98.8524 242.957 99.2304 242.492 99.2304Z" fill="white"/>
<path d="M245.214 99.4464H244.566C243.886 99.4464 243.335 98.8956 243.335 98.2152V92.2752C243.335 91.9296 243.616 91.6488 243.961 91.6488H245.419C245.765 91.6488 246.046 91.9296 246.046 92.2752V98.604C246.046 99.0684 245.668 99.4464 245.214 99.4464Z" fill="white"/>
<path d="M246.888 98.6688H247.223C248.076 98.6688 248.767 97.9776 248.767 97.1244V92.2752C248.767 91.9296 248.486 91.6488 248.141 91.6488H246.672C246.326 91.6488 246.046 91.9296 246.046 92.2752V97.8264C246.046 98.2908 246.424 98.6688 246.888 98.6688Z" stroke="#66B0F0" stroke-width="0.432" stroke-miterlimit="10" stroke-linecap="round"/>
<path d="M242.492 99.2304H241.715C241.11 99.2304 240.624 98.7444 240.624 98.1396V92.286C240.624 91.9404 240.905 91.6596 241.25 91.6596H242.708C243.054 91.6596 243.335 91.9404 243.335 92.286V98.388C243.335 98.8524 242.957 99.2304 242.492 99.2304Z" stroke="#66B0F0" stroke-width="0.432" stroke-miterlimit="10" stroke-linecap="round"/>
<path d="M245.214 99.4464H244.566C243.886 99.4464 243.335 98.8956 243.335 98.2152V92.2752C243.335 91.9296 243.616 91.6488 243.961 91.6488H245.419C245.765 91.6488 246.046 91.9296 246.046 92.2752V98.604C246.046 99.0684 245.668 99.4464 245.214 99.4464Z" stroke="#66B0F0" stroke-width="0.432" stroke-miterlimit="10" stroke-linecap="round"/>
<path d="M266.944 85.979V93.863C266.944 95.2238 264.622 96.3362 261.76 96.3362C258.898 96.3362 256.576 95.2238 256.576 93.863V85.979H266.944Z" fill="white"/>
<path d="M266.944 85.9791C266.944 91.9299 263.131 93.7011 259.47 93.3879C259.459 93.3879 259.448 93.3879 259.438 93.3879C257.818 93.2367 256.586 91.8543 256.586 90.2343V85.9899H266.944V85.9791Z" fill="#66B0F0"/>
<path d="M269.352 83.9486V84.3482C269.352 85.2338 268.639 85.9466 267.754 85.9466H266.933L266.944 86.1302C266.944 88.679 264.881 90.7418 262.332 90.7418H261.198C258.649 90.7418 256.587 88.679 256.587 86.1302L256.597 85.9466H255.777C254.891 85.9466 254.178 85.2338 254.178 84.3482V83.9486C254.178 83.063 254.891 82.3502 255.777 82.3502H256.824L256.943 80.3954C256.943 80.093 256.986 79.8014 257.073 79.5314C260.161 80.2982 263.779 78.311 264.751 77.717C265.831 78.1274 266.598 79.1642 266.598 80.3846L266.717 82.3394H267.765C268.639 82.3502 269.352 83.063 269.352 83.9486Z" fill="white"/>
<path d="M267.829 82.3502H266.706L266.587 80.3954C266.587 79.175 265.82 78.1382 264.74 77.7278C263.768 78.311 260.15 80.2982 257.062 79.5422C256.975 79.8122 256.932 80.1038 256.932 80.4062L256.813 82.361H256.111C256.111 82.361 254.675 75.4058 256.09 74.1314C257.137 73.1918 266.728 75.2438 267.786 76.7018C268.38 77.5334 267.829 82.3502 267.829 82.3502Z" fill="#E57281"/>
<path d="M265.129 81.929C265.097 81.929 265.054 81.9182 265.021 81.8858C265.011 81.875 264.309 81.3026 263.185 81.3026C263.099 81.3026 263.023 81.227 263.023 81.1406C263.023 81.0542 263.099 80.9786 263.185 80.9786C264.427 80.9786 265.194 81.605 265.227 81.6374C265.291 81.6914 265.302 81.7994 265.248 81.8642C265.227 81.9074 265.173 81.929 265.129 81.929Z" fill="#66B0F0"/>
<path d="M261.025 85.277C261.004 85.277 260.982 85.277 260.971 85.2662C260.885 85.2338 260.842 85.1366 260.874 85.061C261.177 84.2618 261.101 83.2574 260.68 82.3718C260.431 81.8318 260.075 81.443 259.762 81.335C259.071 81.0974 258.099 81.4322 258.088 81.4322C258.001 81.4646 257.915 81.4214 257.883 81.335C257.85 81.2486 257.893 81.1622 257.98 81.1298C258.023 81.119 259.06 80.7626 259.859 81.0326C260.259 81.173 260.669 81.6158 260.961 82.2422C261.414 83.2034 261.49 84.305 261.166 85.1906C261.155 85.2338 261.09 85.277 261.025 85.277Z" fill="#66B0F0"/>
<path d="M263.153 86.9942C263.164 87.0806 263.088 87.1562 263.002 87.167H262.991C262.905 87.167 262.84 87.1022 262.829 87.0158C262.818 86.9078 262.797 86.7998 262.764 86.7026C262.3 86.9294 261.879 87.005 261.533 87.005C260.853 87.005 260.442 86.7242 260.421 86.7026C260.345 86.6486 260.334 86.5514 260.377 86.4758C260.431 86.4002 260.529 86.3894 260.604 86.4326C260.626 86.4434 260.971 86.681 261.533 86.681C261.835 86.681 262.203 86.6162 262.624 86.411C262.559 86.303 262.494 86.2382 262.494 86.2382C262.429 86.1734 262.44 86.0654 262.505 86.0114C262.57 85.9574 262.678 85.9574 262.732 86.0222C262.753 86.0546 263.121 86.465 263.153 86.9942Z" fill="#66B0F0"/>
<path d="M263.736 83.908C263.885 83.8987 263.991 83.6498 263.972 83.3522C263.953 83.0545 263.818 82.8207 263.669 82.83C263.52 82.8393 263.414 83.0881 263.433 83.3858C263.452 83.6834 263.587 83.9172 263.736 83.908Z" fill="#66B0F0"/>
<path d="M259.327 83.8646C259.464 83.856 259.561 83.6271 259.544 83.3533C259.527 83.0794 259.402 82.8643 259.265 82.8729C259.128 82.8814 259.031 83.1103 259.048 83.3842C259.065 83.658 259.19 83.8731 259.327 83.8646Z" fill="#66B0F0"/>
<path d="M256.306 84.4669C256.219 84.4669 256.144 84.3913 256.144 84.3049C256.144 83.8297 255.755 83.4517 255.291 83.4517C255.204 83.4517 255.129 83.3761 255.129 83.2897C255.129 83.2033 255.204 83.1277 255.291 83.1277C255.939 83.1277 256.468 83.6569 256.468 84.3049C256.468 84.4021 256.392 84.4669 256.306 84.4669Z" fill="#66B0F0"/>
<path d="M267.171 84.4669C267.084 84.4669 267.009 84.3913 267.009 84.3049C267.009 83.6569 267.538 83.1277 268.186 83.1277C268.272 83.1277 268.348 83.2033 268.348 83.2897C268.348 83.3761 268.272 83.4517 268.186 83.4517C267.711 83.4517 267.333 83.8405 267.333 84.3049C267.333 84.4021 267.268 84.4669 267.171 84.4669Z" fill="#66B0F0"/>
<path d="M462.672 323.568L416.416 170.618C415.498 167.573 412.679 165.488 409.493 165.488H128.747C125.528 165.488 122.699 167.616 121.802 170.716L77.6627 323.568" stroke="#66B0F0" stroke-width="0.648" stroke-miterlimit="10"/>
<path d="M205.654 113.8H328.45" stroke="#66B0F0" stroke-width="0.648" stroke-miterlimit="10"/>
<path d="M248.27 137.041H277.279V161.957H248.27C248.27 161.957 248.27 136.101 248.27 137.041Z" fill="#FFCF2D"/>
<path d="M356.746 252.806L343.256 219.218H364.975L356.746 252.806Z" fill="#9A3B82"/>
<path d="M319.734 174.387C322.628 168.912 328.32 165.488 334.508 165.488H351.216L362.567 174.387H319.734Z" fill="#9A3B82"/>
<path d="M383.076 213.71H340.988L356.832 252.169C355.73 250.376 349.132 252.245 342.144 256.532C335.243 260.766 330.577 265.864 331.528 267.721L297.378 208.3C288.522 193.309 299.322 174.388 316.732 174.388H411.048L411.253 175.036C417.409 194.152 403.153 213.71 383.076 213.71Z" fill="#3FB1B5"/>
<path d="M412.679 185.414C412.528 188.924 411.75 192.316 410.432 195.458L360.968 174.398H410.065L411.21 177.746C412.009 179.755 412.452 182.574 412.679 185.414Z" fill="#E6E6E6"/>
<path d="M356.843 252.169C357.944 253.962 353.128 258.854 346.151 263.142C339.163 267.429 332.672 269.579 331.571 267.786C330.469 265.993 335.167 260.928 342.155 256.64C349.132 252.353 355.73 250.376 356.843 252.169Z" fill="#66B0F0"/>
<path d="M341.345 256.662L310.63 202.359C308.221 198.061 311.321 192.747 316.256 192.747H376.078C384.134 192.747 390.15 185.328 388.487 177.444" stroke="white" stroke-width="0.648" stroke-miterlimit="10" stroke-linecap="round"/>
<path d="M331.214 267.905C330.113 266.112 334.876 260.409 342.155 256.165C350.33 251.402 355.622 249.987 357.199 252.515" stroke="white" stroke-width="0.648" stroke-miterlimit="10" stroke-linecap="round"/>
<path d="M357.437 252.752L337.37 204.908" stroke="white" stroke-width="0.648" stroke-miterlimit="10" stroke-linecap="round"/>
<path d="M315.554 174.031H364.511" stroke="white" stroke-width="0.648" stroke-miterlimit="10"/>
<path d="M343.246 270.259L340.33 266.285L336.312 260.82C337.954 259.437 339.93 258.001 342.144 256.64C346.55 253.94 350.795 252.147 353.614 251.651L355.568 255.549L358.009 260.409C356.281 266.554 343.246 270.259 343.246 270.259Z" fill="#E57281"/>
<path d="M355.579 255.549C353.765 257.763 350.352 260.56 346.151 263.142C344.131 264.384 342.155 265.442 340.34 266.284L336.323 260.82C337.964 259.437 339.941 258.001 342.155 256.64C346.561 253.94 350.806 252.147 353.624 251.65L355.579 255.549Z" fill="#9A3B82"/>
<path d="M371.358 281.826L341.723 303.113C339.207 304.862 335.297 306.32 335.815 299.991C336.539 291.265 338.472 278.283 343.246 270.248C343.451 270.194 356.281 266.49 358.009 260.399L371.52 270C375.408 273.024 375.322 278.921 371.358 281.826Z" fill="white" stroke="#FFCF2D" stroke-width="0.648" stroke-miterlimit="10"/>
<path d="M341.874 273.067C344.229 273.51 357.448 268.823 359.5 261.597" stroke="#FFCF2D" stroke-width="0.648" stroke-miterlimit="10" stroke-linecap="round"/>
<path d="M338.688 300.92C338.688 300.92 358.031 274.05 371.79 275.562C386.77 277.193 326.441 316.591 338.688 300.92Z" fill="#FFCF2D"/>
<path d="M338.137 304.581C336.636 304.679 335.049 302.929 337.241 300.121C337.241 300.121 357.372 272.257 371.704 273.834C373.918 274.071 374.663 275.875 374.145 277.43" stroke="#FFCF2D" stroke-width="0.648" stroke-miterlimit="10" stroke-linecap="round"/>
<path d="M412.787 187.607C405.94 185.987 388.897 181.721 369.457 177.228C360.32 175.122 352.674 168.901 348.732 160.391L331.031 122.094L341.744 105.116C345.038 99.8891 350.654 96.5627 356.821 96.1847L367.362 95.5367C377.989 94.8887 386.521 101.52 389.761 111.661L411.199 174.388C413.554 180.263 412.787 187.607 412.787 187.607Z" fill="white" stroke="#FE5244" stroke-width="0.648" stroke-miterlimit="10"/>
<path d="M340.351 124.243C340.351 124.243 345.989 133.099 358.83 135.054" stroke="#FE5244" stroke-width="0.648" stroke-miterlimit="10"/>
<path d="M347.955 108.13C347.371 107.503 346.345 107.676 345.989 108.443C345.589 109.307 346.313 110.268 347.253 110.128C348.214 109.987 348.613 108.832 347.955 108.13Z" fill="#FFCF2D" stroke="#FE5244" stroke-width="0.648" stroke-miterlimit="10" stroke-linejoin="round"/>
<path d="M374.857 126.587C374.274 125.96 373.248 126.133 372.892 126.9C372.492 127.764 373.216 128.725 374.155 128.585C375.117 128.444 375.516 127.289 374.857 126.587Z" fill="#FFCF2D" stroke="#FE5244" stroke-width="0.648" stroke-miterlimit="10" stroke-linejoin="round"/>
<path d="M383.379 134.147C382.795 133.52 381.769 133.693 381.413 134.46C381.013 135.324 381.737 136.285 382.677 136.145C383.627 136.015 384.027 134.86 383.379 134.147Z" fill="#FFCF2D" stroke="#FE5244" stroke-width="0.648" stroke-miterlimit="10" stroke-linejoin="round"/>
<path d="M399.719 176.926C399.136 176.299 398.11 176.472 397.753 177.239C397.354 178.103 398.077 179.064 399.017 178.924C399.967 178.783 400.367 177.638 399.719 176.926Z" fill="#FFCF2D" stroke="#FE5244" stroke-width="0.648" stroke-miterlimit="10" stroke-linejoin="round"/>
<path d="M390.571 156.481C389.988 155.855 388.962 156.028 388.606 156.794C388.206 157.658 388.93 158.62 389.869 158.479C390.831 158.339 391.23 157.183 390.571 156.481Z" fill="#FFCF2D" stroke="#FE5244" stroke-width="0.648" stroke-miterlimit="10" stroke-linejoin="round"/>
<path d="M394.362 141.772C393.52 141.88 393.055 142.819 393.477 143.554C393.952 144.385 395.151 144.353 395.583 143.5C396.025 142.636 395.313 141.642 394.362 141.772Z" fill="#FFCF2D" stroke="#FE5244" stroke-width="0.648" stroke-miterlimit="10" stroke-linejoin="round"/>
<path d="M401.263 163.587C400.421 163.695 399.957 164.635 400.378 165.369C400.853 166.201 402.052 166.169 402.484 165.315C402.927 164.451 402.225 163.458 401.263 163.587Z" fill="#FFCF2D" stroke="#FE5244" stroke-width="0.648" stroke-miterlimit="10" stroke-linejoin="round"/>
<path d="M372.643 140.054C372.06 139.428 371.034 139.601 370.678 140.367C370.278 141.231 371.002 142.193 371.941 142.052C372.892 141.912 373.291 140.767 372.643 140.054Z" fill="#FFCF2D" stroke="#FE5244" stroke-width="0.648" stroke-miterlimit="10" stroke-linejoin="round"/>
<path d="M366.693 152.291C366.109 151.664 365.083 151.837 364.727 152.604C364.327 153.468 365.051 154.429 365.991 154.289C366.952 154.148 367.351 152.993 366.693 152.291Z" fill="#FFCF2D" stroke="#FE5244" stroke-width="0.648" stroke-miterlimit="10" stroke-linejoin="round"/>
<path d="M356.044 148.014C356.67 147.431 356.497 146.405 355.731 146.048C354.867 145.649 353.905 146.372 354.046 147.312C354.186 148.262 355.331 148.662 356.044 148.014Z" fill="#FFCF2D" stroke="#FE5244" stroke-width="0.648" stroke-miterlimit="10" stroke-linejoin="round"/>
<path d="M365.494 169.074C366.12 168.491 365.947 167.465 365.181 167.108C364.317 166.709 363.355 167.432 363.496 168.372C363.636 169.333 364.792 169.733 365.494 169.074Z" fill="#FFCF2D" stroke="#FE5244" stroke-width="0.648" stroke-miterlimit="10" stroke-linejoin="round"/>
<path d="M381.402 151.006C382.029 150.422 381.856 149.396 381.089 149.04C380.225 148.64 379.264 149.364 379.404 150.304C379.545 151.254 380.7 151.664 381.402 151.006Z" fill="#FFCF2D" stroke="#FE5244" stroke-width="0.648" stroke-miterlimit="10" stroke-linejoin="round"/>
<path d="M386.835 173.621C387.461 173.037 387.288 172.012 386.521 171.655C385.657 171.256 384.696 171.979 384.837 172.919C384.966 173.88 386.122 174.279 386.835 173.621Z" fill="#FFCF2D" stroke="#FE5244" stroke-width="0.648" stroke-miterlimit="10" stroke-linejoin="round"/>
<path d="M354.262 127.818C353.679 127.191 352.653 127.364 352.296 128.131C351.897 128.995 352.62 129.956 353.56 129.816C354.521 129.675 354.921 128.52 354.262 127.818Z" fill="#FFCF2D" stroke="#FE5244" stroke-width="0.648" stroke-miterlimit="10" stroke-linejoin="round"/>
<path d="M356.195 99.8027C355.612 99.1763 354.586 99.3491 354.229 100.116C353.83 100.98 354.553 101.941 355.493 101.801C356.454 101.66 356.854 100.505 356.195 99.8027Z" fill="#FFCF2D" stroke="#FE5244" stroke-width="0.648" stroke-miterlimit="10" stroke-linejoin="round"/>
<path d="M374.857 99.8027C374.274 99.1763 373.248 99.3491 372.892 100.116C372.492 100.98 373.216 101.941 374.155 101.801C375.117 101.66 375.516 100.505 374.857 99.8027Z" fill="#FFCF2D" stroke="#FE5244" stroke-width="0.648" stroke-miterlimit="10" stroke-linejoin="round"/>
<path d="M374.89 111.899C374.101 112.212 373.875 113.227 374.469 113.843C375.127 114.523 376.283 114.21 376.499 113.281C376.715 112.342 375.786 111.542 374.89 111.899Z" fill="#FFCF2D" stroke="#FE5244" stroke-width="0.648" stroke-miterlimit="10" stroke-linejoin="round"/>
<path d="M364.284 105.008C363.463 105.246 363.15 106.229 363.669 106.898C364.263 107.644 365.44 107.438 365.742 106.542C366.055 105.624 365.202 104.738 364.284 105.008Z" fill="#FFCF2D" stroke="#FE5244" stroke-width="0.648" stroke-miterlimit="10" stroke-linejoin="round"/>
<path d="M362.718 134.924C361.876 135.022 361.401 135.95 361.811 136.696C362.275 137.527 363.474 137.516 363.917 136.674C364.371 135.821 363.679 134.816 362.718 134.924Z" fill="#FFCF2D" stroke="#FE5244" stroke-width="0.648" stroke-miterlimit="10" stroke-linejoin="round"/>
<path d="M353.463 157.421C352.62 157.518 352.145 158.447 352.555 159.192C353.02 160.024 354.219 160.013 354.661 159.17C355.115 158.317 354.424 157.313 353.463 157.421Z" fill="#FFCF2D" stroke="#FE5244" stroke-width="0.648" stroke-miterlimit="10" stroke-linejoin="round"/>
<path d="M356.573 113.929C355.752 114.167 355.439 115.149 355.957 115.819C356.551 116.564 357.729 116.359 358.031 115.463C358.344 114.555 357.502 113.67 356.573 113.929Z" fill="#FFCF2D" stroke="#FE5244" stroke-width="0.648" stroke-miterlimit="10" stroke-linejoin="round"/>
<path d="M365.515 119.977C364.695 120.215 364.381 121.198 364.9 121.867C365.494 122.612 366.671 122.407 366.973 121.511C367.287 120.593 366.444 119.707 365.515 119.977Z" fill="#FFCF2D" stroke="#FE5244" stroke-width="0.648" stroke-miterlimit="10" stroke-linejoin="round"/>
<path d="M346.151 119.718C346.691 119.059 346.399 118.065 345.579 117.817C344.671 117.536 343.807 118.379 344.077 119.286C344.347 120.215 345.535 120.463 346.151 119.718Z" fill="#FFCF2D" stroke="#FE5244" stroke-width="0.648" stroke-miterlimit="10" stroke-linejoin="round"/>
<path d="M387.094 119.75C387.634 119.091 387.342 118.098 386.521 117.849C385.614 117.569 384.75 118.411 385.02 119.318C385.279 120.247 386.478 120.495 387.094 119.75Z" fill="#FFCF2D" stroke="#FE5244" stroke-width="0.648" stroke-miterlimit="10" stroke-linejoin="round"/>
<path d="M376.704 163.534C377.244 162.875 376.953 161.881 376.132 161.633C375.225 161.352 374.361 162.194 374.631 163.102C374.89 164.02 376.089 164.268 376.704 163.534Z" fill="#FFCF2D" stroke="#FE5244" stroke-width="0.648" stroke-miterlimit="10" stroke-linejoin="round"/>
<path d="M368.086 95.1804C367.848 95.1912 367.61 95.202 367.362 95.2128L356.821 95.8608C354.132 96.0228 351.562 96.7464 349.229 97.9452L345.989 88.2468L360.428 77.6628L368.086 95.1804Z" fill="#E57281"/>
<path d="M349.186 97.794C352.188 96.4332 354.586 94.014 355.946 91.0116L361.195 79.4016L360.428 77.652L345.989 88.236L349.186 97.794Z" fill="#9A3B82"/>
<path d="M361.357 78.6348C361.357 79.6392 360.947 80.5464 360.288 81.2052C359.629 81.864 358.722 82.2744 357.718 82.2744H354.542C353.29 87.1452 348.44 90.4824 343.224 89.5644L340.837 89.1432C338.224 88.6788 336.442 86.238 336.809 83.6136L339.606 69.606C340.092 66.6144 343.17 64.7892 346.032 65.8152L350.665 67.6728C353.171 68.5368 354.856 70.8912 354.856 73.5372V74.8872L357.718 74.9952C359.726 74.9952 361.357 76.626 361.357 78.6348Z" fill="#E57281"/>
<path d="M355.979 79.3369C355.979 77.9437 357.102 76.8205 358.495 76.8205" stroke="#9A3B82" stroke-width="0.54" stroke-miterlimit="10" stroke-linecap="round"/>
<path d="M341.161 72.5546C341.161 72.5546 343.429 72.5546 345.049 74.7254" stroke="#9A3B82" stroke-width="0.54" stroke-miterlimit="10" stroke-linecap="round"/>
<path d="M342.669 76.5967C342.783 75.9688 342.637 75.4165 342.344 75.3632C342.051 75.3098 341.72 75.7757 341.606 76.4036C341.492 77.0315 341.637 77.5838 341.931 77.6371C342.224 77.6905 342.555 77.2246 342.669 76.5967Z" fill="#9A3B82"/>
<path d="M357.718 74.9951C359.726 74.9951 361.357 76.6259 361.357 78.6347C361.357 78.6455 361.357 78.6671 361.357 78.6887C362.977 76.1939 366.952 69.8435 366.952 67.6943C366.952 64.8107 363.355 61.9271 359.629 63.2447C359.878 63.0611 360.137 62.8667 360.407 62.6615C361.843 61.5383 362.599 60.6959 362.718 60.0911C362.761 59.8751 362.729 59.6807 362.621 59.5295C362.189 58.9139 361.714 58.6439 361.206 58.7303C360.461 58.8491 359.694 59.7671 358.927 61.4519C358.582 62.2187 358.312 62.9747 358.16 63.4391C357.858 61.6355 356.4 55.6631 350.136 56.5811C347.976 56.8943 346.961 57.7907 346.68 58.7735C344.887 57.3695 342.49 56.2679 340.502 57.3155C337.068 59.1191 337.489 62.0783 339.476 64.1735C337.597 64.1411 336.28 64.6919 336.28 66.2795C336.28 67.7375 337.781 68.4395 339.844 68.7203C341.906 69.0011 344.552 68.8499 346.842 68.5907C348.473 68.4071 349.942 68.1803 350.881 68.0183C350.255 69.3035 350.006 70.4051 350.06 71.3339C350.158 73.2563 351.551 74.3903 353.516 74.7899C353.938 74.8763 354.391 74.9303 354.856 74.9519L357.718 74.9951ZM361.271 59.1623C361.303 59.1515 361.336 59.1515 361.379 59.1515C361.681 59.1515 361.973 59.3675 362.264 59.7779C362.286 59.8211 362.318 59.8859 362.297 60.0047C362.124 60.8795 359.91 62.5427 358.625 63.4175C359.132 61.9271 360.202 59.3459 361.271 59.1623Z" fill="#FFCF2D"/>
<path d="M349.099 62.359C348.354 62.359 347.598 61.9594 347.047 61.2574C346.432 60.4798 346.226 59.5186 346.486 58.687C346.518 58.579 346.626 58.5142 346.734 58.5358C346.777 58.5358 346.82 58.5466 346.853 58.579C348.484 59.7454 349.79 61.4086 349.596 62.0674C349.553 62.2402 349.412 62.3482 349.229 62.359C349.186 62.359 349.142 62.359 349.099 62.359ZM346.831 59.0974C346.734 59.7238 346.928 60.415 347.382 60.9874C347.868 61.603 348.538 61.9594 349.186 61.9162C349.207 61.6354 348.484 60.3502 346.831 59.0974Z" fill="white"/>
<path d="M327.78 157.723H258.66C256.954 157.723 255.928 155.844 256.835 154.408L266.036 139.957C267.235 138.078 269.298 136.944 271.523 136.944H318.308L327.78 157.723Z" fill="#E57281"/>
<path d="M273.046 136.955L278.554 127.883C278.878 127.343 279.472 127.008 280.098 127.008C281.513 127.008 282.377 128.552 281.642 129.762L277.268 136.955H273.046Z" fill="#FE5244"/>
<path d="M327.78 157.723H312.239C312.206 157.691 312.163 157.648 312.131 157.615C308.351 153.727 306.742 147.83 308.869 142.15L311.083 136.944H318.308L327.78 157.723Z" fill="#9A3B82"/>
<path d="M268.423 148.025H259.762C259.178 148.025 258.638 148.338 258.347 148.846L257.429 150.444C256.813 151.524 257.591 152.874 258.844 152.874H265.81C267.019 152.874 268.142 152.248 268.78 151.211L269.525 149.99C270.043 149.126 269.428 148.025 268.423 148.025Z" fill="#E57281"/>
<path d="M266.188 152.874H257.526C256.943 152.874 256.403 153.187 256.111 153.695L255.193 155.293C254.578 156.373 255.355 157.723 256.608 157.723H263.574C264.784 157.723 265.907 157.097 266.544 156.06L267.289 154.84C267.818 153.976 267.192 152.874 266.188 152.874Z" fill="#E57281"/>
<path d="M270.896 143.111H262.235C261.652 143.111 261.112 143.424 260.82 143.932L259.902 145.53C259.286 146.61 260.064 147.96 261.317 147.96H268.283C269.492 147.96 270.616 147.334 271.253 146.297L271.998 145.076C272.527 144.212 271.901 143.111 270.896 143.111Z" fill="#E57281"/>
<path d="M268.423 148.025H259.762C259.178 148.025 258.638 148.338 258.347 148.846L257.429 150.444C256.813 151.524 257.591 152.874 258.844 152.874H265.81C267.019 152.874 268.142 152.248 268.78 151.211L269.525 149.99C270.043 149.126 269.428 148.025 268.423 148.025Z" stroke="#9A3B82" stroke-width="0.54" stroke-miterlimit="10" stroke-linecap="round"/>
<path d="M266.188 152.874H257.526C256.943 152.874 256.403 153.187 256.111 153.695L255.193 155.293C254.578 156.373 255.355 157.723 256.608 157.723H263.574C264.784 157.723 265.907 157.097 266.544 156.06L267.289 154.84C267.818 153.976 267.192 152.874 266.188 152.874Z" stroke="#9A3B82" stroke-width="0.54" stroke-miterlimit="10" stroke-linecap="round"/>
<path d="M270.896 143.111H262.235C261.652 143.111 261.112 143.424 260.82 143.932L259.902 145.53C259.286 146.61 260.064 147.96 261.317 147.96H268.283C269.492 147.96 270.616 147.334 271.253 146.297L271.998 145.076C272.527 144.212 271.901 143.111 270.896 143.111Z" stroke="#9A3B82" stroke-width="0.54" stroke-miterlimit="10" stroke-linecap="round"/>
<path d="M283.435 150.336C280.832 150.336 278.327 149.396 276.361 147.679L273.078 144.806H270.054L269.276 145.638C267.883 147.128 266.166 147.982 264.125 147.982H262.678C261.922 147.982 261.457 147.139 261.868 146.502L265.507 140.8H283.446V150.336H283.435Z" fill="#E57281"/>
<path d="M265.507 140.8L261.868 146.502C261.457 147.139 261.922 147.982 262.678 147.982H264.125C266.166 147.982 267.883 147.139 269.276 145.638L270.054 144.806H273.078L276.361 147.679C278.316 149.386 280.832 150.336 283.435 150.336" stroke="#9A3B82" stroke-width="0.54" stroke-miterlimit="10" stroke-linecap="round"/>
<path d="M356.357 137.527L339.865 155.952C336.398 159.829 331.441 162.043 326.236 162.043C315.954 162.043 308.837 151.783 312.444 142.15L332.035 96.12L325.415 92.4156C324.475 91.6812 324.022 90.4824 324.227 89.316L325.35 81.7452C325.696 80.0604 327.413 78.7428 329.087 78.354L336.841 76.6044C337.5 76.4532 338.105 77.0148 337.997 77.6736L336.874 83.5164C336.431 86.3676 338.353 88.83 341.204 89.316C343.537 89.7156 345.179 92.0592 344.963 94.4136L339.682 127.354C339.671 127.375 345.082 135.81 356.357 137.527Z" fill="#E57281"/>
<path d="M343.71 102.244L337.338 143.618" stroke="#9A3B82" stroke-width="0.54" stroke-miterlimit="10" stroke-linecap="round"/>
<path d="M330.502 82.2959L330.415 84.9743C330.383 86.0759 331.042 87.0479 331.992 87.3179L341.917 89.3267" stroke="#9A3B82" stroke-width="0.54" stroke-miterlimit="10" stroke-linecap="round"/>
<path d="M348.667 90.1907L340.729 89.1323C338.116 88.6679 336.334 86.2271 336.701 83.6027L337.727 77.7383C337.824 77.1875 337.327 76.7231 336.787 76.8527L328.687 78.7427" stroke="#9A3B82" stroke-width="0.54" stroke-miterlimit="10" stroke-linecap="round"/>
<path d="M344.282 150.984L365.753 127.094" stroke="#FE5244" stroke-width="0.648" stroke-miterlimit="10"/>
<path d="M332.262 96.1307H336.053" stroke="#9A3B82" stroke-width="0.54" stroke-miterlimit="10" stroke-linecap="round"/>
<path d="M330.512 83.0088V83.8728C330.512 84.8988 331.258 85.7412 332.176 85.7412H333.364C333.882 85.7412 334.292 85.2768 334.292 84.6936L334.368 79.056C334.379 78.1812 333.45 77.6412 332.694 77.8248" stroke="#9A3B82" stroke-width="0.54" stroke-miterlimit="10" stroke-linecap="round"/>
<path d="M334.368 83.0087V83.8727C334.368 84.8987 335.113 85.7411 336.031 85.7411H336.787" stroke="#9A3B82" stroke-width="0.54" stroke-miterlimit="10" stroke-linecap="round"/>
<path d="M406.091 219.218L418.629 323.568" stroke="#66B0F0" stroke-width="0.648" stroke-miterlimit="10"/>
<path d="M351.745 219.218L339.206 323.568" stroke="#66B0F0" stroke-width="0.648" stroke-miterlimit="10"/>
<path d="M343.505 287.733H414.32" stroke="#66B0F0" stroke-width="0.648" stroke-miterlimit="10"/>
<path d="M344.52 219.542H412.668C413.575 219.542 414.309 218.808 414.309 217.901V215.676C414.309 214.769 413.575 214.034 412.668 214.034H344.52C343.613 214.034 342.878 214.769 342.878 215.676V217.901C342.878 218.808 343.613 219.542 344.52 219.542Z" fill="white" stroke="#FFCF2D" stroke-width="0.648" stroke-miterlimit="10"/>
<path d="M231.12 140.573L220.687 162.043H189.162L201.83 140.573H231.12Z" fill="white" stroke="#3FB1B5" stroke-width="0.54" stroke-miterlimit="10"/>
<path d="M224.208 145.811C224.208 145.811 222.836 143.467 219.542 144.072C217.08 144.515 214.164 146.545 212.371 145.454C210.578 144.364 208.991 143.003 206.669 143.651C204.347 144.299 202.63 145.541 202.63 145.541" stroke="#3FB1B5" stroke-width="0.54" stroke-miterlimit="10"/>
<path d="M223.128 149.159C223.128 149.159 221.756 146.815 218.462 147.42C216 147.863 213.084 149.893 211.291 148.802C209.498 147.712 207.911 146.351 205.589 146.999C203.267 147.647 201.55 148.889 201.55 148.889" stroke="#3FB1B5" stroke-width="0.54" stroke-miterlimit="10"/>
<path d="M242.978 236.93C242.978 239.814 234.976 242.147 224.953 242.147C214.931 242.147 207.166 239.814 207.166 236.93C207.166 234.047 214.931 231.714 224.953 231.714C234.976 231.714 242.978 234.057 242.978 236.93Z" fill="#FE5244"/>
<path d="M238.367 233.42V270.68L237.233 265.302C236.012 259.513 230.904 255.377 224.986 255.377C223.204 255.377 221.454 255.755 219.866 256.468C219.812 256.489 219.758 256.522 219.694 256.543L215.536 241.38L213.224 232.945C216.389 232.178 220.482 231.714 224.953 231.714C230.267 231.714 235.051 232.373 238.367 233.42Z" fill="#A0505A"/>
<path d="M238.367 233.421V240.441C235.051 241.488 230.267 242.147 224.953 242.147C221.508 242.147 218.29 241.866 215.536 241.391L213.224 232.956C216.389 232.189 220.482 231.725 224.953 231.725C230.267 231.714 235.051 232.373 238.367 233.421Z" fill="#73325A"/>
<path d="M237.568 269.59C237.859 269.676 240.602 270.443 243.032 270.443C244.35 270.443 245.57 270.216 246.262 269.525C246.856 268.931 246.996 268.067 246.683 266.976C246.402 266.004 245.862 265.399 245.074 265.183C243.626 264.794 241.618 265.874 240.03 267.008C242.503 264.006 244.944 260.194 244.037 257.699C243.713 256.813 242.978 256.219 242.06 256.111C241.294 256.025 240.581 256.295 240.246 256.802C238.691 259.168 237.416 268.877 237.362 269.287L237.568 269.59ZM240.7 257.105C240.894 256.813 241.304 256.64 241.78 256.64C241.855 256.64 241.931 256.64 242.006 256.651C242.352 256.694 243.184 256.889 243.54 257.882C243.778 258.541 243.864 259.751 242.903 261.781C241.996 263.704 240.354 265.961 238.021 268.52C238.367 266.058 239.468 258.973 240.7 257.105ZM245.884 269.147C245.171 269.86 243.551 270.076 241.186 269.773C239.944 269.611 238.788 269.352 238.172 269.19C238.637 268.78 239.501 268.034 240.505 267.343C242.428 266.015 243.961 265.442 244.944 265.712C245.538 265.874 245.938 266.339 246.175 267.127C246.434 268.034 246.337 268.693 245.884 269.147Z" fill="#FFCF2D"/>
<path d="M215.644 259.567L213.149 262.364C210.319 265.54 209.855 270.162 212.004 273.834L222.988 292.669C225.137 296.352 229.079 298.609 233.334 298.609H237.881C241.175 298.609 243.626 295.585 242.946 292.367L237.222 265.313C236.002 259.524 230.893 255.388 224.975 255.388C221.422 255.377 218.02 256.9 215.644 259.567Z" fill="white" stroke="#3FB1B5" stroke-width="0.54" stroke-miterlimit="10"/>
<path d="M224.143 267.71L238.324 295.186C238.993 296.428 239.825 297.227 240.775 297.734C239.954 298.285 238.961 298.62 237.881 298.62H233.334C229.068 298.62 225.126 296.352 222.988 292.68L212.004 273.834C211.561 273.067 211.226 272.268 211 271.436C209.444 265.658 216.022 261.122 220.957 264.514C222.08 265.28 223.182 266.317 224.143 267.71Z" fill="#3FB1B5"/>
<path d="M224.176 267.775H211.086C211.151 267.57 211.226 267.376 211.313 267.192H223.754C223.884 267.365 224.014 267.538 224.143 267.721L224.176 267.775Z" fill="white"/>
<path d="M226.098 271.49H211.021C211.021 271.469 211.01 271.447 211.01 271.436C210.967 271.264 210.924 271.08 210.892 270.907H225.806L226.098 271.49Z" fill="white"/>
<path d="M228.02 275.216H212.814L212.468 274.622H227.718L228.02 275.216Z" fill="white"/>
<path d="M229.943 278.942H214.985L214.639 278.348H229.64L229.943 278.942Z" fill="white"/>
<path d="M231.865 282.658H217.156L216.81 282.074H231.563L231.865 282.658Z" fill="white"/>
<path d="M233.788 286.383H219.326L218.981 285.789H233.474L233.788 286.383Z" fill="white"/>
<path d="M235.71 290.11H221.497L221.152 289.516H235.397L235.71 290.11Z" fill="white"/>
<path d="M237.622 293.825H223.754C223.614 293.63 223.474 293.436 223.344 293.241H237.319L237.622 293.825Z" fill="white"/>
<path d="M240.462 297.551H228.409C228.02 297.378 227.642 297.183 227.275 296.967H239.684C239.933 297.183 240.192 297.378 240.462 297.551Z" fill="white"/>
<path d="M198.742 236.163C198.644 239.015 190.555 241.326 180.598 241.326C170.64 241.326 162.551 239.025 162.454 236.163V213.71H198.742V236.163Z" fill="#73325A"/>
<path d="M196.333 239.89L196.279 242.557L195.761 268.596V267.84C195.761 261.155 190.339 255.733 183.654 255.733H182.92C179.507 255.733 176.429 257.062 174.15 259.2L172.562 248.465L171.58 241.823C174.236 242.266 177.314 242.514 180.587 242.514C187.326 242.503 193.19 241.445 196.333 239.89Z" fill="#A0505A"/>
<path d="M196.333 239.89L196.279 242.557C192.262 245.409 179.852 248.919 172.573 248.454L171.59 241.812C174.247 242.244 177.325 242.503 180.598 242.503C187.326 242.503 193.19 241.445 196.333 239.89Z" fill="#73325A"/>
<path d="M184.205 298.965H186.214C191.484 298.965 195.761 294.689 195.761 289.418V267.84C195.761 261.155 190.339 255.733 183.654 255.733H182.92C175.144 255.733 169.15 262.591 170.197 270.302L172.735 288.965C173.524 294.689 178.416 298.965 184.205 298.965Z" fill="white" stroke="#3FB1B5" stroke-width="0.54" stroke-miterlimit="10"/>
<path d="M192.758 296.363C191.052 297.972 188.741 298.965 186.214 298.965H184.205C178.416 298.965 173.524 294.689 172.746 288.965L170.208 270.302C170.165 269.946 170.122 269.589 170.111 269.244C170.759 265.107 174.334 261.943 178.654 261.943C180.781 261.943 182.747 262.721 184.27 264.017C185.792 265.313 186.862 267.138 187.196 269.244L190.534 292.021C190.782 293.717 191.581 295.229 192.758 296.363Z" fill="#3FB1B5"/>
<path d="M186.192 266.36H171.104C171.212 266.155 171.342 265.961 171.472 265.777H185.836C185.965 265.961 186.084 266.155 186.192 266.36Z" fill="white"/>
<path d="M187.315 270.076H170.176C170.154 269.881 170.133 269.687 170.122 269.492H187.229L187.315 270.076Z" fill="white"/>
<path d="M187.866 273.802H170.683L170.597 273.218H187.78L187.866 273.802Z" fill="white"/>
<path d="M188.406 277.528H171.191L171.104 276.934H188.32L188.406 277.528Z" fill="white"/>
<path d="M188.957 281.243H171.699L171.612 280.66H188.871L188.957 281.243Z" fill="white"/>
<path d="M189.497 284.969H172.195L172.12 284.386H189.411L189.497 284.969Z" fill="white"/>
<path d="M190.048 288.695H172.703L172.627 288.101H189.961L190.048 288.695Z" fill="white"/>
<path d="M190.599 292.41H173.772C173.675 292.216 173.589 292.021 173.513 291.827H190.501L190.534 292.021C190.555 292.151 190.577 292.28 190.599 292.41Z" fill="white"/>
<path d="M192.532 296.136H176.623C176.407 295.952 176.191 295.747 175.997 295.553H192.035C192.186 295.758 192.359 295.952 192.532 296.136Z" fill="white"/>
<path d="M206.593 119.459V137.646C205.805 135.583 199.562 135.875 192.694 138.477C186.807 140.713 182.39 143.78 181.742 145.908V120.312C181.742 112.698 185.814 105.894 192.067 102.179C200.189 103.593 206.593 110.667 206.593 119.459Z" fill="#FFCF2D"/>
<path d="M181.267 102.999C175.738 106.844 172.217 113.227 172.217 120.312V141.426H141.469L145.714 123.152C147.517 115.365 153.155 109.155 160.499 106.509L181.267 102.999Z" fill="#FFCF2D"/>
<path d="M243.454 193.374V235.764C243.454 232.88 234.976 230.547 224.953 230.547C214.931 230.547 206.809 232.88 206.809 235.764V215.449C206.809 214.499 206.032 213.721 205.081 213.721H149.958C133.38 213.721 121.122 198.288 124.87 182.142L138.175 124.815C140.292 115.668 147.701 108.702 156.956 107.125L160.499 106.52C153.155 109.166 147.517 115.376 145.714 123.163L141.469 141.437H172.217V120.312C172.217 113.227 175.748 106.833 181.267 102.999L186.127 102.179C187.132 102.006 188.114 101.93 189.097 101.93C189.227 101.93 189.346 101.93 189.475 101.93C189.594 101.93 189.713 101.941 189.821 101.941C189.842 101.941 189.864 101.941 189.886 101.941C189.972 101.941 190.069 101.952 190.156 101.952C190.166 101.952 190.188 101.952 190.199 101.952C190.253 101.952 190.307 101.963 190.35 101.963C190.447 101.973 190.534 101.973 190.631 101.984C190.739 101.995 190.858 102.006 190.966 102.017C191.074 102.027 191.171 102.038 191.279 102.049C191.3 102.049 191.322 102.06 191.354 102.06C191.462 102.071 191.581 102.092 191.689 102.103C191.7 102.103 191.711 102.103 191.711 102.103C191.83 102.125 191.948 102.135 192.067 102.157C185.814 105.872 181.742 112.676 181.742 120.29V172.184H222.286C233.971 172.206 243.454 181.677 243.454 193.374Z" fill="#FE5244"/>
<path d="M181.969 102.524C176.44 106.369 172.206 113.227 172.206 120.312V141.426H141.458L145.703 123.152C147.506 115.365 152.669 109.037 160.024 106.391" stroke="white" stroke-width="0.648" stroke-miterlimit="10" stroke-linecap="round"/>
<path d="M206.809 208.937C206.809 202.921 208.937 197.1 212.814 192.51" stroke="white" stroke-width="0.648" stroke-miterlimit="10" stroke-linecap="round"/>
<path d="M161.892 206.787C161.838 206.787 161.784 206.777 161.741 206.744L160.315 205.967C160.153 205.88 160.099 205.686 160.186 205.524C160.272 205.362 160.466 205.308 160.628 205.394L162.054 206.172C162.216 206.258 162.27 206.453 162.184 206.615C162.119 206.723 162.011 206.787 161.892 206.787ZM163.318 206.42C163.199 206.42 163.091 206.355 163.037 206.247C162.95 206.085 163.004 205.891 163.166 205.805L164.592 205.027C164.754 204.941 164.948 205.005 165.035 205.157C165.121 205.319 165.067 205.513 164.905 205.599L163.48 206.377C163.426 206.399 163.372 206.42 163.318 206.42ZM159.041 205.243C158.987 205.243 158.933 205.232 158.89 205.2L157.464 204.422C157.302 204.336 157.248 204.141 157.334 203.979C157.421 203.817 157.615 203.763 157.777 203.85L159.203 204.627C159.365 204.714 159.419 204.908 159.332 205.07C159.268 205.178 159.16 205.243 159.041 205.243ZM166.158 204.865C166.039 204.865 165.931 204.8 165.877 204.692C165.791 204.53 165.845 204.336 166.007 204.249L167.432 203.472C167.681 203.342 167.908 203.191 168.134 203.029C168.275 202.921 168.48 202.953 168.588 203.094C168.696 203.234 168.664 203.439 168.523 203.547C168.275 203.731 168.016 203.893 167.746 204.044L166.32 204.822C166.266 204.854 166.212 204.865 166.158 204.865ZM156.222 203.645C156.157 203.645 156.092 203.623 156.028 203.58C155.574 203.245 155.153 202.856 154.796 202.413C154.678 202.273 154.699 202.068 154.84 201.96C154.98 201.841 155.185 201.863 155.293 202.003C155.617 202.403 155.995 202.748 156.406 203.051C156.546 203.159 156.578 203.364 156.481 203.504C156.427 203.601 156.33 203.645 156.222 203.645ZM169.495 202.511C169.42 202.511 169.355 202.489 169.29 202.435C169.15 202.327 169.128 202.122 169.247 201.981C169.571 201.582 169.841 201.15 170.057 200.675C170.132 200.513 170.327 200.437 170.489 200.513C170.651 200.588 170.726 200.783 170.651 200.945C170.413 201.463 170.111 201.949 169.754 202.381C169.679 202.467 169.592 202.511 169.495 202.511ZM154.192 201.171C154.073 201.171 153.954 201.107 153.9 200.988C153.662 200.469 153.49 199.929 153.382 199.368C153.349 199.195 153.468 199.022 153.641 198.99C153.814 198.957 153.986 199.076 154.019 199.249C154.116 199.757 154.267 200.243 154.483 200.707C154.559 200.869 154.483 201.063 154.321 201.139C154.278 201.161 154.235 201.171 154.192 201.171ZM170.834 199.595C170.813 199.595 170.791 199.595 170.78 199.595C170.608 199.562 170.489 199.389 170.521 199.217C170.586 198.86 170.618 198.504 170.618 198.147V197.661C170.618 197.478 170.759 197.337 170.942 197.337C171.126 197.337 171.266 197.478 171.266 197.661V198.147C171.266 198.547 171.234 198.947 171.158 199.335C171.126 199.487 170.986 199.595 170.834 199.595ZM153.598 198.018C153.414 198.018 153.274 197.877 153.274 197.694V196.074C153.274 195.89 153.414 195.75 153.598 195.75C153.781 195.75 153.922 195.89 153.922 196.074V197.694C153.922 197.867 153.77 198.018 153.598 198.018ZM170.932 196.365C170.748 196.365 170.608 196.225 170.608 196.041V194.421C170.608 194.238 170.748 194.097 170.932 194.097C171.115 194.097 171.256 194.238 171.256 194.421V196.041C171.256 196.225 171.115 196.365 170.932 196.365ZM153.598 194.778C153.414 194.778 153.274 194.637 153.274 194.454V192.834C153.274 192.65 153.414 192.51 153.598 192.51C153.781 192.51 153.922 192.65 153.922 192.834V194.454C153.922 194.627 153.77 194.778 153.598 194.778ZM170.932 193.125C170.748 193.125 170.608 192.985 170.608 192.801V191.181C170.608 190.998 170.748 190.857 170.932 190.857C171.115 190.857 171.256 190.998 171.256 191.181V192.801C171.256 192.985 171.115 193.125 170.932 193.125ZM153.598 191.538C153.414 191.538 153.274 191.397 153.274 191.214V189.594C153.274 189.41 153.414 189.27 153.598 189.27C153.781 189.27 153.922 189.41 153.922 189.594V191.214C153.922 191.387 153.77 191.538 153.598 191.538ZM170.932 189.885C170.748 189.885 170.608 189.745 170.608 189.561V187.941C170.608 187.758 170.748 187.617 170.932 187.617C171.115 187.617 171.256 187.758 171.256 187.941V189.561C171.256 189.745 171.115 189.885 170.932 189.885ZM153.598 188.298C153.414 188.298 153.274 188.157 153.274 187.974V186.581H154.148C154.332 186.581 154.472 186.721 154.472 186.905C154.472 187.088 154.332 187.229 154.148 187.229H153.922V187.974C153.922 188.147 153.77 188.298 153.598 188.298ZM170.348 187.229H168.728C168.545 187.229 168.404 187.088 168.404 186.905C168.404 186.721 168.545 186.581 168.728 186.581H170.348C170.532 186.581 170.672 186.721 170.672 186.905C170.672 187.088 170.532 187.229 170.348 187.229ZM167.108 187.229H165.488C165.305 187.229 165.164 187.088 165.164 186.905C165.164 186.721 165.305 186.581 165.488 186.581H167.108C167.292 186.581 167.432 186.721 167.432 186.905C167.432 187.088 167.292 187.229 167.108 187.229ZM163.868 187.229H162.248C162.065 187.229 161.924 187.088 161.924 186.905C161.924 186.721 162.065 186.581 162.248 186.581H163.868C164.052 186.581 164.192 186.721 164.192 186.905C164.192 187.088 164.052 187.229 163.868 187.229ZM160.628 187.229H159.008C158.825 187.229 158.684 187.088 158.684 186.905C158.684 186.721 158.825 186.581 159.008 186.581H160.628C160.812 186.581 160.952 186.721 160.952 186.905C160.952 187.088 160.812 187.229 160.628 187.229ZM157.388 187.229H155.768C155.585 187.229 155.444 187.088 155.444 186.905C155.444 186.721 155.585 186.581 155.768 186.581H157.388C157.572 186.581 157.712 186.721 157.712 186.905C157.712 187.088 157.572 187.229 157.388 187.229Z" fill="white"/>
<path d="M131.328 204.995C131.209 204.995 131.101 204.93 131.047 204.822C130.961 204.66 131.015 204.465 131.177 204.379L132.494 203.655C132.527 203.634 132.559 203.623 132.592 203.601C132.743 203.515 132.948 203.569 133.034 203.72C133.121 203.871 133.067 204.077 132.916 204.163C132.883 204.185 132.851 204.206 132.808 204.217L131.49 204.941C131.436 204.984 131.382 204.995 131.328 204.995ZM134.06 203.267C133.974 203.267 133.888 203.234 133.823 203.159C133.704 203.029 133.715 202.824 133.844 202.705C134.222 202.359 134.557 201.96 134.849 201.539C134.946 201.387 135.151 201.355 135.302 201.452C135.454 201.549 135.486 201.755 135.389 201.906C135.076 202.37 134.698 202.802 134.287 203.191C134.212 203.245 134.136 203.267 134.06 203.267ZM135.864 200.61C135.821 200.61 135.788 200.599 135.745 200.588C135.583 200.523 135.497 200.34 135.562 200.167C135.745 199.681 135.875 199.184 135.95 198.677C135.972 198.504 136.134 198.374 136.318 198.396C136.49 198.417 136.62 198.579 136.598 198.763C136.523 199.325 136.382 199.875 136.177 200.405C136.112 200.534 135.994 200.61 135.864 200.61ZM136.328 197.435C136.145 197.435 136.004 197.294 136.004 197.111V195.491C136.004 195.307 136.145 195.167 136.328 195.167C136.512 195.167 136.652 195.307 136.652 195.491V197.111C136.652 197.283 136.512 197.435 136.328 197.435ZM136.328 194.195C136.145 194.195 136.004 194.054 136.004 193.871V192.251C136.004 192.067 136.145 191.927 136.328 191.927C136.512 191.927 136.652 192.067 136.652 192.251V193.871C136.652 194.043 136.512 194.195 136.328 194.195ZM136.328 190.955C136.145 190.955 136.004 190.814 136.004 190.631V189.011C136.004 188.827 136.145 188.687 136.328 188.687C136.512 188.687 136.652 188.827 136.652 189.011V190.631C136.652 190.803 136.512 190.955 136.328 190.955ZM136.328 187.715C136.145 187.715 136.004 187.574 136.004 187.391V187.229H135.194C135.011 187.229 134.87 187.088 134.87 186.905C134.87 186.721 135.011 186.581 135.194 186.581H136.652V187.391C136.652 187.563 136.512 187.715 136.328 187.715ZM133.574 187.229H131.954C131.771 187.229 131.63 187.088 131.63 186.905C131.63 186.721 131.771 186.581 131.954 186.581H133.574C133.758 186.581 133.898 186.721 133.898 186.905C133.898 187.088 133.747 187.229 133.574 187.229ZM130.334 187.229H128.714C128.531 187.229 128.39 187.088 128.39 186.905C128.39 186.721 128.531 186.581 128.714 186.581H130.334C130.518 186.581 130.658 186.721 130.658 186.905C130.658 187.088 130.507 187.229 130.334 187.229ZM127.094 187.229H125.474C125.291 187.229 125.15 187.088 125.15 186.905C125.15 186.721 125.291 186.581 125.474 186.581H127.094C127.278 186.581 127.418 186.721 127.418 186.905C127.418 187.088 127.267 187.229 127.094 187.229Z" fill="white"/>
<path d="M206.593 137.645C207.382 139.708 202.392 143.369 195.534 145.972C188.676 148.575 182.531 148.975 181.742 146.901C180.954 144.827 185.825 141.091 192.694 138.488C199.562 135.885 205.805 135.572 206.593 137.645Z" fill="#FE5244"/>
<path d="M210.427 204.649V205.794C210.071 205.707 209.693 205.664 209.315 205.664H207.922C205.859 205.664 204.098 204.347 203.429 202.511L207.382 201.981C208.991 201.765 210.427 203.018 210.427 204.649Z" fill="#73325A"/>
<path d="M214.078 210.427V219.218C214.078 221.27 212.414 222.933 210.362 222.933H206.226C205.2 222.933 204.271 222.523 203.602 221.843C202.932 221.173 202.511 220.244 202.511 219.218H205.2C206.086 219.218 206.798 218.505 206.798 217.62V215.319C206.798 214.434 206.086 213.721 205.2 213.721H191.452C186.084 213.721 181.732 209.369 181.732 204.001V145.919C182.38 143.791 186.797 140.713 192.683 138.488C196.7 136.965 200.513 136.231 203.137 136.296V200.901C203.137 203.537 205.276 205.675 207.911 205.675H209.304C211.939 205.664 214.078 207.792 214.078 210.427Z" fill="#A0505A"/>
<path d="M203.137 136.285V142.16C201.182 143.478 198.536 144.828 195.523 145.962C188.654 148.565 182.52 148.964 181.732 146.891V145.908C182.38 143.78 186.797 140.702 192.683 138.477C196.711 136.955 200.513 136.22 203.137 136.285Z" fill="#73325A"/>
<path d="M185.177 92.5343L181.116 103L160.186 106.747L165.65 92.5343H185.177Z" fill="#A0505A"/>
<path d="M185.177 92.5342L182.984 98.1934L162.227 101.433L165.65 92.5342H185.177Z" fill="#73325A"/>
<path d="M197.446 71.2366C197.446 72.6514 194.994 74.2174 192.164 75.535C188.309 77.3386 183.762 78.7102 183.762 78.7102L180.695 84.4882C184.864 86.7022 186.494 90.6766 187.142 93.4522C187.553 95.2234 187.553 96.487 187.553 96.487H158.155C158.155 96.487 150.433 71.4742 169.042 65.491C180.425 61.8298 197.446 67.8778 197.446 71.2366Z" fill="white" stroke="#FFCF2D" stroke-width="0.648" stroke-miterlimit="10" stroke-linecap="round"/>
<path d="M166.32 69.055C170.358 69.055 173.631 65.7814 173.631 61.7434C173.631 57.7053 170.358 54.4318 166.32 54.4318C162.282 54.4318 159.008 57.7053 159.008 61.7434C159.008 65.7814 162.282 69.055 166.32 69.055Z" fill="white" stroke="#FFCF2D" stroke-width="0.648" stroke-miterlimit="10" stroke-linecap="round"/>
<path d="M187.132 93.452C186.527 90.8276 185.015 87.0908 181.289 84.8336H180.328C179.442 84.8336 178.632 84.4772 178.049 83.894C177.466 83.3108 177.109 82.5008 177.109 81.6152C177.109 79.8332 178.546 78.3968 180.328 78.3968L184.399 78.4832H184.507C184.583 78.4616 184.658 78.4292 184.745 78.4076C185.846 78.17 189.335 77.3276 192.229 75.8804L192.564 77.8784L193.644 84.2828C194.378 88.6784 191.365 92.7284 187.132 93.452Z" fill="#A0505A"/>
<path d="M192.553 77.8678C189.011 79.3042 184.388 78.4725 184.388 78.4725C184.388 78.4725 188.741 77.6086 192.218 75.8698L192.553 77.8678Z" fill="#73325A"/>
<path d="M182.833 82.231C182.833 80.9998 181.84 80.0062 180.608 80.0062" stroke="#73325A" stroke-width="0.54" stroke-miterlimit="10" stroke-linecap="round"/>
<path d="M194.27 219.218L206.809 323.568" stroke="#66B0F0" stroke-width="0.648" stroke-miterlimit="10"/>
<path d="M139.914 219.218L127.386 323.568" stroke="#66B0F0" stroke-width="0.648" stroke-miterlimit="10"/>
<path d="M131.684 287.733H202.5" stroke="#66B0F0" stroke-width="0.648" stroke-miterlimit="10"/>
<path d="M129.017 219.218H205.168C206.075 219.218 206.809 218.484 206.809 217.577V215.352C206.809 214.445 206.075 213.71 205.168 213.71H129.017C128.11 213.71 127.375 214.445 127.375 215.352V217.577C127.386 218.484 128.12 219.218 129.017 219.218Z" fill="white" stroke="#FFCF2D" stroke-width="0.648" stroke-miterlimit="10"/>
</svg>
