<svg width="453" height="329" viewBox="0 0 453 329" fill="none" xmlns="http://www.w3.org/2000/svg">
<rect x="0.5" y="221.555" width="452" height="106" rx="18.5" fill="#FFEBBF"/>
<rect x="0.5" y="221.555" width="452" height="106" rx="18.5" stroke="#FFDE97"/>
<path d="M421.112 242.116V281.11H362.449L373.879 221.23C373.512 223.594 380.829 228.027 390.841 232.471C394.434 234.067 398.441 235.651 402.72 237.152C409.623 239.587 415.982 241.241 421.112 242.116Z" fill="#9A3B82"/>
<path d="M421.112 230.391V240.828C415.982 239.953 409.634 238.31 402.708 235.875C386.384 230.142 373.82 223.062 374.529 219.883C374.541 219.835 374.553 219.788 374.564 219.753C375.664 216.644 390.12 218.795 406.668 224.599C411.987 226.466 416.785 228.393 420.816 230.249C420.911 230.296 421.005 230.343 421.112 230.391Z" fill="#FFCF2D"/>
<path d="M413.062 140.039C407.341 140.039 402.708 144.672 402.708 150.381V178.725C402.708 184.434 398.074 189.068 392.365 189.068H350.901C356.622 189.068 361.243 184.434 361.243 178.725V150.381C361.243 144.66 365.877 140.039 371.586 140.039H413.062Z" fill="white" stroke="#FFCF2D" stroke-width="0.591" stroke-miterlimit="10"/>
<path d="M394.93 154.707H368.524V179.21H394.93V154.707Z" fill="white" stroke="#FFCF2D" stroke-width="0.591" stroke-miterlimit="10"/>
<path d="M394.918 158.206H368.524" stroke="#FFCF2D" stroke-width="0.591" stroke-miterlimit="10"/>
<path d="M394.918 161.705H368.524" stroke="#FFCF2D" stroke-width="0.591" stroke-miterlimit="10"/>
<path d="M394.918 165.215H368.524" stroke="#FFCF2D" stroke-width="0.591" stroke-miterlimit="10"/>
<path d="M394.918 168.714H368.524" stroke="#FFCF2D" stroke-width="0.591" stroke-miterlimit="10"/>
<path d="M394.918 172.225H368.524" stroke="#FFCF2D" stroke-width="0.591" stroke-miterlimit="10"/>
<path d="M394.918 175.723H368.524" stroke="#FFCF2D" stroke-width="0.591" stroke-miterlimit="10"/>
<path d="M402.708 150.381C402.708 144.696 407.294 140.086 412.956 140.039C418.629 140.086 423.204 144.696 423.204 150.381H402.708Z" fill="#66B0F0" stroke="#FFCF2D" stroke-width="0.591" stroke-miterlimit="10"/>
<path d="M392.413 189.328C392.401 189.328 392.377 189.328 392.365 189.328H351.054C351.031 189.328 351.007 189.328 350.984 189.328C346.74 189.269 343.111 186.645 341.575 182.933H382.968C384.517 186.645 388.146 189.269 392.413 189.328Z" fill="#FFCF2D"/>
<path d="M370.25 151.894H365.475V148.064H367.721V150.192C367.721 150.239 367.744 150.275 367.768 150.286L367.78 150.298L370.25 151.894Z" fill="#FE5244"/>
<path d="M372.106 149.388V149.896C372.106 149.991 372.094 150.085 372.094 150.18C372.094 150.204 372.082 150.239 372.082 150.263C372.07 150.31 372.07 150.357 372.059 150.405C371.929 151.055 371.539 151.587 371.054 151.788C371.018 151.799 370.983 151.811 370.948 151.823C370.888 151.847 370.818 151.858 370.758 151.87C370.735 151.87 370.711 151.882 370.688 151.882L367.981 150.121C368.004 149.707 368.264 149.376 368.572 149.376H372.106V149.388Z" fill="#FE5244"/>
<path d="M398.476 148.064V151.894H393.701L396.16 150.298L396.171 150.286C396.183 150.275 396.183 150.275 396.195 150.275C396.195 150.263 396.207 150.263 396.207 150.251C396.207 150.251 396.207 150.239 396.219 150.239C396.219 150.227 396.219 150.227 396.231 150.227C396.231 150.227 396.231 150.227 396.231 150.215C396.231 150.204 396.231 150.204 396.231 150.192V148.064H398.476Z" fill="#FE5244"/>
<path d="M395.994 150.133L393.287 151.894C393.216 151.882 393.145 151.87 393.075 151.859C393.051 151.847 393.027 151.847 393.004 151.835C392.968 151.823 392.945 151.811 392.909 151.799C392.885 151.788 392.85 151.776 392.826 151.764C392.46 151.563 392.153 151.173 391.999 150.688C391.975 150.617 391.952 150.547 391.94 150.476C391.928 150.452 391.928 150.416 391.916 150.381C391.893 150.227 391.869 150.074 391.869 149.908V149.4H395.415C395.71 149.388 395.97 149.719 395.994 150.133Z" fill="#FE5244"/>
<path d="M395.994 146.126V149.459C395.97 149.435 395.947 149.4 395.923 149.376C395.876 149.329 395.829 149.294 395.781 149.258C395.663 149.187 395.533 149.14 395.403 149.14H368.56C368.418 149.14 368.288 149.187 368.182 149.258C368.134 149.294 368.087 149.329 368.04 149.376C368.016 149.4 367.993 149.424 367.969 149.459V146.126C367.969 145.677 368.229 145.322 368.56 145.322H395.403C395.722 145.322 395.994 145.688 395.994 146.126Z" fill="#FE5244"/>
<path d="M421.112 194.493V240.828H421.1C415.97 239.953 409.623 238.31 402.696 235.875C398.417 234.374 394.41 232.778 390.817 231.194L392.744 220.438L396.018 202.176C385.746 198.961 384.08 189.08 384.08 189.08H392.342C398.063 189.08 402.684 184.446 402.684 178.737V175.333H397.377C393.654 175.333 390.628 171.669 390.628 167.946V166.74H402.424C404.611 166.74 406.668 167.768 407.98 169.518L416.608 181.042C419.54 184.919 421.112 189.635 421.112 194.493Z" fill="#A0505A"/>
<path d="M421.112 230.391V240.828H421.1C415.97 239.953 409.623 238.31 402.696 235.875C398.417 234.374 394.41 232.778 390.817 231.194L392.744 220.438C396.999 221.478 401.727 222.885 406.644 224.611C411.963 226.478 416.762 228.405 420.781 230.261C420.911 230.296 421.005 230.343 421.112 230.391Z" fill="#73325A"/>
<path d="M403.228 175.333H397.531C393.807 175.333 390.781 171.669 390.781 167.946V166.74H403.228V175.333Z" fill="#A0505A"/>
<path d="M399.647 186.846C399.647 186.846 407.862 189.931 408.606 200.533" stroke="#73325A" stroke-width="0.591" stroke-miterlimit="10"/>
<path d="M396.042 202.425H401.632" stroke="#73325A" stroke-width="0.591" stroke-miterlimit="10"/>
<path d="M390.829 69.8988L394.576 67.4166C399.457 64.1897 405.994 67.3811 406.455 73.2084L407.27 83.5272C407.72 89.189 413.949 92.4159 418.83 89.52L421.194 88.1134" stroke="#FFCF2D" stroke-width="0.7092" stroke-miterlimit="10"/>
<path d="M336.374 31.5664L384.517 59.5089L408.76 113.94L380.947 95.2053L350.723 59.7926L336.374 31.5664Z" fill="#9A3B82"/>
<path d="M336.504 29.687L385.664 58.2323L410.427 113.81" stroke="#FFCF2D" stroke-width="0.7092" stroke-miterlimit="10"/>
<path d="M380.445 96.4074C382.694 94.5081 377.639 84.8206 369.153 74.7697C360.668 64.7188 351.965 58.1106 349.716 60.0098C347.466 61.9091 352.521 71.5966 361.007 81.6475C369.492 91.6984 378.195 98.3067 380.445 96.4074Z" fill="white"/>
<path d="M379.077 96.9884C381.282 95.127 376.324 85.6279 368.002 75.7715C359.681 65.9151 351.148 59.4339 348.943 61.2952C346.738 63.1566 351.697 72.6557 360.018 82.5121C368.34 92.3685 376.873 98.8497 379.077 96.9884Z" fill="white" stroke="#FFCF2D" stroke-width="0.591" stroke-miterlimit="10"/>
<path d="M384.942 92.5813L380.356 96.4464C381.207 95.7254 381.018 93.9051 379.99 91.3638C378.3 87.1795 374.34 81.0686 369.068 74.804C363.785 68.5512 358.418 63.6223 354.577 61.2583C352.248 59.8163 350.475 59.3198 349.624 60.0408L354.21 56.1757C356.456 54.2727 365.558 60.49 374.044 70.5488C382.531 80.6076 387.2 90.6901 384.942 92.5813Z" fill="#FFCF2D"/>
<path d="M433.936 77.7944C435.237 77.1679 436.501 76.6123 437.719 76.1514C438.44 76.9078 439.066 77.7943 439.551 78.7872C440.035 79.7801 440.343 80.8203 440.485 81.8486C439.362 82.5105 438.144 83.1724 436.856 83.7989C430.39 86.9312 424.504 88.125 423.7 86.4702C422.885 84.8036 427.471 80.9266 433.936 77.7944Z" fill="#FFCF2D"/>
<path d="M422.518 88.7161C423.308 88.7161 423.948 88.0758 423.948 87.2859C423.948 86.496 423.308 85.8557 422.518 85.8557C421.728 85.8557 421.088 86.496 421.088 87.2859C421.088 88.0758 421.728 88.7161 422.518 88.7161Z" stroke="#9A3B82" stroke-width="0.7092" stroke-miterlimit="10"/>
<path d="M338.112 231.065V281.111H281.104L288.408 226.762C288.408 228.961 299.531 231.703 313.254 232.885C326.977 234.079 338.112 233.263 338.112 231.065Z" fill="#66B0F0"/>
<path d="M337.852 229.776C337.852 231.975 326.823 232.79 313.23 231.596C299.637 230.403 288.609 227.66 288.609 225.474C288.609 223.275 299.637 222.46 313.23 223.653C326.835 224.835 337.852 227.578 337.852 229.776Z" fill="#3FB1B5"/>
<path d="M345.759 118.833L349.211 121.067C352.662 123.739 347.887 135.677 338.549 147.71C329.211 159.754 318.845 167.343 315.393 164.671L313.691 163.064" stroke="#66B0F0" stroke-width="0.7092" stroke-miterlimit="10"/>
<path d="M297.829 174.908L337.012 139.046L350.712 97.333L308.893 135.334L297.829 174.908Z" fill="#66B0F0"/>
<path d="M295.831 179.257L338.478 140.228L352.39 97.853" stroke="#FE5244" stroke-width="0.7092" stroke-miterlimit="10" stroke-linecap="round"/>
<path d="M318.384 138.927L281.175 174.518C279.366 176.243 276.411 174.612 276.919 172.154L277.96 167.106C278.432 164.825 275.844 163.158 273.964 164.53L261.672 173.477" stroke="#FE5244" stroke-width="0.7092" stroke-miterlimit="10"/>
<path d="M251.66 186.219C250.561 187.141 249.462 187.992 248.398 188.737C247.511 188.181 246.696 187.484 245.975 186.633C245.265 185.782 244.71 184.86 244.32 183.891C245.242 182.969 246.258 182.035 247.358 181.101C252.854 176.48 258.267 173.867 259.461 175.286C260.643 176.704 257.156 181.598 251.66 186.219Z" fill="#FFCF2D"/>
<path d="M260.525 175.771C261.315 175.771 261.955 175.13 261.955 174.34C261.955 173.55 261.315 172.91 260.525 172.91C259.735 172.91 259.095 173.55 259.095 174.34C259.095 175.13 259.735 175.771 260.525 175.771Z" stroke="#FE5244" stroke-width="0.7092" stroke-miterlimit="10"/>
<path d="M320.145 193.394V232.046C317.958 231.951 315.63 231.809 313.23 231.596C304.377 230.828 296.623 229.386 292.285 227.873L292.935 223.594L295.11 209.233H292.297C288.29 209.233 285.052 205.994 285.052 201.987V187.756C285.052 184.943 286.068 182.236 287.924 180.12L297.179 169.541C297.782 168.856 298.916 169.281 298.916 170.192V184.576C298.916 186.302 298.302 187.969 297.179 189.281L296.351 190.25H306.398C307.852 190.25 308.703 188.631 307.888 187.425C306.647 185.617 305.015 183.04 303.467 180.061C300.382 174.163 305.737 170.865 305.737 170.865L317.994 186.763C319.389 188.69 320.145 191.018 320.145 193.394Z" fill="#FFCF2D"/>
<path d="M298.916 169.423V184.577C298.916 186.302 298.302 187.969 297.179 189.281L296.351 190.25" stroke="white" stroke-width="0.591" stroke-miterlimit="10" stroke-linecap="round"/>
<path d="M296.351 190.238L289.709 197.697" stroke="white" stroke-width="0.591" stroke-miterlimit="10" stroke-linecap="round"/>
<path d="M298.916 177.993C298.916 179.718 298.302 181.385 297.179 182.697L296.351 183.666L289.72 191.113" stroke="white" stroke-width="0.591" stroke-miterlimit="10" stroke-linecap="round"/>
<path d="M298.917 171.421C298.917 173.147 298.302 174.813 297.179 176.125L296.352 177.094L289.721 184.541" stroke="white" stroke-width="0.591" stroke-miterlimit="10" stroke-linecap="round"/>
<path d="M295.11 209.623H300.205" stroke="white" stroke-width="0.591" stroke-miterlimit="10" stroke-linecap="round"/>
<path d="M320.145 224.41V232.046C317.958 231.951 315.63 231.809 313.23 231.596C304.377 230.828 296.623 229.386 292.285 227.873L292.936 223.594C297.38 222.944 304.815 222.909 313.242 223.642C315.63 223.866 317.947 224.114 320.145 224.41Z" fill="#FE5244"/>
<path d="M262.936 281.11H197.016V215.758C197.016 218.547 207.855 220.805 221.235 220.805C234.616 220.805 245.455 218.547 245.455 215.758V215.746L262.936 281.11Z" fill="#3FB1B5"/>
<path d="M245.277 214.457C245.277 217.259 234.557 219.516 221.318 219.516C208.08 219.516 197.359 217.259 197.359 214.469V214.457C197.394 211.68 208.103 209.422 221.318 209.422C234.533 209.422 245.254 211.68 245.277 214.457Z" fill="#66B0F0"/>
<path d="M245.277 214.505C245.195 217.271 234.497 219.516 221.318 219.516C218.777 219.516 216.342 219.434 214.049 219.28V194.966H201.543C199.948 194.966 198.659 193.678 198.659 192.082V190.132C198.659 189.257 199.049 188.477 199.664 187.945C199.049 187.413 198.659 186.633 198.659 185.759V183.808C198.659 183.04 198.967 182.331 199.463 181.822C198.967 181.302 198.659 180.605 198.659 179.837V177.886C198.659 177.094 198.978 176.373 199.498 175.842C198.978 175.321 198.659 174.6 198.659 173.808V170.274C198.659 168.679 199.948 167.39 201.543 167.39H217.512C218.044 167.083 218.907 165.995 217.441 165.357L214.013 164.553C211.295 163.194 209.569 160.937 209.569 157.887H221.625C223.647 157.887 225.455 159.164 226.141 161.067L244.982 213.666L245.277 214.505Z" fill="#E57281"/>
<path d="M245.336 214.528C245.301 214.493 245.277 214.469 245.277 214.469C245.277 217.259 234.557 219.516 221.318 219.516C218.777 219.516 216.342 219.434 214.049 219.28V209.67C216.342 209.517 218.789 209.434 221.318 209.434C233.256 209.434 243.161 211.278 244.982 213.677C245.029 213.736 245.159 214.055 245.336 214.528Z" fill="#9A3B82"/>
<path d="M217.784 134.531V144.117C217.784 149.329 213.564 153.549 208.352 153.549C203.139 153.549 198.919 149.329 198.919 144.117V134.531C198.919 136.871 203.139 138.762 208.352 138.762C213.564 138.762 217.784 136.871 217.784 134.531Z" fill="white"/>
<path d="M208.352 138.762C213.561 138.762 217.784 136.868 217.784 134.531C217.784 132.194 213.561 130.299 208.352 130.299C203.142 130.299 198.919 132.194 198.919 134.531C198.919 136.868 203.142 138.762 208.352 138.762Z" fill="#FFCF2D"/>
<path d="M217.784 118.148V144.105C217.784 147.604 215.881 150.653 213.056 152.284C213.056 152.284 213.056 152.284 213.044 152.284C211.661 153.076 210.054 153.537 208.352 153.537C206.649 153.537 205.054 153.088 203.671 152.296C203.659 152.296 203.659 152.284 203.647 152.284C200.822 150.653 198.919 147.604 198.919 144.105V118.148H217.784Z" stroke="#FFCF2D" stroke-width="0.7092" stroke-miterlimit="10"/>
<path d="M208.352 122.38C213.62 122.38 217.89 120.485 217.89 118.148C217.89 115.811 213.62 113.917 208.352 113.917C203.083 113.917 198.813 115.811 198.813 118.148C198.813 120.485 203.083 122.38 208.352 122.38Z" fill="white" stroke="#FFCF2D" stroke-width="0.591" stroke-miterlimit="10"/>
<path d="M208.352 118.786C209.122 118.786 209.746 118.162 209.746 117.392C209.746 116.621 209.122 115.997 208.352 115.997C207.581 115.997 206.957 116.621 206.957 117.392C206.957 118.162 207.581 118.786 208.352 118.786Z" fill="#FFCF2D"/>
<path d="M205.278 147.273C205.957 147.273 206.508 146.722 206.508 146.043C206.508 145.364 205.957 144.814 205.278 144.814C204.599 144.814 204.049 145.364 204.049 146.043C204.049 146.722 204.599 147.273 205.278 147.273Z" fill="white" stroke="#FFCF2D" stroke-width="0.591" stroke-miterlimit="10"/>
<path d="M212.654 135.547C213.216 135.547 213.671 135.092 213.671 134.531C213.671 133.969 213.216 133.514 212.654 133.514C212.093 133.514 211.638 133.969 211.638 134.531C211.638 135.092 212.093 135.547 212.654 135.547Z" fill="white"/>
<path d="M202.82 143.171C203.381 143.171 203.836 142.716 203.836 142.154C203.836 141.593 203.381 141.138 202.82 141.138C202.258 141.138 201.803 141.593 201.803 142.154C201.803 142.716 202.258 143.171 202.82 143.171Z" fill="#FFCF2D"/>
<path d="M217.418 201.585H199.286C198.955 201.585 198.86 201.148 199.144 200.994L205.479 198.595C206.472 198.217 207.134 197.259 207.134 196.195V158.419C207.134 155.913 205.834 153.561 203.671 152.296C205.054 153.088 206.649 153.537 208.352 153.537C210.065 153.537 211.661 153.076 213.044 152.284C210.869 153.537 209.569 155.901 209.569 158.407V196.184C209.569 197.247 210.231 198.205 211.224 198.583L217.559 200.983C217.843 201.148 217.748 201.585 217.418 201.585Z" fill="white" stroke="#FFCF2D" stroke-width="0.591" stroke-miterlimit="10"/>
<path d="M201.638 103.952C202.526 103.952 203.245 103.233 203.245 102.345C203.245 101.457 202.526 100.737 201.638 100.737C200.75 100.737 200.03 101.457 200.03 102.345C200.03 103.233 200.75 103.952 201.638 103.952Z" fill="#FFCF2D"/>
<path d="M212.654 106.541C213.424 106.541 214.049 105.917 214.049 105.146C214.049 104.376 213.424 103.751 212.654 103.751C211.884 103.751 211.259 104.376 211.259 105.146C211.259 105.917 211.884 106.541 212.654 106.541Z" fill="white" stroke="#FFCF2D" stroke-width="0.591" stroke-miterlimit="10"/>
<path d="M205.822 111.978C206.384 111.978 206.839 111.523 206.839 110.962C206.839 110.4 206.384 109.945 205.822 109.945C205.261 109.945 204.806 110.4 204.806 110.962C204.806 111.523 205.261 111.978 205.822 111.978Z" fill="white" stroke="#FFCF2D" stroke-width="0.591" stroke-miterlimit="10"/>
<path d="M205.29 99.6025C205.754 99.6025 206.13 99.2268 206.13 98.7633C206.13 98.2998 205.754 97.9241 205.29 97.9241C204.827 97.9241 204.451 98.2998 204.451 98.7633C204.451 99.2268 204.827 99.6025 205.29 99.6025Z" fill="#FFCF2D"/>
<path d="M220.503 171.185V194.978H201.543C199.948 194.978 198.659 193.69 198.659 192.094V190.144C198.659 189.269 199.049 188.489 199.664 187.957C199.049 187.425 198.659 186.645 198.659 185.77V183.82C198.659 183.052 198.967 182.343 199.463 181.834C198.967 181.314 198.659 180.617 198.659 179.849V177.898C198.659 177.106 198.978 176.385 199.498 175.853C198.978 175.333 198.659 174.612 198.659 173.82V171.196H220.503V171.185Z" fill="#E57281"/>
<path d="M198.99 185.605C198.99 187.413 200.456 188.879 202.264 188.879H217.607C219.415 188.879 220.881 187.413 220.881 185.605" stroke="#9A3B82" stroke-width="0.591" stroke-miterlimit="10" stroke-linecap="round"/>
<path d="M198.99 179.707C198.99 181.515 200.456 182.981 202.264 182.981H217.607C219.415 182.981 220.881 181.515 220.881 179.707" stroke="#9A3B82" stroke-width="0.591" stroke-miterlimit="10" stroke-linecap="round"/>
<path d="M198.99 173.809C198.99 175.617 200.456 177.083 202.264 177.083H217.607C219.415 177.083 220.881 175.617 220.881 173.809" stroke="#9A3B82" stroke-width="0.591" stroke-miterlimit="10" stroke-linecap="round"/>
<path d="M202.111 194.777H217.607C219.415 194.777 220.881 193.312 220.881 191.503V169.388" stroke="#9A3B82" stroke-width="0.591" stroke-miterlimit="10" stroke-linecap="round"/>
<path d="M206.389 169.293H204.817C204.297 169.293 203.872 169.719 203.872 170.239C203.872 170.759 204.297 171.184 204.817 171.184H213.611C214.557 171.184 215.337 170.416 215.337 169.459C215.337 168.324 216.259 167.402 217.394 167.402H218.824C219.959 167.402 220.881 168.324 220.881 169.459V173.288" stroke="#9A3B82" stroke-width="0.591" stroke-miterlimit="10" stroke-linecap="round"/>
<path d="M313.715 47.4762L274.366 87.8297L229.001 37.8192L278.515 2.97388L313.715 47.4762Z" fill="#3FB1B5"/>
<path d="M272.83 89.7682L225.231 37.5947L277.428 1" stroke="#FFCF2D" stroke-width="0.7092" stroke-miterlimit="10"/>
<path d="M273.598 45.3958L276.565 44.9585C281.447 44.2375 285.974 47.618 286.695 52.4878L289.283 70.1233C290.158 76.0687 296.541 79.4729 301.966 76.8725L314.342 70.9507" stroke="#FFCF2D" stroke-width="0.7092" stroke-miterlimit="10"/>
<path d="M330.121 74.3313C331.386 75.0168 332.58 75.726 333.667 76.4352C333.478 77.4636 333.124 78.4801 332.603 79.4611C332.083 80.4304 331.421 81.2932 330.665 82.0143C329.471 81.4942 328.218 80.8914 326.953 80.2058C320.63 76.7898 316.221 72.7119 317.096 71.0926C317.97 69.4732 323.798 70.9153 330.121 74.3313Z" fill="#FFCF2D"/>
<path d="M315.748 72.0499C316.538 72.0499 317.178 71.4096 317.178 70.6197C317.178 69.8298 316.538 69.1895 315.748 69.1895C314.958 69.1895 314.318 69.8298 314.318 70.6197C314.318 71.4096 314.958 72.0499 315.748 72.0499Z" stroke="#66B0F0" stroke-width="0.7092" stroke-miterlimit="10"/>
<path d="M175.114 236.833V281.11H123.945V255.023C125.056 257.931 138.082 256.075 151.982 250.756C164.488 245.969 174.145 240.083 175.114 236.833Z" fill="#FE5244"/>
<path d="M175.114 235.544C174.133 238.795 164.488 244.681 151.97 249.468C138.082 254.787 125.056 256.643 123.933 253.735C122.81 250.827 134.039 244.244 147.94 238.925C161.828 233.606 174.003 231.655 175.114 234.563C175.232 234.859 175.232 235.19 175.114 235.544Z" fill="#66B0F0"/>
<path d="M164.275 206.183V243.7L161.45 245.13C158.589 246.525 155.386 247.908 151.982 249.208C145.729 251.608 139.642 253.298 134.749 254.173L137.562 243.121L142.148 225.084C139.973 225.084 137.916 224.114 136.533 222.436L117.704 201.018C120.931 198.075 125.754 202.082 125.754 202.082L123.945 192.85C123.52 190.664 124.158 188.394 125.659 186.751L131.38 180.475C132.515 179.234 134.559 179.718 135.032 181.326L139.098 195.356C139.098 195.356 149.193 203.063 151.084 203.063C153.223 203.063 153.968 201.325 149.973 195.616C146.97 191.326 149.973 188.193 149.973 188.193L159.748 196.42C162.62 198.855 164.275 202.425 164.275 206.183Z" fill="white" stroke="#FFCF2D" stroke-width="0.591" stroke-miterlimit="10"/>
<path d="M142.727 203.997L135.576 198.276L131.663 184.777C131.214 183.229 129.311 182.768 128.224 183.962" stroke="#FFCF2D" stroke-width="0.591" stroke-miterlimit="10"/>
<path d="M138.046 206.514L131.829 201.455L128.129 188.678C127.704 187.212 125.836 186.775 124.808 187.91" stroke="#FFCF2D" stroke-width="0.591" stroke-miterlimit="10"/>
<path d="M132.55 207.803L125.742 202.094" stroke="#FFCF2D" stroke-width="0.591" stroke-miterlimit="10"/>
<path d="M142.148 225.083H150.103" stroke="#FFCF2D" stroke-width="0.591" stroke-miterlimit="10"/>
<path d="M164.275 234.031V243.948C160.752 245.816 156.556 247.707 151.982 249.468C145.717 251.868 139.63 253.558 134.725 254.433L137.562 243.369C140.706 241.856 144.228 240.343 147.951 238.925C153.968 236.632 159.665 234.953 164.275 234.031Z" fill="#FFCF2D"/>
<path d="M156.261 109.141L159.854 117.025C160.197 119.945 158.117 122.58 155.197 122.935C152.278 123.278 150.197 125.926 150.54 128.845L151.06 133.218" stroke="#FFCF2D" stroke-width="0.7092" stroke-miterlimit="10"/>
<path d="M197.844 83.811L216.779 54.261L151.651 53.741L130.316 110.548L165.54 108.893L197.844 83.811Z" fill="#FE5244"/>
<path d="M217.559 52.0388L149.464 51.2705L126.853 110.891" stroke="#FFCF2D" stroke-width="0.7092" stroke-miterlimit="10"/>
<path d="M196.674 79.3784C200.456 85.8675 194.026 96.671 182.3 103.503C170.575 110.335 158.01 110.607 154.228 104.118C153.708 103.231 153.389 102.274 153.235 101.245C152.289 94.7562 158.471 85.8912 168.601 79.993C178.731 74.0948 189.487 73.0783 194.664 77.0971C195.48 77.7354 196.153 78.4919 196.674 79.3784Z" fill="#66B0F0" stroke="white" stroke-width="0.7092" stroke-miterlimit="10"/>
<path d="M193.671 74.225L196.674 79.3785C196.154 78.492 195.48 77.7355 194.664 77.0973C189.487 73.0785 178.731 74.095 168.601 79.9932C158.471 85.8913 152.301 94.7563 153.235 101.246C153.377 102.274 153.708 103.231 154.228 104.118L151.226 98.9643C147.443 92.4751 153.873 81.6716 165.599 74.8396C177.312 68.0195 189.889 67.7358 193.671 74.225Z" stroke="white" stroke-width="0.591" stroke-miterlimit="10" stroke-linecap="round"/>
<path d="M150.044 149.152C149.583 150.511 149.086 151.811 148.566 153.005C147.514 152.993 146.45 152.816 145.41 152.461C144.358 152.107 143.413 151.61 142.562 150.984C142.869 149.719 143.247 148.383 143.708 147.024C146.001 140.216 149.263 135.181 151.013 135.76C152.762 136.351 152.325 142.343 150.044 149.152Z" fill="#FFCF2D"/>
<path d="M151.249 135.784C152.039 135.784 152.679 135.143 152.679 134.353C152.679 133.563 152.039 132.923 151.249 132.923C150.459 132.923 149.819 133.563 149.819 134.353C149.819 135.143 150.459 135.784 151.249 135.784Z" stroke="#66B0F0" stroke-width="0.7092" stroke-miterlimit="10"/>
<path d="M90.2225 232.731V281.11H37.0798V209.906C38.12 213.393 49.2426 220.663 63.0484 226.738C77.7406 233.227 89.9152 235.899 90.2225 232.731Z" fill="#66B0F0"/>
<path d="M90.2225 231.443C89.9034 234.61 77.7406 231.927 63.0483 225.45C49.2426 219.363 38.1199 212.093 37.0798 208.618C37.0089 208.394 36.9852 208.181 37.0089 207.992C37.3162 204.824 49.4908 207.507 64.1831 213.984C78.8753 220.462 90.5416 228.275 90.2225 231.443Z" fill="#9A3B82"/>
<path d="M58.7696 162.047C60.0343 159.447 62.6702 157.792 65.5661 157.792H73.9228L74.3602 191.385L80.1874 222.259L82.0432 232.069C77.1261 230.982 70.4123 228.7 63.0603 225.462C58.8996 223.63 53.687 220.911 50.2119 218.996V178.123C50.2119 177.567 50.3183 177.012 50.5074 176.491L58.7696 162.047Z" fill="#A0505A"/>
<path d="M82.0312 232.069C77.1141 230.982 70.4003 228.7 63.0483 225.462C58.8876 223.63 53.675 220.911 50.2 218.996V208.725C53.9942 209.942 59.6087 211.975 64.183 213.985C70.353 216.703 75.743 219.504 80.1873 222.259L82.0312 232.069Z" fill="#73325A"/>
<path d="M113.153 120.027L68.6984 201.822C67.0554 204.848 62.5283 205.569 58.5923 203.429C54.6562 201.29 52.8005 197.106 54.4434 194.068L98.8985 112.273L113.153 120.027Z" fill="white" stroke="#FFCF2D" stroke-width="0.591" stroke-miterlimit="10"/>
<path d="M113.145 120.047C114.791 117.019 112.935 112.83 109.001 110.692C105.066 108.554 100.543 109.275 98.8967 112.304C97.2508 115.332 99.1062 119.52 103.041 121.659C106.975 123.797 111.499 123.076 113.145 120.047Z" fill="#66B0F0" stroke="#FFCF2D" stroke-width="0.591" stroke-miterlimit="10"/>
<path d="M84.1117 151.339L105.116 134.188L104.785 140.287L111.51 141.965L96.1917 151.421C100.305 150.712 105.258 150.133 109.336 150.452C114.194 150.83 112.562 156.516 110.742 161.374C114.997 160.96 129.264 152.32 134.642 153.951C137.928 154.944 136.746 161.646 135.801 165.345C137.172 165.416 144.11 165.333 144.11 165.333L140.446 168.678L142.455 172.024C134.654 172.366 134.559 171.137 135.541 165.605C135.706 159.589 129.04 165.369 114.844 168.761C107.811 170.44 108.721 165.865 110.458 161.102C109.761 158.915 104.548 156.539 87.7995 160.913L84.1117 151.339Z" fill="#FE5244"/>
<path d="M84.4189 161.787C87.8461 161.787 90.6244 159.009 90.6244 155.582C90.6244 152.155 87.8461 149.376 84.4189 149.376C80.9917 149.376 78.2134 152.155 78.2134 155.582C78.2134 159.009 80.9917 161.787 84.4189 161.787Z" fill="white" stroke="#FE5244" stroke-width="0.591" stroke-miterlimit="10"/>
<path d="M82.2796 157.792V158.182C82.2796 162.154 79.0645 165.381 75.0812 165.381H67.5282V157.792H82.2796Z" fill="#A0505A"/>
<path d="M91.4755 172.366L89.4779 177.047L87.1494 182.52L85.8846 185.487L83.958 190.014C83.9107 190.132 83.8398 190.262 83.7807 190.368C83.7807 190.38 83.7688 190.38 83.7688 190.392C83.1542 191.456 81.9604 192.118 80.6484 192.118H65.3415C63.4857 192.118 62.221 190.356 62.9065 188.737L64.0176 186.125L66.4644 180.38L68.5683 175.428L70.4241 171.078C70.9678 169.801 72.2798 168.962 73.7455 168.962H89.0524C90.8963 168.986 92.161 170.747 91.4755 172.366Z" fill="#A0505A"/>
<path d="M69.2065 175.451C69.8448 174.742 70.7668 174.317 71.7597 174.317H86.381C87.9176 174.317 89.0287 175.64 88.875 177.047" stroke="#73325A" stroke-width="0.591" stroke-miterlimit="10" stroke-linecap="round"/>
<path d="M67.2208 180.404C67.8473 179.778 68.7101 179.411 69.6439 179.411H84.2653C85.9437 179.411 87.1021 180.971 86.6765 182.508" stroke="#73325A" stroke-width="0.591" stroke-miterlimit="10" stroke-linecap="round"/>
<path d="M64.9277 186.137C65.5542 185.546 66.3934 185.203 67.2917 185.203H81.9131C83.6388 185.203 84.8326 186.881 84.2771 188.465" stroke="#73325A" stroke-width="0.591" stroke-miterlimit="10" stroke-linecap="round"/>
<path d="M117.799 34.8879C118.78 33.836 119.761 32.8549 120.73 31.9802C121.676 32.4176 122.574 33.0204 123.389 33.7769C124.193 34.5333 124.867 35.3844 125.375 36.2945C124.571 37.3229 123.673 38.3748 122.692 39.4268C117.799 44.6867 112.751 47.9372 111.392 46.6843C110.045 45.4314 112.905 40.1478 117.799 34.8879Z" fill="#FFCF2D"/>
<path d="M83.4496 76.5417L81.8894 77.511C76.2276 81.0215 65.1995 73.4685 57.2683 60.6438C49.3253 47.8191 47.4813 34.5925 53.1313 31.082L54.7388 30.0891L64.3012 58.2207L83.4496 76.5417Z" fill="#66B0F0"/>
<path d="M99.2884 91.7068L83.4496 76.5417L64.2894 58.2089L54.727 30.0891L46.1812 4.948L85.9791 37.0157L99.2884 91.7068Z" fill="#66B0F0" stroke="white" stroke-width="0.7092" stroke-miterlimit="10"/>
<path d="M100.53 90.2056L87.3148 35.609L47.0204 3.87231" stroke="#9A3B82" stroke-width="0.7092" stroke-miterlimit="10"/>
<path d="M78.2607 53.0436C77.2442 48.8357 79.8327 44.5923 84.0406 43.5758C88.0358 42.6065 92.0901 44.8878 93.343 48.7884L96.6644 59.5091C98.4965 65.4428 107.042 64.9818 108.236 58.8827L110.151 49.0366" stroke="#FFCF2D" stroke-width="0.7092" stroke-miterlimit="10"/>
<path d="M110.6 49.3084C111.39 49.3084 112.03 48.6681 112.03 47.8782C112.03 47.0883 111.39 46.448 110.6 46.448C109.81 46.448 109.17 47.0883 109.17 47.8782C109.17 48.6681 109.81 49.3084 110.6 49.3084Z" stroke="#66B0F0" stroke-width="0.7092" stroke-miterlimit="10"/>
</svg>
