<svg width="149" height="32" viewBox="0 0 149 32" fill="none" xmlns="http://www.w3.org/2000/svg">
<path d="M0.709839 14.9737L6.44894 9.23457L15.0576 31.9997L9.03153 6.46067L15.0576 0.530273L21.0836 6.46067L15.0576 31.9997L23.8575 9.23457L29.501 14.9737L15.0576 31.9997L0.709839 14.9737Z" fill="#EE2631"/>
<path d="M29.5009 14.974L23.8574 9.23486L15.0575 32L29.5009 14.974Z" fill="#FBD240"/>
<path d="M6.44894 9.23486L0.709839 14.974L15.0576 32L6.44894 9.23486Z" fill="#1355FF"/>
<path d="M45.7985 25.4194C44.3132 25.4194 42.9416 25.1922 41.6835 24.7379C40.4429 24.2661 39.3595 23.6021 38.4334 22.7459C37.5248 21.8897 36.8171 20.8763 36.3104 19.7056C35.8037 18.5348 35.5503 17.2418 35.5503 15.8265C35.5503 14.4111 35.8037 13.1181 36.3104 11.9474C36.8171 10.7766 37.5335 9.76319 38.4596 8.90699C39.3857 8.05079 40.4778 7.39554 41.7359 6.94123C43.0115 6.46945 44.4093 6.23356 45.9295 6.23356C47.7468 6.23356 49.363 6.53935 50.7784 7.15091C52.2112 7.76248 53.3907 8.63615 54.3168 9.77193L50.359 13.2579C49.7824 12.5939 49.1534 12.0959 48.4719 11.7639C47.8079 11.4144 47.0653 11.2397 46.244 11.2397C45.5626 11.2397 44.9423 11.3445 44.3831 11.5542C43.8414 11.7639 43.3784 12.0697 42.994 12.4716C42.6096 12.8735 42.3125 13.354 42.1028 13.9131C41.8932 14.4723 41.7883 15.1101 41.7883 15.8265C41.7883 16.5079 41.8932 17.137 42.1028 17.7136C42.3125 18.2727 42.6096 18.7533 42.994 19.1551C43.3784 19.557 43.8327 19.8716 44.3569 20.0987C44.8986 20.3084 45.5014 20.4132 46.1654 20.4132C46.8643 20.4132 47.5458 20.2997 48.2098 20.0725C48.8738 19.8279 49.5815 19.4172 50.3328 18.8406L53.7926 23.0867C52.6743 23.838 51.3987 24.4146 49.9659 24.8165C48.5331 25.2184 47.1439 25.4194 45.7985 25.4194ZM48.4195 22.3004V15.3285H53.7926V23.0867L48.4195 22.3004ZM63.8194 25.2621C62.1943 25.2621 60.7528 24.9476 59.4947 24.3185C58.2541 23.672 57.2756 22.7896 56.5592 21.6713C55.8427 20.553 55.4845 19.2687 55.4845 17.8184C55.4845 16.3681 55.8427 15.0838 56.5592 13.9655C57.2756 12.8472 58.2541 11.9736 59.4947 11.3445C60.7528 10.7155 62.1943 10.401 63.8194 10.401C65.4444 10.401 66.8859 10.7155 68.144 11.3445C69.4021 11.9736 70.3806 12.8472 71.0796 13.9655C71.796 15.0838 72.1542 16.3681 72.1542 17.8184C72.1542 19.2687 71.796 20.553 71.0796 21.6713C70.3806 22.7896 69.4021 23.672 68.144 24.3185C66.8859 24.9476 65.4444 25.2621 63.8194 25.2621ZM63.8194 20.6491C64.2562 20.6491 64.6493 20.5443 64.9988 20.3346C65.3483 20.1249 65.6278 19.8104 65.8375 19.391C66.0472 18.9542 66.1521 18.43 66.1521 17.8184C66.1521 17.1894 66.0472 16.6739 65.8375 16.272C65.6278 15.8527 65.3483 15.5381 64.9988 15.3285C64.6493 15.1188 64.2562 15.0139 63.8194 15.0139C63.3825 15.0139 62.9894 15.1188 62.6399 15.3285C62.2904 15.5381 62.0109 15.8527 61.8012 16.272C61.5915 16.6739 61.4867 17.1894 61.4867 17.8184C61.4867 18.43 61.5915 18.9542 61.8012 19.391C62.0109 19.8104 62.2904 20.1249 62.6399 20.3346C62.9894 20.5443 63.3825 20.6491 63.8194 20.6491Z" fill="#1355FF"/>
<path d="M83.968 10.401C85.0688 10.401 86.0648 10.6281 86.9559 11.0824C87.8471 11.5193 88.546 12.2095 89.0527 13.153C89.5769 14.0966 89.839 15.3197 89.839 16.8224V25H83.9155V17.8446C83.9155 16.9535 83.7583 16.3245 83.4438 15.9575C83.1292 15.5731 82.7011 15.3809 82.1595 15.3809C81.7576 15.3809 81.3819 15.477 81.0324 15.6692C80.7004 15.8439 80.4296 16.141 80.2199 16.5603C80.0277 16.9797 79.9316 17.5476 79.9316 18.264V25H74.0081V5.5521H79.9316V14.8567L78.5163 13.651C79.0754 12.5677 79.8268 11.7552 80.7703 11.2135C81.7314 10.6718 82.7972 10.401 83.968 10.401ZM92.4115 25V10.6631H98.335V25H92.4115ZM95.3733 9.50982C94.2899 9.50982 93.425 9.22151 92.7785 8.64489C92.1319 8.06827 91.8087 7.35186 91.8087 6.49566C91.8087 5.63946 92.1319 4.92305 92.7785 4.34643C93.425 3.76981 94.2899 3.4815 95.3733 3.4815C96.4566 3.4815 97.3215 3.75234 97.9681 4.29401C98.6146 4.83569 98.9378 5.53462 98.9378 6.39082C98.9378 7.29944 98.6146 8.05079 97.9681 8.64489C97.3215 9.22151 96.4566 9.50982 95.3733 9.50982ZM108.247 30.3469C106.832 30.3469 105.504 30.1983 104.263 29.9013C103.022 29.6042 101.956 29.1587 101.065 28.5646L103.057 24.5282C103.616 24.9651 104.324 25.3058 105.18 25.5504C106.054 25.8125 106.875 25.9436 107.644 25.9436C108.867 25.9436 109.741 25.6815 110.265 25.1573C110.789 24.6505 111.051 23.9166 111.051 22.9556V21.7499L111.314 17.2942L111.34 12.8385V10.6631H116.975V22.1431C116.975 24.9214 116.206 26.9832 114.668 28.3287C113.131 29.6741 110.99 30.3469 108.247 30.3469ZM107.094 24.2137C105.888 24.2137 104.761 23.9341 103.713 23.375C102.664 22.7984 101.817 21.9946 101.17 20.9636C100.524 19.9327 100.2 18.7096 100.2 17.2942C100.2 15.8789 100.524 14.6557 101.17 13.6248C101.817 12.5939 102.664 11.7988 103.713 11.2397C104.761 10.6805 105.888 10.401 107.094 10.401C108.334 10.401 109.348 10.6456 110.134 11.1349C110.938 11.6241 111.532 12.3842 111.916 13.4151C112.301 14.4286 112.493 15.7216 112.493 17.2942C112.493 18.8668 112.301 20.1686 111.916 21.1995C111.532 22.213 110.938 22.9731 110.134 23.4798C109.348 23.9691 108.334 24.2137 107.094 24.2137ZM108.666 19.6007C109.138 19.6007 109.557 19.5046 109.924 19.3124C110.291 19.1202 110.58 18.8494 110.789 18.4999C110.999 18.1504 111.104 17.7485 111.104 17.2942C111.104 16.8224 110.999 16.4206 110.789 16.0886C110.58 15.7391 110.291 15.477 109.924 15.3023C109.557 15.1101 109.138 15.0139 108.666 15.0139C108.212 15.0139 107.793 15.1101 107.408 15.3023C107.041 15.477 106.744 15.7391 106.517 16.0886C106.307 16.4206 106.203 16.8224 106.203 17.2942C106.203 17.7485 106.307 18.1504 106.517 18.4999C106.744 18.8494 107.041 19.1202 107.408 19.3124C107.793 19.5046 108.212 19.6007 108.666 19.6007ZM129.554 10.401C130.655 10.401 131.651 10.6281 132.542 11.0824C133.433 11.5193 134.132 12.2095 134.639 13.153C135.163 14.0966 135.425 15.3197 135.425 16.8224V25H129.502V17.8446C129.502 16.9535 129.344 16.3245 129.03 15.9575C128.715 15.5731 128.287 15.3809 127.746 15.3809C127.344 15.3809 126.968 15.477 126.619 15.6692C126.287 15.8439 126.016 16.141 125.806 16.5603C125.614 16.9797 125.518 17.5476 125.518 18.264V25H119.594V5.5521H125.518V14.8567L124.102 13.651C124.662 12.5677 125.413 11.7552 126.356 11.2135C127.318 10.6718 128.383 10.401 129.554 10.401ZM137.998 25V10.6631H143.633V14.9877L142.715 13.7559C143.152 12.6376 143.851 11.7988 144.812 11.2397C145.773 10.6805 146.927 10.401 148.272 10.401V15.643C148.01 15.608 147.774 15.5818 147.564 15.5644C147.372 15.5469 147.171 15.5381 146.962 15.5381C146.07 15.5381 145.336 15.774 144.76 16.2458C144.201 16.7001 143.921 17.4952 143.921 18.6309V25H137.998Z" fill="#EE2631"/>
<circle cx="95.3377" cy="6.79145" r="3.73041" fill="#FBD240"/>
</svg>
