<svg width="15" height="15" viewBox="0 0 15 15" fill="none" xmlns="http://www.w3.org/2000/svg">
<path d="M9.96624 10.7167L10.7162 9.96671L8.06625 7.30004V3.95004H7.06625V7.70004L9.96624 10.7167ZM7.51625 14.1667C6.60513 14.1667 5.74402 13.9917 4.93291 13.6417C4.1218 13.2917 3.41347 12.8139 2.80791 12.2084C2.20236 11.6028 1.72458 10.8945 1.37458 10.0834C1.02458 9.27226 0.849579 8.41115 0.849579 7.50004C0.849579 6.58893 1.02458 5.72782 1.37458 4.91671C1.72458 4.1056 2.20236 3.39726 2.80791 2.79171C3.41347 2.18615 4.1218 1.70837 4.93291 1.35837C5.74402 1.00837 6.60513 0.833374 7.51625 0.833374C8.42736 0.833374 9.28847 1.00837 10.0996 1.35837C10.9107 1.70837 11.619 2.18615 12.2246 2.79171C12.8301 3.39726 13.3079 4.1056 13.6579 4.91671C14.0079 5.72782 14.1829 6.58893 14.1829 7.50004C14.1829 8.41115 14.0079 9.27226 13.6579 10.0834C13.3079 10.8945 12.8301 11.6028 12.2246 12.2084C11.619 12.8139 10.9107 13.2917 10.0996 13.6417C9.28847 13.9917 8.42736 14.1667 7.51625 14.1667ZM7.51625 13.1667C9.0718 13.1667 10.4051 12.6112 11.5162 11.5C12.6274 10.3889 13.1829 9.0556 13.1829 7.50004C13.1829 5.94448 12.6274 4.61115 11.5162 3.50004C10.4051 2.38893 9.0718 1.83337 7.51625 1.83337C5.96069 1.83337 4.62736 2.38893 3.51625 3.50004C2.40513 4.61115 1.84958 5.94448 1.84958 7.50004C1.84958 9.0556 2.40513 10.3889 3.51625 11.5C4.62736 12.6112 5.96069 13.1667 7.51625 13.1667Z" fill="#828282"/>
</svg>
