<svg width="21" height="20" viewBox="0 0 21 20" fill="none" xmlns="http://www.w3.org/2000/svg">
<mask id="mask0_0_41" style="mask-type:alpha" maskUnits="userSpaceOnUse" x="0" y="0" width="21" height="20">
<rect x="0.7901" y="0.25" width="19.5" height="19.5" fill="#D9D9D9"/>
</mask>
<g mask="url(#mask0_0_41)">
<path d="M5.6651 16.5C5.21823 16.5 4.83567 16.3409 4.51744 16.0227C4.19921 15.7044 4.0401 15.3219 4.0401 14.875V12.4375H5.6651V14.875H15.4151V12.4375H17.0401V14.875C17.0401 15.3219 16.881 15.7044 16.5628 16.0227C16.2445 16.3409 15.862 16.5 15.4151 16.5H5.6651ZM10.5401 13.25L6.4776 9.1875L7.6151 8.00938L9.7276 10.1219V3.5H11.3526V10.1219L13.4651 8.00938L14.6026 9.1875L10.5401 13.25Z" fill="#4F4F4F"/>
</g>
</svg>
