<svg width="26" height="26" viewBox="0 0 26 26" fill="none" xmlns="http://www.w3.org/2000/svg">
<mask id="mask0_0_96" style="mask-type:alpha" maskUnits="userSpaceOnUse" x="0" y="0" width="26" height="26">
<rect x="0.753876" y="0.318848" width="24.7693" height="24.7693" fill="#D9D9D9"/>
</mask>
<g mask="url(#mask0_0_96)">
<path d="M6.94619 20.9601C6.37856 20.9601 5.89263 20.758 5.48841 20.3538C5.08419 19.9496 4.88208 19.4637 4.88208 18.896V15.7999H6.94619V18.896H19.3309V15.7999H21.395V18.896C21.395 19.4637 21.1929 19.9496 20.7886 20.3538C20.3844 20.758 19.8985 20.9601 19.3309 20.9601H6.94619ZM13.1385 16.8319L7.97825 11.6717L9.42312 10.1752L12.1065 12.8585V4.44727H14.1706V12.8585L16.8539 10.1752L18.2988 11.6717L13.1385 16.8319Z" fill="#EE2631"/>
</g>
</svg>
