<svg width="153" height="153" viewBox="0 0 153 153" fill="none" xmlns="http://www.w3.org/2000/svg">
<path d="M76.5 0.280762C83.4766 0.280762 90.2057 1.17139 96.6875 2.95264C103.169 4.73389 109.206 7.3068 114.797 10.6714C120.388 14.036 125.509 17.9943 130.16 22.5464C134.811 27.0985 138.794 32.2196 142.109 37.9097C145.424 43.5998 147.973 49.661 149.754 56.0933C151.535 62.5256 152.451 69.2547 152.5 76.2808C152.5 83.2573 151.609 89.9865 149.828 96.4683C148.047 102.95 145.474 108.986 142.109 114.578C138.745 120.169 134.786 125.29 130.234 129.941C125.682 134.592 120.561 138.575 114.871 141.89C109.181 145.205 103.12 147.753 96.6875 149.535C90.2552 151.316 83.526 152.231 76.5 152.281C69.5234 152.281 62.7943 151.39 56.3125 149.609C49.8307 147.828 43.7943 145.255 38.2031 141.89C32.612 138.526 27.4909 134.567 22.8398 130.015C18.1888 125.463 14.2057 120.342 10.8906 114.652C7.57552 108.962 5.02734 102.901 3.24609 96.4683C1.46484 90.036 0.549479 83.3068 0.5 76.2808C0.5 69.3042 1.39062 62.575 3.17188 56.0933C4.95312 49.6115 7.52604 43.575 10.8906 37.9839C14.2552 32.3927 18.2135 27.2716 22.7656 22.6206C27.3177 17.9696 32.4388 13.9865 38.1289 10.6714C43.819 7.35628 49.8802 4.80811 56.3125 3.02686C62.7448 1.24561 69.474 0.330241 76.5 0.280762ZM121.254 51.1206L111.16 41.0269L62.25 89.937L41.8398 69.5269L31.7461 79.6206L62.25 110.125L121.254 51.1206Z" fill="#219653"/>
</svg>
