<svg width="26" height="26" viewBox="0 0 26 26" fill="none" xmlns="http://www.w3.org/2000/svg">
<path d="M5.449 11.2133C7.41495 15.077 10.5823 18.2307 14.4459 20.2103L17.4495 17.2067C17.8181 16.8381 18.3642 16.7153 18.842 16.8791C20.3711 17.3842 22.023 17.6573 23.7159 17.6573C24.4668 17.6573 25.0811 18.2716 25.0811 19.0225V23.7872C25.0811 24.5381 24.4668 25.1524 23.7159 25.1524C10.8963 25.1524 0.506836 14.763 0.506836 1.94336C0.506836 1.19248 1.12119 0.578125 1.87208 0.578125H6.65041C7.4013 0.578125 8.01565 1.19248 8.01565 1.94336C8.01565 3.64991 8.2887 5.2882 8.79384 6.81727C8.94402 7.2951 8.8348 7.82755 8.45253 8.20981L5.449 11.2133Z" fill="#BDBDBD"/>
</svg>
